<?xml version="1.0" encoding="utf-8"?>
<!-- Generator: Adobe Illustrator 16.0.0, SVG Export Plug-In . SVG Version: 6.00 Build 0)  -->
<!DOCTYPE svg PUBLIC "-//W3C//DTD SVG 1.1//EN" "http://www.w3.org/Graphics/SVG/1.1/DTD/svg11.dtd">
<svg version="1.1" id="Layer_1" xmlns="http://www.w3.org/2000/svg" xmlns:xlink="http://www.w3.org/1999/xlink" x="0px" y="0px"
	 width="23px" height="28px" viewBox="0 0 23 28" enable-background="new 0 0 23 28" xml:space="preserve">
<g>
	<defs>
		<filter id="Adobe_OpacityMaskFilter" filterUnits="userSpaceOnUse" x="11.237" y="19.17" width="4" height="4">
			<feColorMatrix  type="matrix" values="1 0 0 0 0  0 1 0 0 0  0 0 1 0 0  0 0 0 1 0"/>
		</filter>
	</defs>
	<mask maskUnits="userSpaceOnUse" x="11.237" y="19.17" width="4" height="4" id="b">
		<g filter="url(#Adobe_OpacityMaskFilter)">
			<path id="a" fill="#FFFFFF" d="M0,0h28v28H0V0z"/>
		</g>
	</mask>
	<path mask="url(#b)" fill="#fff" d="M12.237,22.17h2v-2h-2V22.17z M11.737,23.17h3c0.276,0,0.5-0.224,0.5-0.5v-3
		c0-0.276-0.224-0.5-0.5-0.5h-3c-0.276,0-0.5,0.224-0.5,0.5v3C11.237,22.948,11.46,23.17,11.737,23.17z"/>
	<path fill="#fff" d="M23.256,10.095c-0.264,0.708-0.919,1.008-1.616,0.75l-0.01-0.005c-0.698-0.26-1.009-0.92-0.746-1.627
		l0.25-0.67l2.371,0.885L23.256,10.095z M14.723,13.218h0.004c-0.053-0.002-0.103-0.015-0.157-0.015h-2.668
		c-0.052,0-0.1,0.013-0.152,0.016c0.315-0.52,0.878-0.838,1.486-0.84C13.866,12.379,14.416,12.717,14.723,13.218L14.723,13.218z
		 M16.227,16.163h-5.98V15.86c0-0.913,0.742-1.657,1.655-1.657h2.668c0.915,0.001,1.656,0.742,1.657,1.657V16.163z M11.902,27.14
		c-0.67,0-1.246-0.402-1.506-0.977h5.681c-0.26,0.575-0.837,0.977-1.507,0.977H11.902z M10.246,25.163h5.981v-8h-5.98L10.246,25.163
		L10.246,25.163z M3.75,11.254l-0.308-0.643C3.115,9.928,3.366,9.243,4.037,8.923l0.011-0.005c0.67-0.321,1.35-0.082,1.677,0.6
		l0.307,0.644L3.75,11.254z M22.731,1.04l0.307,0.643c0.326,0.682,0.087,1.362-0.584,1.683l-0.01,0.004
		c-0.67,0.321-1.362,0.087-1.688-0.595l-0.309-0.643L22.731,1.04L22.731,1.04z M5.343,3.752l-2.37-0.883L3.221,2.2
		c0.264-0.708,0.931-1.004,1.628-0.744L4.86,1.46c0.697,0.26,0.997,0.916,0.732,1.623L5.343,3.752L5.343,3.752z M21.108,7.548
		c-0.236-0.09-0.501,0.028-0.591,0.265c-0.001,0.002-0.001,0.005-0.002,0.007l-0.23,0.618l-5.758-2.144l5.727-2.74
		c0.628,0.866,1.667,1.137,2.596,0.693l0.011-0.005c1.065-0.51,1.5-1.728,0.93-2.918l-0.507-1.062
		c-0.108-0.229-0.381-0.327-0.61-0.219c-0.002,0.001-0.004,0.002-0.006,0.003L19.714,1.46c-0.229,0.107-0.328,0.381-0.221,0.61
		c0.001,0.002,0.002,0.004,0.003,0.006l0.285,0.595l-6.043,2.893v-1.4c0-0.276-0.224-0.5-0.5-0.5c-0.276,0-0.5,0.224-0.5,0.5v1.465
		l-6.335-2.36C6.794,2.072,6.26,0.951,5.186,0.552L5.174,0.546C4.068,0.136,2.901,0.673,2.44,1.91l-0.41,1.1
		C1.94,3.247,2.06,3.512,2.297,3.602c0.001,0,0.002,0.001,0.003,0.001L5.37,4.747c0.237,0.091,0.502-0.028,0.593-0.265
		c0-0.001,0.001-0.003,0.002-0.005l0.1-0.268l5.905,2.2L6.42,9.065c-0.589-1.113-1.765-1.508-2.8-1.012L3.61,8.057
		C2.544,8.567,2.12,9.78,2.69,10.97l0.507,1.062c0.108,0.229,0.381,0.327,0.61,0.219c0.002-0.001,0.004-0.002,0.006-0.003
		l2.953-1.412c0.229-0.107,0.328-0.379,0.221-0.608c-0.001-0.003-0.002-0.005-0.003-0.008L6.861,9.963l5.877-2.813v4.275
		c-1.105,0.207-1.975,1.063-2.197,2.165c-0.801,0.477-1.292,1.338-1.295,2.27v9.623c0.001,1.467,1.189,2.655,2.656,2.657h2.668
		c1.467-0.002,2.656-1.19,2.657-2.657V15.86c0-0.97-0.529-1.813-1.307-2.276l0.012,0.005c-0.223-1.1-1.091-1.956-2.194-2.162V7.069
		l6.238,2.321c-0.187,1.054,0.34,1.99,1.304,2.35l0.012,0.005c1.107,0.413,2.285-0.122,2.745-1.358l0.41-1.103
		c0.09-0.236-0.028-0.5-0.264-0.59c-0.002-0.001-0.005-0.002-0.008-0.003L21.108,7.548z"/>
</g>
</svg>
