<svg xmlns="http://www.w3.org/2000/svg" width="20" height="15.999" viewBox="0 0 20 15.999">
  <path id="Icon_awesome-hands-helping" data-name="Icon awesome-hands-helping" d="M15.249,6H10.5v1.75a2.25,2.25,0,1,1-4.5,0v-3.8L3.971,5.17A2,2,0,0,0,3,6.882V8.36L.5,9.8A1,1,0,0,0,.133,11.17l2.5,4.331A1,1,0,0,0,4,15.866L7.23,14H11.5a2,2,0,0,0,2-2H14a1,1,0,0,0,1-1V9h.25a.748.748,0,0,0,.75-.75v-1.5A.748.748,0,0,0,15.249,6Zm4.616-1.169L17.365.5A1,1,0,0,0,16,.135L12.768,2H9.574a2.015,2.015,0,0,0-1.059.3l-1.047.653A.993.993,0,0,0,7,3.8V7.751a1.25,1.25,0,1,0,2.5,0V5h5.75A1.751,1.751,0,0,1,17,6.751v.891L19.5,6.2a1,1,0,0,0,.366-1.366Z" transform="translate(0.002 -0.002)" fill="#1a1a1a"/>
</svg>
