<svg width="320" height="340" viewBox="0 0 320 340" fill="none" xmlns="http://www.w3.org/2000/svg">
<path d="M0 0H320V329C320 334.523 315.523 339 310 339H10C4.47715 339 0 334.523 0 329V0Z" fill="url(#paint0_linear_277_2850)"/>
<path d="M298.388 225.728V218.44H306.098V198.264H308.621V218.44H316.33V225.728H319.97V338.711H294.748V225.728H298.388Z" fill="#C3D9E3"/>
<path d="M228.129 235.372V338.711H263.505V243.231L257.114 235.372H228.129ZM254.564 309.481H260.586V315.503H254.564V309.481ZM254.564 297.437H260.586V303.459H254.564V297.437ZM254.564 273.341H260.586V279.362H254.564V273.341ZM254.564 261.297H260.586V267.319H254.564V261.297ZM254.564 249.253H260.586V255.275H254.564V249.253ZM242.52 297.437H248.542V303.459H242.52V297.437ZM242.52 285.393H248.542V291.415H242.52V285.393ZM242.52 273.349H248.542V279.371H242.52V273.349ZM230.477 309.49H236.498V315.511H230.477V309.49ZM230.477 285.393H236.498V291.415H230.477V285.393ZM230.477 273.349H236.498V279.371H230.477V273.349ZM230.477 249.253H236.498V255.275H230.477V249.253Z" fill="#C3D9E3"/>
<path d="M68.9662 338.711L79.8145 338.579L79.0321 299.652L78.8738 290.633V290.088L78.7244 282.052V281.525L78.5837 273.894V273.393L78.4519 266.105V265.631L78.3288 258.686V258.237L78.2057 251.609V251.178L78.0914 244.831V244.418L77.9947 238.914C77.7574 239.117 77.4585 239.284 77.1156 239.424L77.1771 243.433L73.4409 240.022C72.9398 240.005 72.4651 239.934 72.0256 239.855L76.553 244.005L70.9267 243.978L70.9618 239.539C70.6366 239.433 70.3465 239.293 70.0827 239.134L70.03 244.383V244.796L69.9596 251.143V251.565L69.8893 258.211V258.651L69.819 265.604V266.079L69.7487 273.367V273.868L69.6695 281.516V282.035L69.5904 290.079V290.624L69.5025 299.652L68.9662 338.702V338.711ZM70.6805 290.914H77.1684L70.6366 297.973L70.6805 290.914ZM70.786 283.336L77.2123 290.079H70.7421L70.786 283.336ZM70.7069 273.762L76.887 273.78L70.6717 280.154L70.7069 273.762ZM70.7772 266.791L76.9046 272.927L70.7421 272.91L70.7772 266.791ZM70.8212 258.659L76.7112 258.677L70.786 264.461L70.8212 258.659ZM70.8739 252.207L76.7112 257.798L70.83 257.771L70.8739 252.207ZM76.5618 244.919L70.9003 250.185L70.9355 244.892L76.5706 244.919H76.5618ZM77.3969 251.407L71.6563 251.389L77.3178 246.097L77.3969 251.407ZM77.4848 257.842L71.6563 252.277L77.4057 252.303L77.4848 257.842ZM77.5991 265.859L71.5948 265.842L77.52 260.048L77.5991 265.859ZM77.687 272.813L71.5772 266.712L77.5991 266.73L77.687 272.813ZM77.8101 281.578H71.4981L77.7222 275.169L77.8101 281.578ZM77.8716 289.138L71.4453 282.422H77.7837L77.8716 289.138ZM77.9244 298.413H71.2871L77.8189 291.318L77.9244 298.413Z" fill="#C3D9E3"/>
<path d="M70.1355 239.46C70.3992 239.618 70.6893 239.758 71.0146 239.864V239.205L72.0695 240.172C72.5003 240.26 72.9838 240.321 73.4849 240.339L70.8915 237.965L70.5838 238.246H70.1443V239.451L70.1355 239.46ZM77.1244 238.29L77.142 239.75C77.476 239.609 77.7749 239.442 78.0211 239.24L78.0035 238.29H77.1244Z" fill="#C3D9E3"/>
<path d="M68.8696 237.534C68.7992 237.991 68.9575 238.431 69.3267 238.827L69.6256 239.108C69.775 239.231 69.9509 239.354 70.1355 239.46C70.3992 239.618 70.6893 239.758 71.0146 239.864C71.3486 239.996 71.7003 240.101 72.0695 240.172C72.5003 240.26 72.9838 240.321 73.4849 240.339C73.5464 240.347 73.608 240.347 73.6695 240.347H74.1266C75.3046 240.339 76.3508 240.11 77.1596 239.75C77.4936 239.609 77.7925 239.442 78.0387 239.24L78.1178 239.187L78.3991 238.914C78.7508 238.536 78.8914 238.106 78.8123 237.657L78.1705 234.044L79.876 234.071L73.9332 231.046L67.7443 233.868L69.4849 233.895L68.8871 237.534H68.8696Z" fill="#C3D9E3"/>
<path d="M82.1177 259.134V338.711H116.553V259.134H82.1177ZM107.225 315.722H111.999V319.828H107.225V315.722ZM107.225 285.815H111.999V289.921H107.225V285.815ZM107.225 270.861H111.999V274.967H107.225V270.861ZM96.9483 308.25H101.722V312.355H96.9483V308.25ZM96.9483 293.296H101.722V297.402H96.9483V293.296ZM96.9483 278.343H101.722V282.448H96.9483V278.343ZM96.9483 263.389H101.722V267.494H96.9483V263.389ZM86.6715 315.731H91.4451V319.837H86.6715V315.731ZM86.6715 308.25H91.4451V312.355H86.6715V308.25ZM86.6715 285.815H91.4451V289.921H86.6715V285.815ZM86.6715 278.334H91.4451V282.439H86.6715V278.334Z" fill="#C3D9E3"/>
<path d="M34.259 240.787V224.031H38.2677V205.332H41.6435V196.884L48.4302 186.88L55.2082 196.884V205.332H58.584V224.031H62.5927V240.787H66.6542V338.711H30.1975V240.787H34.259Z" fill="#C3D9E3"/>
<path d="M45.8984 251.064H50.9532V246.009H45.8984V251.064Z" fill="#FEFEFE"/>
<path d="M35.0238 251.064H40.0787V246.009H35.0238V251.064Z" fill="#FEFEFE"/>
<path d="M56.7818 269.472H61.8367V264.418H56.7818V269.472Z" fill="#FEFEFE"/>
<path d="M35.0238 269.472H40.0787V264.418H35.0238V269.472Z" fill="#FEFEFE"/>
<path d="M45.8984 278.668H50.9532V273.613H45.8984V278.668Z" fill="#FEFEFE"/>
<path d="M56.7818 287.863H61.8367V282.809H56.7818V287.863Z" fill="#FEFEFE"/>
<path d="M45.8984 287.863H50.9532V282.809H45.8984V287.863Z" fill="#FEFEFE"/>
<path d="M35.0238 297.076H40.0787V292.022H35.0238V297.076Z" fill="#FEFEFE"/>
<path d="M56.7818 306.272H61.8367V301.217H56.7818V306.272Z" fill="#FEFEFE"/>
<path d="M45.8984 315.476H50.9532V310.421H45.8984V315.476Z" fill="#FEFEFE"/>
<path d="M35.0238 315.476H40.0787V310.421H35.0238V315.476Z" fill="#FEFEFE"/>
<path d="M0 248.567V338.72H30.0744V234.176L0 248.567ZM10.8482 310.632H5.2395V305.024H10.8482V310.632ZM10.8482 280.004H5.2395V274.395H10.8482V280.004ZM10.8482 259.582H5.2395V253.974H10.8482V259.582ZM22.9184 331.054H17.3097V325.445H22.9184V331.054ZM22.9184 300.426H17.3097V294.817H22.9184V300.426ZM22.9184 290.219H17.3097V284.611H22.9184V290.219ZM22.9184 269.798H17.3097V264.189H22.9184V269.798Z" fill="#C3D9E3"/>
<path d="M264.48 272.259L264.639 338.711H302.309L302.52 272.259H295.179L295.197 263.802H271.83V272.259H264.472H264.48ZM271.812 278.624H266.889V274.184H271.812V278.624ZM267.012 294.606V290.378H271.707V294.606H267.012ZM271.689 298.184V302.307H267.1V298.184H271.689ZM266.942 286.712V282.378H271.751V286.712H266.942ZM281.245 267.741V272.268H276.225V267.741H281.245ZM281.272 274.184V278.624H276.348V274.184H281.272ZM276.436 294.606V290.378H281.14V294.606H276.436ZM281.113 298.184V302.307H276.524V298.184H281.113ZM276.375 286.712V282.378H281.184V286.712H276.375ZM290.696 267.741V272.268H285.667V267.741H290.696ZM290.722 274.184V278.624H285.79V274.184H290.722ZM285.86 294.606V290.378H290.564V294.606H285.86ZM285.94 298.184H290.537V302.307H285.94V298.184ZM285.816 286.712V282.378H290.634V286.712H285.816ZM300.172 278.624H295.249V274.184H300.19V278.624H300.172ZM295.276 294.606V290.378H299.988V294.606H295.276ZM295.355 298.184H299.953V302.307H295.346V298.184H295.355ZM295.249 286.712V282.378H300.076V286.712H295.249ZM300.12 318.281H295.118V313.797H300.128L300.111 318.281H300.12ZM295.188 333.999V329.744H299.961V333.999H295.188ZM295.091 326.509V322.149H299.979V326.509H295.091ZM294.986 310.966V306.377H300.12L300.102 310.966H294.986ZM290.731 318.281H285.729V313.797H290.74V318.281H290.731ZM285.702 326.509V322.149H290.59V326.509H285.702ZM285.579 310.966V306.377H290.704V310.966H285.579ZM276.322 322.149H281.201V326.509H276.322V322.149ZM276.322 313.797H281.324V318.281H276.322V313.797ZM276.173 306.377H281.298V310.966H276.181V306.377H276.173ZM267.047 329.744H271.812V333.999H267.056V329.744H267.047ZM266.924 322.149H271.803V326.509H266.933V322.149H266.924ZM266.898 313.797H271.9V318.281H266.907V313.797H266.898ZM266.74 306.377H271.865V310.966H266.749V306.377H266.74Z" fill="#C3D9E3"/>
<path d="M290.608 329.744H276.384L276.41 330.808H276.806L276.814 338.711H278.23V330.808H288.779L288.77 338.711H290.194L290.203 330.808H290.634L290.608 329.744Z" fill="#C3D9E3"/>
<path d="M283.566 338.711H278.3L278.291 330.808H283.575L283.566 338.711Z" fill="#C3D9E3"/>
<path d="M288.709 338.711H283.434L283.443 330.808H288.718L288.709 338.711Z" fill="#C3D9E3"/>
<path d="M239.505 287.935C226.386 287.553 215.431 297.906 215.051 311.057C214.67 324.209 224.997 335.19 238.117 335.572C251.236 335.954 262.191 325.601 262.572 312.449C262.938 299.298 252.618 288.331 239.505 287.935ZM239.604 284.515C254.606 284.953 266.421 297.503 265.984 312.548C265.546 327.594 253.034 339.43 238.025 338.999C223.017 338.561 211.209 326.018 211.639 310.973C212.076 295.927 224.596 284.084 239.604 284.522V284.515Z" fill="#263238"/>
<path d="M157.879 285.553C144.759 285.165 133.804 295.517 133.424 308.676C133.036 321.827 143.364 332.809 156.49 333.19C169.609 333.579 180.564 323.226 180.945 310.068C181.311 296.917 170.991 285.949 157.879 285.553ZM157.977 282.133C172.986 282.571 184.794 295.122 184.357 310.167C183.92 325.212 171.4 337.049 156.391 336.611C141.383 336.173 129.575 323.622 130.012 308.577C130.449 293.532 142.969 281.695 157.977 282.133Z" fill="#263238"/>
<path d="M238.934 307.552C236.622 307.482 234.691 309.312 234.62 311.63C234.55 313.948 236.375 315.884 238.688 315.955C241 316.025 242.931 314.195 243.002 311.877C243.072 309.559 241.247 307.623 238.934 307.552Z" fill="#263238"/>
<path d="M157.442 300.485C162.334 300.627 166.19 304.726 166.042 309.63C165.901 314.534 161.819 318.4 156.92 318.258C152.028 318.117 148.171 314.025 148.312 309.114C148.453 304.21 152.535 300.344 157.435 300.485H157.442ZM157.026 315.029C160.142 315.121 162.743 312.661 162.834 309.538C162.926 306.414 160.466 303.807 157.357 303.715C154.241 303.623 151.64 306.089 151.548 309.206C151.456 312.329 153.91 314.937 157.026 315.029Z" fill="#263238"/>
<path opacity="0.5" d="M157.442 300.485C162.334 300.627 166.19 304.726 166.042 309.63C165.901 314.534 161.819 318.4 156.92 318.258C152.028 318.117 148.171 314.025 148.312 309.114C148.453 304.21 152.535 300.344 157.435 300.485H157.442ZM157.026 315.029C160.142 315.121 162.743 312.661 162.834 309.538C162.926 306.414 160.466 303.807 157.357 303.715C154.241 303.623 151.64 306.089 151.548 309.206C151.456 312.329 153.91 314.937 157.026 315.029Z" fill="white"/>
<path d="M239.075 302.874C243.968 303.015 247.824 307.114 247.676 312.018C247.535 316.923 243.453 320.788 238.554 320.647C233.661 320.506 229.805 316.414 229.946 311.503C230.087 306.598 234.169 302.733 239.068 302.874H239.075ZM238.659 317.417C241.775 317.509 244.377 315.05 244.468 311.927C244.56 308.803 242.1 306.195 238.991 306.103C235.875 306.012 233.274 308.478 233.182 311.594C233.09 314.718 235.544 317.326 238.659 317.417Z" fill="#263238"/>
<path opacity="0.5" d="M239.075 302.874C243.968 303.015 247.824 307.114 247.676 312.018C247.535 316.923 243.453 320.788 238.554 320.647C233.661 320.506 229.805 316.414 229.946 311.503C230.087 306.598 234.169 302.733 239.068 302.874H239.075ZM238.659 317.417C241.775 317.509 244.377 315.05 244.468 311.927C244.56 308.803 242.1 306.195 238.991 306.103C235.875 306.012 233.274 308.478 233.182 311.594C233.09 314.718 235.544 317.326 238.659 317.417Z" fill="white"/>
<path d="M240.937 309.489C240.683 309.411 240.415 309.368 240.147 309.361L240.105 309.347L240.062 309.333L202.798 305.312C200.014 305.171 197.638 307.326 197.504 310.117C197.391 312.421 198.844 314.52 201.05 315.206C201.445 315.326 201.847 315.403 202.256 315.432L239.935 315.177H239.957L239.978 315.191C241.585 315.234 242.932 313.962 242.974 312.351C243.009 311.05 242.184 309.884 240.944 309.481M241.331 308.132C243.552 308.796 244.814 311.142 244.151 313.368C243.601 315.22 241.853 316.463 239.928 316.364L202.213 316.605C201.685 316.576 201.163 316.478 200.655 316.322C197.321 315.269 195.467 311.707 196.517 308.365C197.384 305.602 200.014 303.779 202.897 303.934L240.203 307.941C240.584 307.948 240.965 308.012 241.331 308.132Z" fill="#FAFAFA"/>
<path d="M202.298 313.905C202.361 313.905 202.418 313.912 202.481 313.905C202.925 313.856 203.313 313.573 203.503 313.163L216.834 271.286C217.13 270.643 216.841 269.879 216.2 269.59C215.558 269.293 214.797 269.583 214.501 270.226L202.058 310.146L168.516 274.098C168.065 273.547 167.262 273.469 166.719 273.922C166.197 274.353 166.098 275.116 166.493 275.667L201.311 313.403C201.551 313.714 201.91 313.898 202.298 313.905Z" fill="#263238"/>
<path d="M238.786 312.612C239.259 312.626 239.654 312.259 239.668 311.785C239.668 311.658 239.646 311.531 239.597 311.411L210.786 289.362C210.616 288.917 210.13 288.698 209.686 288.868C209.242 289.037 209.023 289.525 209.192 289.97C209.199 289.998 209.214 290.027 209.228 290.055L238.032 312.103C238.166 312.407 238.462 312.605 238.786 312.619V312.612Z" fill="#263238"/>
<path d="M215.868 258.537C215.868 258.537 217.116 269.795 216.193 269.604C215.276 269.406 192.689 268.409 192.689 268.409L201.635 290.839L196.292 291.447C196.292 291.447 180.078 267.441 181.325 261.95C182.573 256.467 215.868 258.544 215.868 258.544V258.537Z" fill="#FAFAFA"/>
<g opacity="0.3">
<path d="M215.868 258.537C215.868 258.537 217.116 269.795 216.193 269.604C215.276 269.406 192.689 268.409 192.689 268.409L201.635 290.839L196.292 291.447C196.292 291.447 180.078 267.441 181.325 261.95C182.573 256.467 215.868 258.544 215.868 258.544V258.537Z" fill="black"/>
</g>
<path opacity="0.2" d="M213.281 265.067L211.18 269.321C207.317 269.151 199.365 268.713 199.365 268.713C202.495 266.254 210.285 264.452 213.281 265.074V265.067Z" fill="black"/>
<path d="M203.778 298.69L199.781 298.281L196.884 290.733L200.599 290.451L203.778 298.69Z" fill="#FF8B7B"/>
<path opacity="0.2" d="M196.884 290.733L198.28 294.394L202.094 294.337L200.606 290.451L196.884 290.733Z" fill="black"/>
<path d="M195.305 292.557L202.664 292.288L202.58 289.906L194.762 290.069L195.305 292.557Z" fill="#FAFAFA"/>
<path d="M200.127 297.27L204.117 297.312C204.265 297.312 204.392 297.418 204.427 297.567L205.111 300.832C205.174 301.121 204.991 301.397 204.702 301.461C204.667 301.468 204.631 301.475 204.596 301.475C203.158 301.432 201.078 301.333 199.274 301.319C197.138 301.298 196.496 301.425 194.015 301.404C192.513 301.383 192.111 299.864 192.746 299.736C195.608 299.143 196.778 299.065 199.26 297.56C199.52 297.39 199.816 297.291 200.127 297.284V297.27Z" fill="#FAFAFA"/>
<path d="M197.518 297.949C197.843 297.949 198.16 297.927 198.477 297.864C198.512 297.857 198.54 297.828 198.547 297.8C198.547 297.772 198.54 297.737 198.512 297.715C198.385 297.631 197.229 296.903 196.82 297.079C196.729 297.122 196.665 297.206 196.665 297.305C196.637 297.468 196.701 297.631 196.827 297.744C197.025 297.885 197.272 297.956 197.518 297.949ZM198.23 297.737C197.603 297.828 197.131 297.786 196.954 297.623C196.87 297.546 196.827 297.433 196.849 297.32C196.849 297.277 196.87 297.242 196.905 297.228C197.102 297.136 197.758 297.454 198.23 297.729V297.744V297.737Z" fill="#FAFAFA"/>
<path d="M198.463 297.864H198.512C198.512 297.864 198.555 297.821 198.555 297.793C198.555 297.751 198.505 296.754 198.096 296.408C197.998 296.323 197.864 296.274 197.73 296.288C197.596 296.288 197.476 296.366 197.448 296.493C197.349 296.896 198.054 297.659 198.421 297.871H198.456L198.463 297.864ZM197.786 296.429C197.857 296.429 197.927 296.464 197.984 296.514C198.23 296.832 198.364 297.214 198.378 297.609C198.019 297.327 197.554 296.733 197.624 296.507C197.624 296.486 197.624 296.436 197.751 296.429H197.779H197.786Z" fill="#FAFAFA"/>
<path d="M170.265 270.579L210.2 288.359C210.905 288.444 211.547 287.942 211.624 287.235C211.709 286.522 211.209 285.886 210.504 285.801L170.885 268.508L170.258 270.586L170.265 270.579Z" fill="#263238"/>
<path d="M203.059 330.703L210.588 330.922C211.06 330.936 211.455 330.562 211.462 330.095C211.476 329.622 211.103 329.226 210.638 329.219L203.109 329C202.636 328.986 202.242 329.36 202.234 329.827C202.22 330.3 202.594 330.696 203.059 330.703Z" fill="#263238"/>
<path d="M206.408 330.194C206.88 330.208 207.275 329.834 207.289 329.367C207.289 329.29 207.289 329.212 207.268 329.141L200.521 301.666C200.387 301.213 199.915 300.952 199.464 301.086C199.041 301.213 198.78 301.637 198.872 302.075L205.618 329.537C205.703 329.911 206.034 330.187 206.415 330.201L206.408 330.194Z" fill="#263238"/>
<path d="M196.686 307.199L204.222 307.418C204.695 307.432 205.09 307.058 205.097 306.591C205.111 306.118 204.737 305.722 204.272 305.715L196.736 305.496C196.264 305.482 195.869 305.856 195.862 306.323C195.848 306.796 196.221 307.192 196.686 307.199Z" fill="#263238"/>
<path d="M195.974 302.796L203.503 303.015C203.976 303.029 204.37 302.655 204.377 302.189C204.392 301.715 204.018 301.319 203.553 301.312L196.024 301.093C195.551 301.079 195.157 301.454 195.15 301.92C195.136 302.393 195.509 302.789 195.974 302.796Z" fill="#263238"/>
<path d="M156.828 310.584C156.934 310.626 157.04 310.64 157.146 310.655C157.731 310.669 158.252 310.287 158.414 309.722L163.934 291.32L170.166 270.537L170.265 270.579L170.892 268.501L169.391 267.844C168.989 267.795 168.608 267.936 168.34 268.205C168.185 268.353 168.072 268.544 168.009 268.763L155.961 309.001C155.757 309.679 156.152 310.386 156.835 310.584H156.828Z" fill="#263238"/>
<path d="M169.391 267.851L170.892 268.508L172.401 263.576C172.69 262.933 172.408 262.169 171.766 261.88C171.125 261.59 170.363 261.866 170.074 262.516L168.347 268.219C168.615 267.95 168.996 267.809 169.398 267.858L169.391 267.851Z" fill="#263238"/>
<path d="M202.827 310.174L237.997 310.972C238.455 310.98 238.822 311.368 238.808 311.828C238.793 312.266 238.448 312.626 238.004 312.64L202.298 313.905L202.827 310.174Z" fill="#263238"/>
<path d="M171.04 268.742L168.263 277.66C168.192 277.893 167.945 278.02 167.713 277.942L165.563 277.243C165.337 277.172 165.21 276.925 165.281 276.699L168.016 267.703C168.086 267.462 168.34 267.335 168.58 267.42L170.779 268.197C170.998 268.275 171.118 268.515 171.047 268.742H171.04Z" fill="#FAFAFA"/>
<path d="M171.943 265.13L173.606 259.618L169.602 258.177L168.939 260.671L169.525 264.36L171.943 265.13Z" fill="#FAFAFA"/>
<path d="M177.491 260.254L166.387 258.898" stroke="#FAFAFA" stroke-width="5" stroke-linecap="round" stroke-linejoin="round"/>
<path d="M227.239 267.639C227.838 267.66 228.064 268.445 227.549 268.77C225.428 270.12 221.896 272.381 220.599 273.342C220.239 273.611 219.76 273.653 219.358 273.455L218.78 273.172C215.001 271.342 210.877 270.332 206.683 270.211L204.899 270.162C203.828 270.134 203.32 268.819 204.089 268.07L204.829 267.356C205.061 267.13 205.379 267.003 205.71 267.017L227.239 267.646V267.639Z" fill="#263238"/>
<path d="M203.087 306.612C200.768 306.542 198.837 308.372 198.773 310.697C198.703 313.022 200.528 314.958 202.848 315.022C205.167 315.085 207.099 313.262 207.162 310.937C207.226 308.612 205.407 306.676 203.087 306.612ZM203.151 304.478C206.647 304.577 209.397 307.503 209.291 311.008C209.192 314.513 206.274 317.269 202.777 317.163C199.281 317.064 196.531 314.138 196.637 310.633C196.736 307.135 199.647 304.372 203.137 304.478H203.144H203.151Z" fill="#FAFAFA"/>
<path d="M211.392 326.442L207.754 326.053L207.966 318.046L211.596 318.428L211.392 326.442Z" fill="#FF8B7B"/>
<path d="M207.183 325.254L211.632 325.431C211.78 325.431 211.906 325.537 211.935 325.678L212.534 328.774C212.583 329.049 212.386 329.311 212.097 329.36C212.055 329.36 212.012 329.367 211.977 329.36C210.553 329.275 209.51 329.162 207.719 329.092C206.612 329.056 203.264 329.028 201.748 328.965C200.232 328.901 200.084 327.466 200.705 327.36C203.539 326.887 205.689 326.173 206.619 325.445C206.781 325.318 206.986 325.247 207.19 325.254H207.183Z" fill="#FAFAFA"/>
<path opacity="0.2" d="M211.596 318.435L207.966 318.053L207.86 322.18L211.498 322.562L211.596 318.435Z" fill="black"/>
<path d="M215.579 257.873C215.579 257.873 205.879 278.508 206.267 288.62C206.683 299.694 206.344 320.428 206.344 320.428L212.647 321.085C212.647 321.085 215.763 301.362 215.466 290.564C215.121 278.26 232.942 264.657 227.916 255.647C221.903 256.65 215.579 257.873 215.579 257.873Z" fill="#FAFAFA"/>
<g opacity="0.3">
<path d="M215.579 257.873C215.579 257.873 205.879 278.508 206.267 288.62C206.683 299.694 206.344 320.428 206.344 320.428L212.647 321.085C212.647 321.085 215.763 301.362 215.466 290.564C215.121 278.26 232.942 264.657 227.916 255.647C221.903 256.65 215.579 257.873 215.579 257.873Z" fill="black"/>
</g>
<path d="M205.78 321.064L213.591 322.025L213.887 319.82L205.513 318.654L205.78 321.064Z" fill="#FAFAFA"/>
<path d="M205.95 325.813C206.274 325.813 206.591 325.792 206.908 325.728C206.944 325.721 206.972 325.693 206.979 325.664C206.979 325.636 206.972 325.601 206.944 325.579C206.817 325.495 205.66 324.767 205.252 324.943C205.16 324.986 205.097 325.071 205.097 325.17C205.068 325.332 205.132 325.495 205.259 325.608C205.456 325.749 205.703 325.82 205.95 325.813ZM206.662 325.601C206.034 325.693 205.562 325.65 205.386 325.488C205.301 325.41 205.259 325.297 205.28 325.184C205.28 325.141 205.301 325.106 205.336 325.092C205.534 325 206.189 325.318 206.662 325.594V325.608V325.601Z" fill="#FAFAFA"/>
<path d="M206.894 325.728H206.944C206.944 325.728 206.986 325.685 206.986 325.657C206.986 325.615 206.936 324.618 206.528 324.279C206.429 324.194 206.295 324.145 206.161 324.159C206.027 324.159 205.907 324.237 205.879 324.364C205.78 324.767 206.485 325.53 206.852 325.742H206.887L206.894 325.728ZM206.217 324.293C206.288 324.293 206.358 324.329 206.415 324.378C206.662 324.696 206.796 325.078 206.81 325.473C206.45 325.191 205.985 324.597 206.055 324.371C206.055 324.35 206.055 324.3 206.182 324.293H206.21H206.217Z" fill="#FAFAFA"/>
<path d="M212.999 227.486C209.82 227.959 206.633 228.44 203.454 228.913C198.11 229.712 192.57 226.963 187.973 224.115L185.753 226.44C185.753 226.44 195.488 233.655 200.331 233.669C203.08 233.676 207.374 232.948 210.574 232.312C212.752 231.881 213.944 229.5 212.992 227.486H212.999Z" fill="#263238"/>
<path d="M182.291 219.875C182.552 221.437 182.82 223.006 183.081 224.567C183.969 225.133 184.737 225.903 185.626 226.468C186.479 225.952 187.487 225.111 188.001 224.256C187.839 223.528 187.543 222.829 187.374 222.101C187.099 220.893 185.626 220.101 184.815 219.168C184.089 219.338 183.01 219.705 182.284 219.875H182.291Z" fill="#FF8B7B"/>
<path d="M210.976 234.878L203.828 234.687L202.841 228.023C202.841 228.023 206.817 227.238 210.546 226.475C210.701 228.638 210.821 232.701 210.976 234.871V234.878Z" fill="#FAFAFA"/>
<path opacity="0.1" d="M210.976 234.878L203.828 234.687L202.841 228.023C202.841 228.023 206.817 227.238 210.546 226.475C210.701 228.638 210.821 232.701 210.976 234.871V234.878Z" fill="black"/>
<path opacity="0.2" d="M203.821 234.687L210.49 233.457L210.518 234.885L203.821 234.687Z" fill="black"/>
<path d="M227.585 230.002C226.161 242.531 227.831 251.039 228.868 258.763C226.316 259.364 221.318 259.576 216.7 259.406C213.486 259.286 209.122 258.276 209.122 258.276C209.594 250.863 208.452 236.015 207.93 229.832C207.79 228.185 208.932 226.708 210.553 226.44H210.602C211.131 226.348 211.702 226.27 212.301 226.2C212.633 226.164 212.971 226.129 213.309 226.108C216.08 225.995 218.85 226.037 221.614 226.249C222.135 226.284 222.664 226.327 223.186 226.383C223.7 226.44 224.13 226.496 224.574 226.56L225.188 226.652C226.767 226.899 227.845 228.383 227.599 229.966V230.002H227.585Z" fill="#FAFAFA"/>
<path d="M224.448 234.588C224.37 236.298 225.709 239.853 226.971 242.1C226.887 239.937 226.88 237.669 227.021 235.351L224.448 234.588Z" fill="#FAFAFA"/>
<path opacity="0.2" d="M224.448 234.588C224.37 236.298 225.709 239.853 226.971 242.1C226.887 239.937 226.88 237.669 227.021 235.351L224.448 234.588Z" fill="black"/>
<path d="M220.93 216.872C220.359 219.543 219.76 224.433 221.593 226.256C220.119 227.677 218.195 229.316 215.022 229.373C211.85 229.436 212.442 227.239 213.295 226.115C216.284 225.451 216.249 223.239 215.763 221.147L220.93 216.872Z" fill="#FF8B7B"/>
<path opacity="0.2" d="M218.829 218.603L215.777 221.133C215.896 221.62 215.974 222.115 216.009 222.61C217.349 222.398 218.491 221.521 219.055 220.285C219.344 219.529 219.118 218.716 218.829 218.603Z" fill="black"/>
<path d="M223.292 213.918C222.171 217.373 221.691 219.451 219.464 220.794C216.101 222.815 212.196 220.087 212.266 216.349C212.329 212.999 214.148 207.918 217.934 207.402C220.634 207.021 223.129 208.914 223.51 211.621C223.616 212.391 223.545 213.176 223.292 213.911V213.918Z" fill="#FF8B7B"/>
<path d="M220.972 214.822C220.718 215.508 220.415 216.179 220.063 216.822C220.627 216.603 221.698 216.504 222.312 216.539C222.579 216.554 222.84 216.596 223.108 216.582C223.376 216.568 223.651 216.49 223.834 216.299C224.074 216.066 224.137 215.684 224.039 215.359C223.94 215.034 223.707 214.773 223.425 214.582C223.122 214.37 222.756 214.243 222.382 214.257C222.015 214.271 221.099 214.469 220.972 214.815V214.822Z" fill="#263238"/>
<path d="M221.691 211.324C221.691 211.324 221.254 213.176 220.669 214.836C221.106 214.794 222.96 215.812 222.876 216.363C222.678 217.628 221.473 218.631 220.345 219.232C220.373 219.628 220.401 220.772 220.401 220.772C221.127 221.288 221.973 221.472 222.692 221.988C223.073 222.256 223.461 222.525 223.905 222.645C224.349 222.765 224.878 222.702 225.202 222.369C225.526 222.037 225.526 221.408 225.138 221.154C225.928 221.288 226.76 220.871 227.049 220.122C227.338 219.373 227.035 218.44 226.358 218.009C226.802 218.292 227.458 218.137 227.754 217.691C228.043 217.246 228.029 216.652 227.81 216.165C227.599 215.677 227.211 215.289 226.809 214.949C227.042 215.176 227.493 215.041 227.683 214.78C227.874 214.518 227.881 214.165 227.845 213.84C227.726 212.893 227.218 212.003 226.464 211.423C223.531 209.169 217.976 204.632 215.509 208.519L216.08 208.363C217.532 208.681 216.735 209.133 217.546 209.247C219.576 209.515 220.965 210.61 221.705 211.324H221.691Z" fill="#263238"/>
<path d="M223.827 217.903C223.165 218.532 222.283 218.864 221.367 218.843C220.161 218.801 219.922 217.628 220.563 216.681C221.141 215.826 222.467 214.822 223.531 215.324C224.589 215.833 224.624 217.147 223.827 217.903Z" fill="#FF8B7B"/>
<path d="M217.729 213.529C217.645 213.812 217.447 214.002 217.257 213.96C217.074 213.911 216.982 213.642 217.053 213.359C217.123 213.077 217.335 212.879 217.525 212.928C217.708 212.978 217.8 213.253 217.729 213.536V213.529Z" fill="#263238"/>
<path d="M214.508 212.695C214.423 212.978 214.226 213.169 214.035 213.126C213.852 213.077 213.753 212.808 213.831 212.518C213.901 212.236 214.113 212.045 214.303 212.094C214.494 212.144 214.578 212.412 214.508 212.695Z" fill="#263238"/>
<path d="M215.495 213.112C214.931 213.896 214.268 214.603 213.514 215.211C213.894 215.812 214.811 215.819 214.811 215.819L215.495 213.112Z" fill="#FF5652"/>
<path d="M215.805 216.879C216.468 216.963 217.137 216.78 217.652 216.356C217.687 216.32 217.687 216.271 217.652 216.236C217.617 216.2 217.567 216.2 217.532 216.236C216.947 216.695 216.178 216.843 215.459 216.645C215.417 216.631 215.368 216.66 215.354 216.709C215.34 216.758 215.368 216.801 215.417 216.815C215.544 216.843 215.671 216.872 215.798 216.886L215.805 216.879Z" fill="#263238"/>
<path d="M218.991 212.738C218.991 212.738 219.048 212.738 219.076 212.73C219.16 212.695 219.203 212.596 219.167 212.504C218.97 211.981 218.526 211.586 217.983 211.451C217.891 211.437 217.8 211.494 217.786 211.586C217.765 211.678 217.828 211.769 217.92 211.791C218.35 211.904 218.695 212.215 218.85 212.624C218.871 212.681 218.928 212.723 218.984 212.73L218.991 212.738Z" fill="#263238"/>
<path d="M213.408 211.225C213.464 211.225 213.521 211.211 213.563 211.162C213.838 210.815 214.261 210.625 214.698 210.646C214.79 210.66 214.881 210.589 214.888 210.497C214.903 210.405 214.839 210.321 214.74 210.307C214.183 210.271 213.641 210.504 213.295 210.943C213.232 211.013 213.239 211.119 213.309 211.183C213.309 211.183 213.366 211.218 213.401 211.225H213.408Z" fill="#263238"/>
<path d="M224.081 228.362C227.535 229.373 230.983 230.376 234.437 231.387C240.239 233.083 246.781 230.871 252.3 228.412L254.408 231.316C254.408 231.316 242.544 237.832 237.172 237.118C234.127 236.715 229.488 235.252 226.034 234.065C223.686 233.259 222.728 230.447 224.081 228.355V228.362Z" fill="#263238"/>
<path d="M259.23 224.574C258.701 226.263 258.173 227.959 257.651 229.648C256.579 230.143 255.614 230.871 254.542 231.365C253.675 230.666 252.681 229.585 252.237 228.56C252.526 227.776 252.963 227.048 253.252 226.263C253.739 224.963 255.487 224.313 256.53 223.401C257.306 223.698 258.448 224.27 259.23 224.567V224.574Z" fill="#FF8B7B"/>
<path d="M225.879 226.793C230.235 228.397 230.214 228.708 234.775 229.571L231.025 238.121C231.025 238.121 227.592 237.846 225.301 235.811C223.609 234.305 222.333 232.305 222.883 229.281C223.143 227.875 224.539 226.299 225.879 226.793Z" fill="#FAFAFA"/>
<path opacity="0.1" d="M225.879 226.793C230.235 228.397 230.214 228.708 234.775 229.571L231.025 238.121C231.025 238.121 227.592 237.846 225.301 235.811C223.609 234.305 222.333 232.305 222.883 229.281C223.143 227.875 224.539 226.299 225.879 226.793Z" fill="white"/>
<defs>
<linearGradient id="paint0_linear_277_2850" x1="80" y1="69.4568" x2="357.465" y2="260.783" gradientUnits="userSpaceOnUse">
<stop offset="0.0104167" stop-color="white"/>
<stop offset="1" stop-color="#2BACE3" stop-opacity="0"/>
</linearGradient>
</defs>
</svg>
