<svg width="10" height="12" viewBox="0 0 10 12" fill="none" xmlns="http://www.w3.org/2000/svg">
<path fill-rule="evenodd" clip-rule="evenodd" d="M8.5 8.1819C8.5 9.59054 7.09336 11 5 11C2.90664 11 1.5 9.59054 1.5 8.1819C1.5 6.72079 2.4503 4.9012 3.56726 3.31715C4.0721 2.60119 4.57877 1.97755 4.97499 1.51684C5.37874 2.01355 5.90264 2.68969 6.42464 3.45276C6.96891 4.24837 7.49828 5.11991 7.88834 5.96813C8.28554 6.83189 8.5 7.5903 8.5 8.1819ZM0.5 8.1819C0.5 5.46349 3.06561 2.18548 4.32239 0.742816C4.73005 0.274852 5 0 5 0C5 0 5.25862 0.285884 5.65186 0.764773C6.89896 2.2835 9.5 5.74336 9.5 8.1819C9.5 10.2906 7.48528 12 5 12C2.51472 12 0.5 10.2906 0.5 8.1819ZM2.74917 6.5H3.82496C3.62254 6.96197 3.5 7.40007 3.5 7.77277C3.5 8.34506 4.05982 9 5 9V10C3.61929 10 2.5 9.00284 2.5 7.77277C2.5 7.36231 2.5955 6.92998 2.74917 6.5Z" fill="url(#paint0_linear_330_844)"/>
<defs>
<linearGradient id="paint0_linear_330_844" x1="5" y1="0" x2="5" y2="12" gradientUnits="userSpaceOnUse">
<stop stop-color="#A9C3CE"/>
<stop offset="1" stop-color="#4991B1"/>
</linearGradient>
</defs>
</svg>
