<svg xmlns="http://www.w3.org/2000/svg" width="188.307" height="144.851" viewBox="0 0 188.307 144.851">
  <g id="undraw_happy_birthday_re_c16u" transform="translate(0 0)">
    <path id="Path_168" data-name="Path 168" d="M706.659,282.353c4.04-10.861,13.584-20.246,25.118-21.362a53.391,53.391,0,0,0-8.438,35.672c.59,4.824,1.749,10.128-.851,14.234a11.935,11.935,0,0,1-7.409,4.837,35.445,35.445,0,0,1-9.026.6l-.677.334C703.249,305.272,702.619,293.214,706.659,282.353Z" transform="translate(-580.466 -241.567)" fill="#f0f0f0"/>
    <path id="Path_169" data-name="Path 169" d="M735.806,260.563a45.635,45.635,0,0,0-16.954,22.381,19.653,19.653,0,0,0-1.2,6.039,11.27,11.27,0,0,0,1.524,5.733,23.331,23.331,0,0,1,2.526,5.05,6.9,6.9,0,0,1-.969,5.56,17.931,17.931,0,0,1-5.231,4.853c-2.184,1.5-4.475,3.032-5.812,5.4-.162.286-.6.018-.435-.268,2.325-4.112,7.2-5.605,10.188-9.1a6.989,6.989,0,0,0,1.872-5.859c-.377-1.9-1.531-3.522-2.467-5.176a12.028,12.028,0,0,1-1.7-5.55,18.167,18.167,0,0,1,.963-6.063,44.276,44.276,0,0,1,6.245-12.348,46.443,46.443,0,0,1,11.209-11.1c.269-.188.508.264.241.451Z" transform="translate(-584.439 -240.903)" fill="#fff"/>
    <path id="Path_170" data-name="Path 170" d="M736.978,309.595a6.847,6.847,0,0,1-3.42-8.18c.1-.313.592-.171.491.142a6.34,6.34,0,0,0,3.2,7.6c.294.148.025.582-.268.435Z" transform="translate(-601.72 -270.529)" fill="#fff"/>
    <path id="Path_171" data-name="Path 171" d="M742.219,365.066a13.2,13.2,0,0,0,7.485-6.039c.163-.286.6-.018.435.268a13.726,13.726,0,0,1-7.8,6.268c-.314.1-.431-.4-.119-.5Z" transform="translate(-608.052 -312.024)" fill="#fff"/>
    <path id="Path_172" data-name="Path 172" d="M774.425,286.408a3.876,3.876,0,0,0,3.617.664c.313-.1.429.4.118.5a4.343,4.343,0,0,1-4-.726.264.264,0,0,1-.084-.351A.257.257,0,0,1,774.425,286.408Z" transform="translate(-631.082 -259.83)" fill="#fff"/>
    <path id="Path_173" data-name="Path 173" d="M762.872,350.115c-.194.069-.387.139-.582.212a51.041,51.041,0,0,0-7.524,3.455c-.188.1-.377.208-.562.314a53.8,53.8,0,0,0-15.055,12.876,52.259,52.259,0,0,0-4.491,6.547c-1.835,3.167-3.572,6.747-6.267,9.055a8.958,8.958,0,0,1-.878.678L709.129,378.9c-.037-.031-.075-.058-.112-.089l-.742-.14c.06-.123.125-.249.186-.372.035-.072.073-.142.108-.214.024-.047.049-.095.068-.139.008-.016.016-.032.023-.043.019-.044.042-.083.06-.123q.543-1.061,1.1-2.118s0,0,.006-.007a76.827,76.827,0,0,1,10.2-15.03c.121-.135.242-.275.371-.408a49.866,49.866,0,0,1,5.923-5.579,44.073,44.073,0,0,1,3.63-2.592,36.655,36.655,0,0,1,10.508-4.574c7.418-1.921,15.368-1.449,21.912,2.346C762.542,349.917,762.706,350.013,762.872,350.115Z" transform="translate(-583.759 -303.006)" fill="#f0f0f0"/>
    <path id="Path_174" data-name="Path 174" d="M763.257,359.144a45.635,45.635,0,0,0-27.012,7.662,19.655,19.655,0,0,0-4.594,4.1,11.272,11.272,0,0,0-2.235,5.495,23.333,23.333,0,0,1-1.024,5.553,6.9,6.9,0,0,1-4.122,3.856,17.931,17.931,0,0,1-7.1.725c-2.649-.114-5.4-.274-7.889.809-.3.131-.487-.345-.186-.476,4.332-1.883,9.126-.138,13.612-1.13a6.989,6.989,0,0,0,5.022-3.551c.842-1.742.9-3.734,1.147-5.618a12.027,12.027,0,0,1,1.985-5.454,18.169,18.169,0,0,1,4.419-4.262,44.274,44.274,0,0,1,12.421-6.1,46.445,46.445,0,0,1,15.633-2.115C763.663,358.651,763.582,359.156,763.257,359.144Z" transform="translate(-584.24 -311.811)" fill="#fff"/>
    <path id="Path_175" data-name="Path 175" d="M813.316,359.015a6.847,6.847,0,0,1,2.194-8.59c.269-.189.575.22.306.409a6.34,6.34,0,0,0-2.025,7.995c.146.295-.331.479-.475.186Z" transform="translate(-658.845 -305.887)" fill="#fff"/>
    <path id="Path_176" data-name="Path 176" d="M781.063,417.768a13.2,13.2,0,0,0,9.612-.315c.3-.13.488.346.186.476a13.727,13.727,0,0,1-10,.308C780.548,418.126,780.755,417.658,781.063,417.768Z" transform="translate(-635.878 -354.138)" fill="#fff"/>
    <path id="Path_177" data-name="Path 177" d="M863.67,362.572a3.876,3.876,0,0,0,2.488,2.708c.311.107.1.574-.2.468a4.343,4.343,0,0,1-2.759-2.99.264.264,0,0,1,.145-.331A.257.257,0,0,1,863.67,362.572Z" transform="translate(-695.225 -314.546)" fill="#fff"/>
    <path id="Path_178" data-name="Path 178" d="M284.58,623.789c-10.525-4.848-19.163-15.074-19.4-26.66a53.391,53.391,0,0,0,34.933,11.108c4.855-.224,10.231-.979,14.129,1.924a11.935,11.935,0,0,1,4.264,7.753,35.445,35.445,0,0,1-.088,9.045l.282.7C307.176,628.92,295.105,628.637,284.58,623.789Z" transform="translate(-264.913 -483.446)" fill="#f0f0f0"/>
    <path id="Path_179" data-name="Path 179" d="M264.742,596.65a45.635,45.635,0,0,0,21.037,18.6,19.652,19.652,0,0,0,5.932,1.652,11.271,11.271,0,0,0,5.832-1.087,23.33,23.33,0,0,1,5.227-2.137,6.9,6.9,0,0,1,5.471,1.386,17.932,17.932,0,0,1,4.444,5.583c1.335,2.291,2.686,4.692,4.941,6.2.273.183-.027.6-.3.414-3.924-2.628-5.045-7.606-8.3-10.846a6.989,6.989,0,0,0-5.7-2.309c-1.921.232-3.627,1.261-5.348,2.069a12.027,12.027,0,0,1-5.662,1.275,18.17,18.17,0,0,1-5.973-1.418,44.274,44.274,0,0,1-11.842-7.16,46.443,46.443,0,0,1-10.223-12.015c-.167-.282.3-.486.467-.206Z" transform="translate(-264.239 -483.005)" fill="#fff"/>
    <path id="Path_180" data-name="Path 180" d="M308.7,658.442a6.847,6.847,0,0,1-8.414,2.793c-.3-.124-.126-.6.179-.479a6.34,6.34,0,0,0,7.822-2.614c.169-.282.582.02.414.3Z" transform="translate(-290.064 -527.269)" fill="#fff"/>
    <path id="Path_181" data-name="Path 181" d="M365.824,645.644a13.2,13.2,0,0,0-5.457-7.92c-.273-.184.027-.6.3-.414a13.727,13.727,0,0,1,5.661,8.252C366.4,645.885,365.9,645.963,365.824,645.644Z" transform="translate(-333.334 -512.327)" fill="#fff"/>
    <path id="Path_182" data-name="Path 182" d="M288.347,617.536a3.875,3.875,0,0,0,.936-3.556c-.078-.32.427-.4.5-.081a4.343,4.343,0,0,1-1.026,3.937.264.264,0,0,1-.357.057.256.256,0,0,1-.057-.356Z" transform="translate(-281.552 -495.368)" fill="#fff"/>
    <path id="Path_183" data-name="Path 183" d="M358.595,505.725c.055.2.109.4.168.6a51.031,51.031,0,0,0,2.877,7.763c.087.2.179.392.271.584a53.809,53.809,0,0,0,11.7,15.984,52.267,52.267,0,0,0,6.19,4.972c3.019,2.069,6.458,4.071,8.556,6.932a8.981,8.981,0,0,1,.61.927l-5.726,18c-.034.034-.063.07-.1.1l-.2.729c-.118-.069-.239-.144-.357-.213-.069-.04-.136-.084-.2-.124-.045-.028-.091-.056-.133-.079l-.041-.026c-.043-.023-.08-.048-.118-.069q-1.017-.622-2.028-1.26s0,0-.007-.007a76.827,76.827,0,0,1-14.216-11.307c-.126-.13-.256-.262-.379-.4a49.86,49.86,0,0,1-5.116-6.327,44.067,44.067,0,0,1-2.31-3.815,36.654,36.654,0,0,1-3.768-10.823c-1.356-7.542-.284-15.433,3.994-21.672C358.373,506.039,358.481,505.883,358.595,505.725Z" transform="translate(-328.626 -417.673)" fill="#f0f0f0"/>
    <path id="Path_184" data-name="Path 184" d="M369.859,505.333a45.634,45.634,0,0,0,5.6,27.513,19.653,19.653,0,0,0,3.741,4.89,11.273,11.273,0,0,0,5.311,2.643,23.331,23.331,0,0,1,5.46,1.44,6.9,6.9,0,0,1,3.534,4.4,17.932,17.932,0,0,1,.187,7.133c-.313,2.633-.68,5.363.211,7.927.108.311-.38.46-.488.15-1.551-4.461.551-9.11-.1-13.658a6.99,6.99,0,0,0-3.162-5.276c-1.673-.971-3.655-1.177-5.515-1.568a12.027,12.027,0,0,1-5.289-2.391,18.167,18.167,0,0,1-3.916-4.728,44.272,44.272,0,0,1-5.144-12.846,46.445,46.445,0,0,1-.928-15.748C369.4,504.89,369.9,505.009,369.859,505.333Z" transform="translate(-339.675 -417.168)" fill="#fff"/>
    <path id="Path_185" data-name="Path 185" d="M364.223,586.681a6.847,6.847,0,0,1-8.4-2.836c-.168-.282.262-.557.431-.274a6.34,6.34,0,0,0,7.819,2.622C364.378,586.07,364.526,586.559,364.223,586.681Z" transform="translate(-330.114 -473.604)" fill="#fff"/>
    <path id="Path_186" data-name="Path 186" d="M420.658,605.339a13.2,13.2,0,0,0,.411-9.609c-.107-.311.381-.461.488-.15a13.727,13.727,0,0,1-.448,10C420.975,605.879,420.524,605.638,420.658,605.339Z" transform="translate(-376.777 -482.208)" fill="#fff"/>
    <path id="Path_187" data-name="Path 187" d="M371.032,537.707a3.876,3.876,0,0,0,2.888-2.276c.13-.3.58-.061.451.239a4.343,4.343,0,0,1-3.19,2.525.264.264,0,0,1-.319-.169A.257.257,0,0,1,371.032,537.707Z" transform="translate(-340.955 -438.949)" fill="#fff"/>
    <path id="Path_188" data-name="Path 188" d="M390.92,343.719c-9.3-9.156-13.228-18.707-11.061-26.895,2.782-10.507,15.139-17.772,33.9-19.932l.069.6c-18.5,2.13-30.673,9.231-33.387,19.484-2.11,7.968,1.761,17.311,10.9,26.308Z" transform="translate(-347.018 -267.401)" fill="#f0f0f0"/>
    <path id="Path_189" data-name="Path 189" d="M541.069,519.6a145.586,145.586,0,0,1-36.75-5.042c-15.494-4.1-29.7-10.293-41.082-17.9l.337-.5c11.328,7.575,25.471,13.737,40.9,17.822a141.772,141.772,0,0,0,40.62,4.951l.022.606Q543.116,519.6,541.069,519.6Z" transform="translate(-407.434 -410.785)" fill="#f0f0f0"/>
    <path id="Path_190" data-name="Path 190" d="M720.205,383.665l-.194-.575c10.381-3.51,16.874-9.164,18.777-16.352,2.419-9.137-2.836-19.74-14.8-29.856-12.022-10.167-29.358-18.6-48.816-23.755l.155-.586c19.542,5.174,36.963,13.654,49.052,23.878,12.15,10.276,17.474,21.1,14.992,30.474C737.417,374.288,730.788,380.087,720.205,383.665Z" transform="translate(-559.941 -278.662)" fill="#f0f0f0"/>
    <path id="Path_191" data-name="Path 191" d="M368.828,484.993c-22.808-10.116-40.383-23.239-49.488-36.954l.505-.336c9.042,13.62,26.525,26.666,49.229,36.735Z" transform="translate(-303.889 -375.922)" fill="#f0f0f0"/>
    <path id="Path_192" data-name="Path 192" d="M763.368,625.09q-3.529,0-7.178-.158l.026-.606c18.156.786,34.175-1.387,46.329-6.285l.227.563C792.17,622.877,778.657,625.09,763.368,625.09Z" transform="translate(-618.238 -498.494)" fill="#f0f0f0"/>
    <path id="Path_193" data-name="Path 193" d="M542.088,271.2c-3.77-1.227-7.647-2.37-11.525-3.4-22.314-5.907-44.249-8-63.434-6.064l-.061-.6c19.257-1.947,41.266.156,63.65,6.081,3.888,1.03,7.777,2.176,11.557,3.406Z" transform="translate(-410.192 -241.161)" fill="#f0f0f0"/>
    <path id="Path_194" data-name="Path 194" d="M340.087,346.963c-9.3-9.156-13.228-18.707-11.061-26.895,2.782-10.507,15.139-17.772,33.9-19.932l.069.6c-18.5,2.13-30.673,9.231-33.387,19.484-2.11,7.968,1.762,17.311,10.9,26.308Z" transform="translate(-310.439 -269.736)" fill="#f0f0f0"/>
    <path id="Path_195" data-name="Path 195" d="M490.237,522.847a145.589,145.589,0,0,1-36.75-5.042c-15.494-4.1-29.7-10.293-41.082-17.9l.337-.5c11.328,7.575,25.471,13.737,40.9,17.822a141.77,141.77,0,0,0,40.62,4.951l.022.606Q492.284,522.848,490.237,522.847Z" transform="translate(-370.856 -413.12)" fill="#f0f0f0"/>
    <path id="Path_196" data-name="Path 196" d="M669.372,386.909l-.194-.575c10.381-3.51,16.874-9.164,18.777-16.352,2.419-9.137-2.836-19.74-14.8-29.856-12.022-10.167-29.358-18.6-48.816-23.755l.155-.586c19.543,5.174,36.963,13.654,49.052,23.878,12.15,10.276,17.474,21.1,14.992,30.474C686.584,377.532,679.955,383.331,669.372,386.909Z" transform="translate(-523.362 -280.996)" fill="#f0f0f0"/>
    <path id="Path_197" data-name="Path 197" d="M317.995,488.238c-22.808-10.116-40.383-23.239-49.488-36.954l.505-.336c9.042,13.62,26.525,26.666,49.229,36.735Z" transform="translate(-267.31 -378.257)" fill="#f0f0f0"/>
    <path id="Path_198" data-name="Path 198" d="M712.536,628.335q-3.529,0-7.178-.158l.026-.606c18.156.786,34.175-1.387,46.329-6.285l.227.563C741.338,626.121,727.824,628.335,712.536,628.335Z" transform="translate(-581.66 -500.829)" fill="#f0f0f0"/>
    <path id="Path_199" data-name="Path 199" d="M491.256,274.44c-3.77-1.227-7.647-2.37-11.525-3.4-22.314-5.907-44.249-8-63.434-6.064l-.061-.6c19.257-1.947,41.266.156,63.65,6.081,3.888,1.03,7.777,2.176,11.557,3.406Z" transform="translate(-373.614 -243.495)" fill="#f0f0f0"/>
    <path id="Path_200" data-name="Path 200" d="M451.655,462.691a4.706,4.706,0,0,0-4.7,4.7,220.893,220.893,0,0,0-1.783,39.721c.036.847.075,1.622.121,2.369.067,1.234.151,2.538.252,3.874.058.788.118,1.579.185,2.367.111,1.284.234,2.588.364,3.877.082.787.167,1.578.257,2.366.174,1.547.372,3.134.6,4.85a4.713,4.713,0,0,0,4.7,4.721h78.854a4.706,4.706,0,0,0,4.7-4.7l0-.033c.351-1.6.678-3.231.973-4.847.157-.852.293-1.626.415-2.366.221-1.347.418-2.651.585-3.875.114-.822.217-1.618.306-2.366.147-1.225.28-2.492.406-3.872.069-.75.133-1.525.194-2.369h0a137.889,137.889,0,0,0-2.878-39.684l0-.033a4.706,4.706,0,0,0-4.7-4.7Z" transform="translate(-394.271 -386.707)" fill="#3f3d56"/>
    <path id="Path_201" data-name="Path 201" d="M456.5,449.46c-17.086,0-35.191-1.553-58.886-4.659h0a4.987,4.987,0,0,1-4.951-4.45,4.58,4.58,0,0,1-.031-.553V425.544a.712.712,0,0,1,0-.091,5.015,5.015,0,0,1,5-4.913c41.224-5.605,66.267-5.6,111.628,0h0a5.014,5.014,0,0,1,4.981,4.928.549.549,0,0,1,0,.075V439.8a4.605,4.605,0,0,1-.031.555,4.993,4.993,0,0,1-4.973,4.449C489.641,447.907,473.577,449.46,456.5,449.46Z" transform="translate(-356.623 -353.351)" fill="#29abe2"/>
    <path id="Path_202" data-name="Path 202" d="M590.794,447.577H580.427a4.982,4.982,0,0,1-4.977-4.977V404.938a4.982,4.982,0,0,1,4.977-4.977h10.367a4.982,4.982,0,0,1,4.977,4.977V442.6A4.982,4.982,0,0,1,590.794,447.577Z" transform="translate(-488.181 -341.568)" fill="#3f3d56"/>
    <path id="Path_203" data-name="Path 203" d="M566.537,346.371a13.14,13.14,0,0,0-.4-2.09,13.537,13.537,0,0,0-.768-2,11.773,11.773,0,0,0-5.3-5.5,14.133,14.133,0,0,0-9.308-.854,18.4,18.4,0,0,0-7.191,3.367,18.7,18.7,0,0,0-3,2.828,36.662,36.662,0,0,0-2.758,4.423,18.415,18.415,0,0,0-4.092-5.854,19.239,19.239,0,0,0-7.049-4.26,17.757,17.757,0,0,0-4.32-.878,13.749,13.749,0,0,0-4.634.4,11.674,11.674,0,0,0-6.608,4.83,12.184,12.184,0,0,0-2.064,7.432,12.5,12.5,0,0,0,.85,3.881,14.8,14.8,0,0,0,.929,1.949,15.167,15.167,0,0,0,1.235,1.769,13.987,13.987,0,0,0,6.872,4.576,20.451,20.451,0,0,0,8.9.5,41.886,41.886,0,0,0,8.837-2.493c.382-.144.763-.292,1.144-.439a56.117,56.117,0,0,0,7.783,2.525,23.436,23.436,0,0,0,9.162.367,14.7,14.7,0,0,0,7.6-3.711,13.643,13.643,0,0,0,3.936-6.835A11.8,11.8,0,0,0,566.537,346.371Zm-39.494,11.591a20.426,20.426,0,0,1-4.955.029,15.381,15.381,0,0,1-3.446-.917,10.833,10.833,0,0,1-5.806-5.764,11.6,11.6,0,0,1-.7-2.554,10.573,10.573,0,0,1,0-2.344,11.025,11.025,0,0,1,.659-2.391,11.264,11.264,0,0,1,1.237-2.118,10.625,10.625,0,0,1,1.6-1.6,9.713,9.713,0,0,1,1.787-1.047,10.921,10.921,0,0,1,2.338-.625,13.829,13.829,0,0,1,3.259.025,16.848,16.848,0,0,1,3.754,1.035,17.717,17.717,0,0,1,3.615,2.107,17.358,17.358,0,0,1,2.793,2.785,17.112,17.112,0,0,1,2.034,3.5,17.744,17.744,0,0,1,1.092,4.036l0,.02a18.382,18.382,0,0,0-.119,2.094c0,.27.012.539.026.808a1.609,1.609,0,0,0-.316.425,50.97,50.97,0,0,1-6.482,2.056Q528.235,357.792,527.044,357.962Zm36.459-9.206a11.6,11.6,0,0,1-.7,2.554,10.774,10.774,0,0,1-5.806,5.764,15.377,15.377,0,0,1-3.446.917,20.429,20.429,0,0,1-4.964-.03,41.143,41.143,0,0,1-8.51-2.373l-.34-.13a1.581,1.581,0,0,0-.3-.421,18.146,18.146,0,0,0-.091-2.927,17.74,17.74,0,0,1,1.091-4.028,17.117,17.117,0,0,1,2.034-3.5,17.345,17.345,0,0,1,2.793-2.785,17.717,17.717,0,0,1,3.615-2.107,16.853,16.853,0,0,1,3.754-1.035,13.832,13.832,0,0,1,3.259-.025,10.923,10.923,0,0,1,2.338.625,9.713,9.713,0,0,1,1.787,1.047,10.62,10.62,0,0,1,1.6,1.6,11.277,11.277,0,0,1,1.237,2.117,11.039,11.039,0,0,1,.659,2.391,10.579,10.579,0,0,1,0,2.344Z" transform="translate(-440.389 -295.184)" fill="#3f3d56"/>
    <circle id="Ellipse_48" data-name="Ellipse 48" cx="1.82" cy="1.82" r="1.82" transform="translate(64.056 104.038)" fill="#29abe2"/>
    <circle id="Ellipse_49" data-name="Ellipse 49" cx="1.82" cy="1.82" r="1.82" transform="translate(77.097 99.489)" fill="#29abe2"/>
    <circle id="Ellipse_50" data-name="Ellipse 50" cx="1.82" cy="1.82" r="1.82" transform="translate(71.335 113.743)" fill="#29abe2"/>
    <circle id="Ellipse_51" data-name="Ellipse 51" cx="1.82" cy="1.82" r="1.82" transform="translate(125.32 104.038)" fill="#29abe2"/>
    <circle id="Ellipse_52" data-name="Ellipse 52" cx="1.82" cy="1.82" r="1.82" transform="translate(112.278 99.489)" fill="#29abe2"/>
    <circle id="Ellipse_53" data-name="Ellipse 53" cx="1.82" cy="1.82" r="1.82" transform="translate(118.041 113.743)" fill="#29abe2"/>
    <circle id="Ellipse_54" data-name="Ellipse 54" cx="1.82" cy="1.82" r="1.82" transform="translate(126.836 135.883)" fill="#29abe2"/>
    <circle id="Ellipse_55" data-name="Ellipse 55" cx="1.82" cy="1.82" r="1.82" transform="translate(131.385 122.842)" fill="#29abe2"/>
    <circle id="Ellipse_56" data-name="Ellipse 56" cx="1.82" cy="1.82" r="1.82" transform="translate(117.131 128.604)" fill="#29abe2"/>
    <circle id="Ellipse_57" data-name="Ellipse 57" cx="1.82" cy="1.82" r="1.82" transform="translate(74.671 135.883)" fill="#29abe2"/>
    <circle id="Ellipse_58" data-name="Ellipse 58" cx="1.82" cy="1.82" r="1.82" transform="translate(79.22 122.842)" fill="#29abe2"/>
    <circle id="Ellipse_59" data-name="Ellipse 59" cx="1.82" cy="1.82" r="1.82" transform="translate(64.966 128.604)" fill="#29abe2"/>
    <path id="Path_2961" data-name="Path 2961" d="M687.979,202.726a4.348,4.348,0,0,0,4.234-.5c1.539-1.148,2.116-3.151,2.6-5.009l1.427-5.5-2.411,1.464a16.93,16.93,0,0,0-4.759,3.737,5.739,5.739,0,0,0-1.06,5.691" transform="translate(-568.909 -191.724)" fill="#f2f2f2"/>
    <path id="Path_2961-2" data-name="Path 2961" d="M437.563,370.25a4.348,4.348,0,0,0,.681-4.208c-.682-1.794-2.451-2.9-4.106-3.872l-4.895-2.878.747,2.72a16.931,16.931,0,0,0,2.291,5.6,5.74,5.74,0,0,0,5.183,2.578" transform="translate(-382.973 -312.302)" fill="#f2f2f2"/>
    <path id="Path_2961-3" data-name="Path 2961" d="M847.469,672a4.348,4.348,0,0,0,.681-4.208c-.682-1.794-2.451-2.9-4.106-3.871l-4.895-2.878.747,2.72a16.929,16.929,0,0,0,2.291,5.6,5.74,5.74,0,0,0,5.183,2.578" transform="translate(-677.934 -529.438)" fill="#f2f2f2"/>
    <circle id="Ellipse_60" data-name="Ellipse 60" cx="2.426" cy="2.426" r="2.426" transform="translate(74.671 30.34)" fill="#fd6584"/>
    <circle id="Ellipse_61" data-name="Ellipse 61" cx="2.426" cy="2.426" r="2.426" transform="translate(10.071 101.915)" fill="#fd6584"/>
    <circle id="Ellipse_62" data-name="Ellipse 62" cx="2.426" cy="2.426" r="2.426" transform="translate(176.878 82.202)" fill="#fd6584"/>
    <circle id="Ellipse_63" data-name="Ellipse 63" cx="2.426" cy="2.426" r="2.426" transform="translate(7.645 40.955)" fill="#e6e6e6"/>
    <circle id="Ellipse_64" data-name="Ellipse 64" cx="2.426" cy="2.426" r="2.426" transform="translate(157.771 110.104)" fill="#e6e6e6"/>
    <circle id="Ellipse_65" data-name="Ellipse 65" cx="2.426" cy="2.426" r="2.426" transform="translate(162.624 36.406)" fill="#e6e6e6"/>
    <path id="Path_204" data-name="Path 204" d="M460.933,464.724a.723.723,0,0,1-1,.076.807.807,0,0,1,0-1.17c.868-1.042,2.3.058,2.5,1.092a2.6,2.6,0,0,1-1.224,2.591,2.8,2.8,0,0,1-3.127-.41,3.381,3.381,0,0,1,.68-5.456,4.73,4.73,0,0,1,4.089.187,34.068,34.068,0,0,1,3.886,2.429,21.668,21.668,0,0,0,9.359,3.2c.582.059.578-.851,0-.91a20.815,20.815,0,0,1-5.378-1.295,23.638,23.638,0,0,1-4.832-2.652,10.741,10.741,0,0,0-4.988-2.225,4.327,4.327,0,0,0-3.989,1.735,4.419,4.419,0,0,0-.664,3.876,4.092,4.092,0,0,0,3.119,2.686,3.345,3.345,0,0,0,3.527-1.629,3.1,3.1,0,0,0-.376-3.8,2.414,2.414,0,0,0-2.347-.638,2.065,2.065,0,0,0-1.4,1.777,1.632,1.632,0,0,0,2.948,1c.314-.5-.473-.953-.786-.459Z" transform="translate(-402.268 -384.877)" fill="#3f3d56"/>
    <path id="Path_205" data-name="Path 205" d="M710.893,464.724a.723.723,0,0,0,1,.076.807.807,0,0,0,0-1.17c-.868-1.042-2.3.058-2.5,1.092a2.6,2.6,0,0,0,1.225,2.591,2.8,2.8,0,0,0,3.127-.41,3.38,3.38,0,0,0-.68-5.456,4.729,4.729,0,0,0-4.089.187,34.064,34.064,0,0,0-3.886,2.429,21.668,21.668,0,0,1-9.359,3.2c-.582.059-.578-.851,0-.91a20.815,20.815,0,0,0,5.378-1.295,23.64,23.64,0,0,0,4.832-2.652,10.741,10.741,0,0,1,4.988-2.225,4.327,4.327,0,0,1,3.989,1.735,4.419,4.419,0,0,1,.664,3.876,4.092,4.092,0,0,1-3.119,2.686,3.345,3.345,0,0,1-3.527-1.629,3.1,3.1,0,0,1,.376-3.8,2.414,2.414,0,0,1,2.347-.638,2.064,2.064,0,0,1,1.4,1.777,1.632,1.632,0,0,1-2.948,1c-.314-.5.473-.953.786-.459Z" transform="translate(-574.421 -384.877)" fill="#3f3d56"/>
    <path id="Path_206" data-name="Path 206" d="M82.3,32.876l-1.2,1.508-4.25-2.514,1.2-1.508Z" transform="translate(-55.301 -21.848)" fill="#e4e4e4"/>
    <path id="Path_207" data-name="Path 207" d="M100.652,62.43l1.061,1.584-4.465,2.221-1.061-1.584Z" transform="translate(-69.214 -44.923)" fill="#e4e4e4"/>
    <path id="Path_208" data-name="Path 208" d="M128.05,37.872l2.121.075-.211,4.438-2.121-.075Z" transform="translate(-91.991 -27.252)" fill="#e4e4e4"/>
    <path id="Path_209" data-name="Path 209" d="M617.669,363.829l-1.2,1.508-4.25-2.514,1.2-1.508Z" transform="translate(-440.54 -259.995)" fill="#e4e4e4"/>
    <path id="Path_210" data-name="Path 210" d="M636.017,393.383l1.061,1.584-4.465,2.221-1.061-1.584Z" transform="translate(-454.453 -283.071)" fill="#e4e4e4"/>
    <path id="Path_211" data-name="Path 211" d="M663.415,368.825l2.121.075-.211,4.438-2.121-.075Z" transform="translate(-477.229 -265.4)" fill="#e4e4e4"/>
  </g>
</svg>
