<svg xmlns="http://www.w3.org/2000/svg" width="205.915" height="151.983" viewBox="0 0 205.915 151.983">
  <g id="undraw_mobile_user_re_xta4" transform="translate(-34.764 0)">
    <path id="Path_75" data-name="Path 75" d="M295.93,257.809a7.836,7.836,0,0,0-7.827,7.827v85.1a7.836,7.836,0,0,0,7.827,7.827H472.313a7.836,7.836,0,0,0,7.828-7.827v-85.1a7.836,7.836,0,0,0-7.827-7.827Z" transform="translate(-240.219 -240.495)" fill="#fff"/>
    <path id="Path_76" data-name="Path 76" d="M471.619,358.171H295.235a8.142,8.142,0,0,1-8.133-8.133v-85.1a8.142,8.142,0,0,1,8.133-8.133H471.619a8.142,8.142,0,0,1,8.133,8.133v85.1A8.142,8.142,0,0,1,471.619,358.171ZM295.235,257.42a7.531,7.531,0,0,0-7.522,7.522v85.1a7.531,7.531,0,0,0,7.522,7.522H471.619a7.531,7.531,0,0,0,7.522-7.522v-85.1a7.531,7.531,0,0,0-7.522-7.522Z" transform="translate(-239.524 -239.8)" fill="#3f3d56"/>
    <ellipse id="Ellipse_18" data-name="Ellipse 18" cx="0.619" cy="2.365" rx="0.619" ry="2.365" transform="matrix(0.04, -0.999, 0.999, 0.04, 101.853, 114.035)" fill="#e6e6e6"/>
    <ellipse id="Ellipse_19" data-name="Ellipse 19" cx="0.619" cy="2.365" rx="0.619" ry="2.365" transform="matrix(0.04, -0.999, 0.999, 0.04, 116.907, 113.238)" fill="#3f3d56"/>
    <ellipse id="Ellipse_20" data-name="Ellipse 20" cx="0.619" cy="2.365" rx="0.619" ry="2.365" transform="matrix(0.04, -0.999, 0.999, 0.04, 96.07, 109.391)" fill="#ff6584"/>
    <ellipse id="Ellipse_21" data-name="Ellipse 21" cx="0.556" cy="1.052" rx="0.556" ry="1.052" transform="translate(91.398 107.577) rotate(-83.498)" fill="#e6e6e6"/>
    <ellipse id="Ellipse_22" data-name="Ellipse 22" cx="0.556" cy="1.052" rx="0.556" ry="1.052" transform="translate(87.924 104.019) rotate(-83.498)" fill="#3f3d56"/>
    <ellipse id="Ellipse_23" data-name="Ellipse 23" cx="0.556" cy="1.052" rx="0.556" ry="1.052" transform="translate(107.556 110.077) rotate(-83.498)" fill="#e6e6e6"/>
    <ellipse id="Ellipse_24" data-name="Ellipse 24" cx="0.556" cy="1.052" rx="0.556" ry="1.052" transform="translate(100.667 111.591) rotate(-83.498)" fill="#ff6584"/>
    <ellipse id="Ellipse_25" data-name="Ellipse 25" cx="0.556" cy="1.052" rx="0.556" ry="1.052" transform="translate(111.809 114.029) rotate(-83.498)" fill="#3f3d56"/>
    <path id="Path_77" data-name="Path 77" d="M176.665,531.384a.433.433,0,0,0,.079.257.24.24,0,0,0,.192.106H369.043c.15,0,.271-.163.271-.363s-.121-.363-.271-.363H176.936a.24.24,0,0,0-.192.106A.433.433,0,0,0,176.665,531.384Z" transform="translate(-129.087 -430.293)" fill="#ccc"/>
    <path id="Path_78" data-name="Path 78" d="M418.632,439.491a.857.857,0,0,1-.621-1.486l.059-.234-.023-.056a2.3,2.3,0,0,0-4.246.016,20.444,20.444,0,0,0-1.8,5.116,6.81,6.81,0,0,0,.119,2.342,27.3,27.3,0,0,1-2.483-11.339,26.361,26.361,0,0,1,.163-2.94q.135-1.2.376-2.383a27.615,27.615,0,0,1,5.477-11.7,7.349,7.349,0,0,0,3.057-3.171,5.6,5.6,0,0,0,.51-1.532,6.918,6.918,0,0,1-.449-2.386c-.207-.315-.579-.471-.8-.778-1.126-1.527-2.678-1.26-3.489.815-1.731.874-1.747,2.322-.686,3.715.676.886.768,2.086,1.361,3.035-.061.078-.124.154-.185.232a27.794,27.794,0,0,0-2.9,4.6,11.555,11.555,0,0,0-.69-5.367,19.357,19.357,0,0,0-2.988-4.311,2.372,2.372,0,0,0-4.224,1.165l-.007.061q.243.137.475.291a1.163,1.163,0,0,1-.469,2.116l-.024,0a11.571,11.571,0,0,0,.3,1.73c-1.4,5.407,1.62,7.376,5.93,7.465.1.049.188.1.283.144a28.372,28.372,0,0,0-1.527,7.187,26.908,26.908,0,0,0,.02,4.345l-.007-.051a7.11,7.11,0,0,0-2.427-4.106c-1.868-1.534-4.507-2.1-6.522-3.333a1.334,1.334,0,0,0-2.044,1.3l.008.054a7.817,7.817,0,0,1,.876.422q.243.137.475.291a1.163,1.163,0,0,1-.469,2.116l-.024,0-.049.007a11.576,11.576,0,0,0,2.13,3.335c.874,4.72,4.629,5.168,8.645,3.793h0a28.361,28.361,0,0,0,1.905,5.562h6.806c.024-.076.046-.154.068-.229a7.736,7.736,0,0,1-1.883-.112c.505-.62,1.01-1.244,1.515-1.864a.437.437,0,0,0,.032-.037c.256-.317.515-.632.771-.949h0a11.324,11.324,0,0,0-.332-2.885Z" transform="translate(-316.663 -344.819)" fill="#f2f2f2"/>
    <path id="Path_79" data-name="Path 79" d="M278.358,382.569a1.39,1.39,0,0,1-1.007-2.409l.1-.379-.038-.091a3.732,3.732,0,0,0-6.884.026c-1.126,2.712-2.559,5.428-2.912,8.3a11.042,11.042,0,0,0,.194,3.8,44.265,44.265,0,0,1-4.027-18.385,42.721,42.721,0,0,1,.265-4.766q.22-1.946.609-3.865a44.778,44.778,0,0,1,8.88-18.978,11.917,11.917,0,0,0,4.956-5.142,9.092,9.092,0,0,0,.827-2.484c-.241.032-.91-3.643-.728-3.868-.336-.51-.938-.764-1.305-1.262-1.826-2.476-4.343-2.044-5.656,1.321-2.806,1.416-2.833,3.765-1.111,6.024,1.1,1.437,1.246,3.382,2.207,4.921-.1.127-.2.249-.3.376a45.068,45.068,0,0,0-4.7,7.452,18.735,18.735,0,0,0-1.118-8.7c-1.071-2.583-3.077-4.758-4.844-6.991a3.845,3.845,0,0,0-6.849,1.888l-.011.1q.394.222.771.472a1.885,1.885,0,0,1-.76,3.431l-.038.006a18.749,18.749,0,0,0,.494,2.8c-2.267,8.767,2.627,11.96,9.616,12.1.154.079.3.158.459.233a46,46,0,0,0-2.476,11.653,43.631,43.631,0,0,0,.032,7.045l-.012-.083a11.529,11.529,0,0,0-3.936-6.657c-3.029-2.488-7.308-3.4-10.575-5.4a2.164,2.164,0,0,0-3.314,2.1l.013.087a12.661,12.661,0,0,1,1.42.684q.394.222.771.471a1.885,1.885,0,0,1-.76,3.431l-.038.006-.079.012a18.774,18.774,0,0,0,3.453,5.407c1.417,7.653,7.506,8.379,14.018,6.151h0a45.986,45.986,0,0,0,3.089,9.019h11.036c.04-.123.075-.249.111-.372a12.533,12.533,0,0,1-3.054-.182c.819-1,1.638-2.017,2.456-3.022a.683.683,0,0,0,.051-.059c.415-.514.835-1.024,1.25-1.539h0a18.364,18.364,0,0,0-.538-4.679Z" transform="translate(-210.366 -291.673)" fill="#f2f2f2"/>
    <path id="Path_80" data-name="Path 80" d="M801.644,209.762c-.741-5.679-13.839-5.316-15.076.026a3.5,3.5,0,0,0-2.947.345,5.9,5.9,0,0,0-1.412,1.838,7.953,7.953,0,0,0-1.2,2.975,2.707,2.707,0,0,0,1.267,2.758,6.754,6.754,0,0,0,3.308-.047c.59-.117,1.086-.22,1.506-.321a2.892,2.892,0,0,0-.275-1.959,2.347,2.347,0,0,1,1.611,1.192c.066.128,2.466,18.192,2.466,18.192a10.426,10.426,0,0,0,1.977.049,22.681,22.681,0,0,0,.221-6.74,19.641,19.641,0,0,1,1.639,4.045,24.028,24.028,0,0,1,.556,2.388c5.711-1.068,13.431-4.746,14.84-10.992l-.023-.06a.887.887,0,0,1,1.461-.949c.172.177.326.329.455.446C811.513,218.96,808.488,215.371,801.644,209.762Z" transform="translate(-582.62 -204.254)" fill="#2f2e41"/>
    <path id="Path_81" data-name="Path 81" d="M391.572,439.217l-3.2-1.674,5.077-13.422,4.726,2.471Z" transform="translate(-255.937 -294.634)" fill="#a0616a"/>
    <path id="Path_82" data-name="Path 82" d="M532.787,665.036a1.618,1.618,0,0,0,.683,2.18l6.367,3.328,2.281-1.7-.757,2.491,2.4,1.257,3.556-8.446-.811-.486-3.3-1.989-1.067-.64-1.2,2.291-6.92.853A1.615,1.615,0,0,0,532.787,665.036Z" transform="translate(-410.072 -520.614)" fill="#2f2e41"/>
    <path id="Path_83" data-name="Path 83" d="M382.814,281.55l-2.329-2.762,9.785-10.5,3.437,4.077Z" transform="translate(-250.459 -186.379)" fill="#a0616a"/>
    <path id="Path_84" data-name="Path 84" d="M524.511,495.431a1.617,1.617,0,0,0-.195,2.276l4.631,5.492,2.754-.7-1.644,2.018,1.746,2.074,6.491-6.468-.566-.757-2.3-3.092-.745-1L532.7,496.94l-6.728-1.833A1.614,1.614,0,0,0,524.511,495.431Z" transform="translate(-404.052 -405.305)" fill="#2f2e41"/>
    <path id="Path_85" data-name="Path 85" d="M679.038,386.751s9.888,21.164-31.059,15.461c0,0-21.816-24.177-21.185-27.086,0,0-9.285-9.435-8.831-9.607s.735-.545-.016-.511-.751-1.084-.751-1.084-16.78,18.2-30.909,27.227l-4.885-5.5s1.905-5.959,2.821-5.959,1.232.22,1.379-.959-.582-2.191.393-2.3,21.189-23.729,21.189-23.729,2.181-7.781,8.844-6.275S657.316,376.1,657.316,376.1Z" transform="translate(-443.972 -301.931)" fill="#2f2e41"/>
    <path id="Path_86" data-name="Path 86" d="M654.888,495.177l-54.094-.449-23.509,37.248-6.644-3.517,1.473-.621s-.446-5.177.1-6.487,2.171-.916,2.171-.916l13.706-31.608a13.261,13.261,0,0,1,13.645-8.983c11.341-1.654,29.751-.332,48.877,1.29Z" transform="translate(-436.497 -394.21)" fill="#2f2e41"/>
    <path id="Path_87" data-name="Path 87" d="M733.917,324.055a4,4,0,0,1,3.362,4.451,3.846,3.846,0,0,1-.14.618l11.115,8.431L745.96,344.7l-13.978-13.2a3.988,3.988,0,0,1-2.465-4.2,3.816,3.816,0,0,1,4.3-3.267Z" transform="translate(-546.845 -286.48)" fill="#a0616a"/>
    <path id="Path_88" data-name="Path 88" d="M797.665,296.7l-4,11.064L778.04,329.854l-.36-.153c-1.343-.58-6.222-2.711-10.811-5.132-4.308-2.275-8.365-4.806-8.994-6.546q-.1-.275-.183-.531v0a11.457,11.457,0,0,1-.547-2.736c-.052-.717-.006-1.1-.1-1.148-.076-.034-.235.131-.586.5-.024.024-.046.049-.07.07-1.27,1.273-2.83,1.108-2.448.5.391-.62.186-.608-.388-1.255-.427-.482-1.817-2.369-2.5-3.3-.235-.321-.385-.528-.385-.528l.235-.369.65-1.02,3.093-4.848.171-.266s6.357,1.469,7.2,2.864-1.279,1.349.849,1.4,4.3-2.849,2.745.031-1.145,3.88.779,3.425c.782-.186,2.018.4,3.209,1.166v0a25.18,25.18,0,0,1,2.153,1.566c.736.592,1.233,1.041,1.233,1.041L785.053,290.1l1.337-2.711a6.92,6.92,0,0,1,4.048-3.511l.418.73a82.781,82.781,0,0,1,6.808,12.1Z" transform="translate(-561.556 -258.603)" fill="#29abe2"/>
    <path id="Path_89" data-name="Path 89" d="M834.557,318.607c3.7.861-.236,27.8-4.647,27.881-32.057.611-22.3-17.375-24.016-19.1s-3.27-.488-1.719-3.172c1.13-1.954,2.806-1.664,2.83-2.76a4.361,4.361,0,0,0-.766-1.991c-2.064-3.615-2.064-4.693-2.064-4.693a13.263,13.263,0,0,1-1.084-3.419,16.237,16.237,0,0,1-.122-5.337,17.349,17.349,0,0,1,2.849-7.251v0c.156-.232.318-.467.488-.7.388-.528,2.537-.427,2.537-.427l4.58-19.234-2.65-7.669,12.551-5.88,3.337,5.807.418.73a82.792,82.792,0,0,1,6.808,12.1c1.853,4.125,3.377,8.7,3.432,12.689.146,10.39-1.646,13.479-1.646,13.479s4.351,3.251,2.174,5.239S830.857,317.746,834.557,318.607Z" transform="translate(-597.78 -245.389)" fill="#29abe2"/>
    <path id="Path_90" data-name="Path 90" d="M714.184,314.989l-2.048,1.556a1.925,1.925,0,0,0-.364,2.692l4.932,6.483,2.912,3.825a1.921,1.921,0,0,0,2.688.363l2.05-1.558a1.928,1.928,0,0,0,.361-2.69l-.3-.4-5.975-7.85-1.568-2.058A1.917,1.917,0,0,0,714.184,314.989Z" transform="translate(-534.267 -279.944)" fill="#3f3d56"/>
    <path id="Path_91" data-name="Path 91" d="M717.357,314.686l-2.206,1.539a1.645,1.645,0,0,0-.36,2.434l2.888,3.479,1.539,1.853,1.027,1.237,2.3,2.766a2.009,2.009,0,0,0,2.654.33l1.653-1.153.55-.384a1.672,1.672,0,0,0,.714-1.709,1.649,1.649,0,0,0-.353-.73l-6.785-8.176-.962-1.157a2.006,2.006,0,0,0-2.654-.33Z" transform="translate(-536.369 -279.758)" fill="#29abe2"/>
    <path id="Path_92" data-name="Path 92" d="M718.6,343.528a4,4,0,0,1,3.362,4.45,3.826,3.826,0,0,1-.14.619l11.115,8.431-2.294,7.145-13.978-13.2a3.988,3.988,0,0,1-2.465-4.2,3.816,3.816,0,0,1,4.3-3.267Z" transform="translate(-536.207 -300.007)" fill="#a0616a"/>
    <path id="Path_93" data-name="Path 93" d="M778.651,302.371h0a6.905,6.905,0,0,1,5.117,9.112l-5.41,14.982-15.631,22.088s-18.746-7.918-20.165-11.832-.138-5.264-1.419-3.914-2.907,1.19-2.517.572.184-.6-.389-1.252-2.885-3.828-2.885-3.828l4.149-6.5s6.357,1.467,7.2,2.864-1.282,1.35.847,1.4,4.3-2.85,2.745.029-1.145,3.882.779,3.426,6.593,3.778,6.593,3.778l13.412-27.2A6.905,6.905,0,0,1,778.651,302.371Z" transform="translate(-550.92 -271.355)" fill="#29abe2"/>
    <circle id="Ellipse_26" data-name="Ellipse 26" cx="9.951" cy="9.951" r="9.951" transform="translate(198.625 14.961) rotate(-45)" fill="#a0616a"/>
    <path id="Path_94" data-name="Path 94" d="M805.1,205.22c-.741-5.679-13.839-5.316-15.076.026a3.5,3.5,0,0,0-2.947.345,5.9,5.9,0,0,0-1.412,1.838c-.533.935-4.264,4.1-4.823,3.175-1.258-2.075-3.726,2.459-1.832,5.5.454.728,9.229-.441,10.075-.611.59-.117-.42.1,0,0,.136-.659,1.507-4.062,1.182-4.653a2.348,2.348,0,0,1,1.611,1.192c.066.128,2.466,18.192,2.466,18.192a10.421,10.421,0,0,0,1.977.049,22.681,22.681,0,0,0,.221-6.74,19.642,19.642,0,0,1,1.639,4.045,24.035,24.035,0,0,1,.556,2.388c5.711-1.068,13.431-4.746,14.84-10.992C805.879,216.406,811.946,210.829,805.1,205.22Z" transform="translate(-580.77 -201.098)" fill="#2f2e41"/>
    <ellipse id="Ellipse_27" data-name="Ellipse 27" cx="1.605" cy="2.307" rx="1.605" ry="2.307" transform="matrix(0.144, -0.99, 0.99, 0.144, 132.436, 33.581)" fill="#e6e6e6"/>
    <ellipse id="Ellipse_28" data-name="Ellipse 28" cx="1.605" cy="2.307" rx="1.605" ry="2.307" transform="matrix(0.144, -0.99, 0.99, 0.144, 147.448, 32.116)" fill="#3f3d56"/>
    <ellipse id="Ellipse_29" data-name="Ellipse 29" cx="1.605" cy="2.307" rx="1.605" ry="2.307" transform="matrix(0.144, -0.99, 0.99, 0.144, 128.325, 21.427)" fill="#ff6584"/>
    <ellipse id="Ellipse_30" data-name="Ellipse 30" cx="1.458" cy="1.014" rx="1.458" ry="1.014" transform="matrix(0.008, -1, 1, 0.008, 124.559, 16.968)" fill="#e6e6e6"/>
    <ellipse id="Ellipse_31" data-name="Ellipse 31" cx="1.458" cy="1.014" rx="1.458" ry="1.014" transform="matrix(0.008, -1, 1, 0.008, 122.347, 7.695)" fill="#3f3d56"/>
    <ellipse id="Ellipse_32" data-name="Ellipse 32" cx="1.458" cy="1.014" rx="1.458" ry="1.014" transform="matrix(0.008, -1, 1, 0.008, 139.549, 24.015)" fill="#e6e6e6"/>
    <ellipse id="Ellipse_33" data-name="Ellipse 33" cx="1.458" cy="1.014" rx="1.458" ry="1.014" transform="matrix(0.008, -1, 1, 0.008, 132.295, 27.637)" fill="#ff6584"/>
    <ellipse id="Ellipse_34" data-name="Ellipse 34" cx="1.458" cy="1.014" rx="1.458" ry="1.014" transform="matrix(0.008, -1, 1, 0.008, 142.393, 34.331)" fill="#3f3d56"/>
    <ellipse id="Ellipse_35" data-name="Ellipse 35" cx="0.305" cy="0.763" rx="0.305" ry="0.763" transform="translate(177.955 40.388) rotate(-35.559)" fill="#3f3d56"/>
    <ellipse id="Ellipse_36" data-name="Ellipse 36" cx="0.305" cy="0.763" rx="0.305" ry="0.763" transform="translate(177.039 39.167) rotate(-35.559)" fill="#3f3d56"/>
  </g>
</svg>
