<svg xmlns="http://www.w3.org/2000/svg" width="76.04" height="74.362" viewBox="0 0 76.04 74.362">
  <path id="Icon_material-notifications-active" data-name="Icon material-notifications-active" d="M24.21,9.775,18.756,4.322A39.755,39.755,0,0,0,3.045,34.258h7.627A32.207,32.207,0,0,1,24.21,9.775ZM71.458,34.258h7.627A40,40,0,0,0,63.374,4.322L57.959,9.775a32.4,32.4,0,0,1,13.5,24.482Zm-7.512,1.907c0-11.707-6.254-21.508-17.161-24.1V9.47a5.72,5.72,0,0,0-11.44,0v2.593C24.4,14.656,18.184,24.419,18.184,36.164V55.232l-7.627,7.627v3.813H71.573V62.859l-7.627-7.627ZM41.065,78.112a6.68,6.68,0,0,0,1.525-.153,7.738,7.738,0,0,0,5.491-4.5,7.656,7.656,0,0,0,.572-2.974H33.4A7.682,7.682,0,0,0,41.065,78.112Z" transform="translate(-3.045 -3.75)" fill="rgba(0,0,0,0.03)"/>
</svg>
