<svg xmlns="http://www.w3.org/2000/svg" width="136.288" height="148.776" viewBox="0 0 136.288 148.776">
  <g id="undraw_confirmed_re_sef7" transform="translate(0 0)">
    <path id="Path_158" data-name="Path 158" d="M531.037,383.127l-11.645,13.706s-44.031-42.1-51.135-57.977,6.268-55.163,6.268-55.163l29.671,16.3Z" transform="translate(-434.115 -248.058)" fill="#9f616a"/>
    <path id="Path_159" data-name="Path 159" d="M356.752,243.4l-8.776.836s-4.6,10.03,9.612,10.865Z" transform="translate(-347.267 -218.625)" fill="#9f616a"/>
    <path id="Path_160" data-name="Path 160" d="M356.752,300.743l-8.776.836s-4.6,10.03,9.612,10.865Z" transform="translate(-347.267 -260.51)" fill="#9f616a"/>
    <path id="Path_161" data-name="Path 161" d="M356.752,362.739l-8.776.836s-4.6,10.03,9.612,10.865Z" transform="translate(-347.267 -305.79)" fill="#9f616a"/>
    <path id="Path_162" data-name="Path 162" d="M366.052,424.735l-8.776.836s-4.6,10.029,9.612,10.865Z" transform="translate(-354.059 -351.07)" fill="#9f616a"/>
    <path id="Path_163" data-name="Path 163" d="M366.6,180.327h.666V162.086a10.558,10.558,0,0,1,10.558-10.558h38.648a10.558,10.558,0,0,1,10.558,10.558V262.162a10.558,10.558,0,0,1-10.558,10.558H377.824a10.558,10.558,0,0,1-10.558-10.558v-68.85H366.6Z" transform="translate(-361.387 -151.527)" fill="#3f3d56"/>
    <path id="Path_164" data-name="Path 164" d="M385.289,161.715h5.045a3.746,3.746,0,0,0,3.468,5.161h22.141a3.746,3.746,0,0,0,3.468-5.161h4.712a7.884,7.884,0,0,1,7.884,7.885v99.929a7.885,7.885,0,0,1-7.884,7.885H385.289a7.885,7.885,0,0,1-7.885-7.885h0V169.6A7.885,7.885,0,0,1,385.289,161.715Z" transform="translate(-369.279 -158.968)" fill="#fff"/>
    <rect id="Rectangle_104" data-name="Rectangle 104" width="16.64" height="4.015" transform="translate(27.108 30.742)" fill="#29abe2"/>
    <rect id="Rectangle_105" data-name="Rectangle 105" width="18.225" height="4.015" transform="translate(26.315 47.997)" fill="#e5e5e5"/>
    <rect id="Rectangle_106" data-name="Rectangle 106" width="40.676" height="4.015" transform="translate(15.09 56.622)" fill="#e5e5e5"/>
    <rect id="Rectangle_107" data-name="Rectangle 107" width="40.676" height="4.015" transform="translate(15.09 65.248)" fill="#e5e5e5"/>
    <path id="Path_165" data-name="Path 165" d="M644.445,351.9,597.67,298.531,596,264.264l-17.552-29.253-5.015-12.537s-11.7,1.254-2.09,25.074l3.97,12.746h0a58.421,58.421,0,0,0-5.433,24.6V314.1c0,6.877,19.484,32.07,23.3,37.792h51.266Z" transform="translate(-508.157 -203.344)" fill="#9f616a"/>
    <path id="Path_166" data-name="Path 166" d="M233.726,91.064l3.489-1.715-.119-.242-3.224,1.585-4.867-12.76-.252.1Z" transform="translate(-167.075 -56.919)" opacity="0.2"/>
    <rect id="Rectangle_108" data-name="Rectangle 108" width="0.27" height="5.509" transform="translate(0.663 25.733) rotate(-69.778)" opacity="0.2"/>
    <rect id="Rectangle_109" data-name="Rectangle 109" width="0.27" height="5.509" transform="translate(0.663 41.371) rotate(-69.778)" opacity="0.2"/>
    <rect id="Rectangle_110" data-name="Rectangle 110" width="0.27" height="5.509" transform="translate(0.663 58.088) rotate(-69.778)" opacity="0.2"/>
    <rect id="Rectangle_111" data-name="Rectangle 111" width="0.27" height="2.791" transform="translate(3.348 74.8) rotate(-64.361)" opacity="0.2"/>
    <circle id="Ellipse_47" data-name="Ellipse 47" cx="11.656" cy="11.656" r="11.656" transform="translate(23.792 80.604)" fill="#29abe2"/>
    <path id="Path_167" data-name="Path 167" d="M117.9,333.795l-3.488-4.486,2.029-1.578,1.652,2.124,5.58-5.891,1.866,1.768Z" transform="translate(-83.564 -236.614)" fill="#fff"/>
  </g>
</svg>
