<svg width="14" height="14" viewBox="0 0 14 14" fill="none" xmlns="http://www.w3.org/2000/svg">
<path fill-rule="evenodd" clip-rule="evenodd" d="M11 10.9786C12.6875 10.785 14 9.30142 14 7.49999C14 5.567 12.4888 4 10.6246 4C10.5527 4 10.4813 4.00234 10.4105 4.00693C9.78304 1.69488 7.73448 0 5.30414 0C2.37475 0 0 2.46243 0 5.5C0 8.07095 1.70119 10.2299 4 10.8325V9.78858C2.2763 9.21457 1 7.53287 1 5.5C1 2.98023 2.9609 1 5.30414 1C7.29193 1 9.00457 2.42502 9.47843 4.39557L9.47994 4.39496C9.54686 4.66837 9.58953 4.95183 9.60542 5.24274C9.91696 5.08659 10.2636 5 10.6246 5C11.9027 5 13 6.0848 13 7.49999C13 8.77432 12.1102 9.78076 11 9.96848V10.9786ZM5.75103 13.0011C5.87211 13.0011 6.00111 12.896 6.00106 12.728C6.00103 12.636 5.96945 12.4631 5.87177 12.2084C5.83282 12.1068 5.78731 12.0023 5.73719 11.8969C5.58764 12.2218 5.50077 12.5138 5.50084 12.728C5.50089 12.896 5.62996 13.0011 5.75103 13.0011ZM5.14616 10.8786C5.45143 10.3651 5.75011 10 5.75011 10C5.75011 10 6.03493 10.3777 6.33275 10.8889C6.65901 11.4488 7.00089 12.1689 7.00106 12.728C7.00127 13.4311 6.44176 14.0011 5.75134 14.0011C5.06092 14.0011 4.50105 13.4311 4.50084 12.728C4.50065 12.1145 4.82701 11.4155 5.14616 10.8786ZM9.00106 11.228C9.00111 11.396 8.87211 11.5011 8.75103 11.5011C8.62996 11.5011 8.50089 11.396 8.50084 11.228C8.50077 11.0138 8.58764 10.7218 8.73719 10.3969C8.78731 10.5023 8.83282 10.6068 8.87177 10.7084C8.96945 10.9631 9.00103 11.136 9.00106 11.228ZM8.75011 8.5C8.75011 8.5 8.45143 8.86512 8.14616 9.37862C7.82701 9.91547 7.50065 10.6145 7.50084 11.228C7.50105 11.9311 8.06092 12.5011 8.75134 12.5011C9.44176 12.5011 10.0013 11.9311 10.0011 11.228C10.0009 10.6689 9.65901 9.94885 9.33275 9.38889C9.03493 8.87772 8.75011 8.5 8.75011 8.5Z" fill="url(#paint0_linear_330_1432)"/>
<defs>
<linearGradient id="paint0_linear_330_1432" x1="7" y1="0" x2="7" y2="14.0011" gradientUnits="userSpaceOnUse">
<stop stop-color="#AFE3F9"/>
<stop offset="1" stop-color="#2BACE3"/>
</linearGradient>
</defs>
</svg>
