<svg xmlns="http://www.w3.org/2000/svg" width="807.642" height="701.912" viewBox="0 0 807.642 701.912">
  <g id="rain-banner" transform="translate(0 0)">
    <path id="Path_32" data-name="Path 32" d="M676.8,799.957h-14.76a7.008,7.008,0,0,1-7-7V669.943a7.008,7.008,0,0,1,7-7H676.8a7.008,7.008,0,0,1,7,7V792.957a7.008,7.008,0,0,1-7,7Z" transform="translate(-196.179 -99.044)" fill="#fff"/>
    <path id="Path_33" data-name="Path 33" d="M645.606,799.957h-14.76a7.008,7.008,0,0,1-7-7V669.943a7.008,7.008,0,0,1,7-7h14.76a7.008,7.008,0,0,1,7,7V792.957a7.008,7.008,0,0,1-7,7Z" transform="translate(-196.179 -99.044)" fill="#fff"/>
    <path id="Path_34" data-name="Path 34" d="M256.881,401.887c-2.988,12.512-6.762,15.49-10.337,14.637s-5.6-5.216-2.608-17.728,13.429-27.582,13.429-27.582S259.869,389.375,256.881,401.887Z" transform="translate(-196.179 -99.044)" fill="#fff"/>
    <path id="Path_35" data-name="Path 35" d="M248.881,619.887c-2.988,12.512-6.762,15.49-10.337,14.636s-5.6-5.216-2.608-17.728,13.429-27.582,13.429-27.582S251.869,607.375,248.881,619.887Z" transform="translate(-196.179 -99.044)" fill="#fff"/>
    <path id="Path_36" data-name="Path 36" d="M686.706,230.267s6.848-14.489-4.218-18.256-10.271,11.408-10.271,11.408l13.462,7.989" transform="translate(-196.179 -99.044)" fill="#3f3d56"/>
    <path id="Path_37" data-name="Path 37" d="M454.169,272.9l-22.937,18.594s344.095,115.641,383.34,138.582l-3.874-32.4-32.51-39.6L715.214,317.9,613.56,286.275l-110.781-39.84Z" transform="translate(-196.179 -99.044)" fill="#fff"/>
    <path id="Path_38" data-name="Path 38" d="M629.413,319.138,551.565,513.43s-12.442,32.173,15.054,38.339c16.532,3.707,25.271-6.321,29.612-14.909,4.636-9.172-7.949-17.238-14.24-9.11q-.153.2-.307.4c-.154.206-16.648,13-16.638-4.512A30.68,30.68,0,0,1,567.51,511.9l76.506-183.746Z" transform="translate(-196.179 -99.044)" fill="#3f3d56"/>
    <path id="Path_39" data-name="Path 39" d="M537.457,285.919" transform="translate(-196.179 -99.044)" opacity="0.1"/>
    <path id="Path_40" data-name="Path 40" d="M741.221,357.836" transform="translate(-196.179 -99.044)" opacity="0.1"/>
    <path id="Path_41" data-name="Path 41" d="M678.8,222.02s-21.906-3.2-34.227-10.161c0,0-135.2-28.777-213.261,78.575,0,0,367.49,85.068,383.34,138.582,0,0,23.065-99.032-99.116-190.445C715.54,238.571,685.649,228.183,678.8,222.02Z" transform="translate(-196.179 -99.044)" fill="#3f3d56"/>
    <path id="Path_42" data-name="Path 42" d="M261.961,530.761c-1.823,7.635-4.126,9.452-6.308,8.931s-3.415-3.183-1.592-10.818,8.194-16.831,8.194-16.831S263.784,523.126,261.961,530.761Z" transform="translate(-196.179 -99.044)" fill="#fff"/>
    <path id="Path_43" data-name="Path 43" d="M204.961,567.761c-1.823,7.635-4.126,9.452-6.308,8.931s-3.415-3.183-1.592-10.818,8.194-16.831,8.194-16.831S206.784,560.126,204.961,567.761Z" transform="translate(-196.179 -99.044)" fill="#fff"/>
    <path id="Path_44" data-name="Path 44" d="M623.881,206.887c-2.988,12.512-6.762,15.49-10.337,14.637s-5.6-5.216-2.609-17.728,13.429-27.582,13.429-27.582S626.869,194.375,623.881,206.887Z" transform="translate(-196.179 -99.044)" fill="#fff"/>
    <path id="Path_45" data-name="Path 45" d="M636.961,117.761c-1.823,7.635-4.126,9.452-6.308,8.931s-3.415-3.183-1.592-10.818,8.194-16.83,8.194-16.83S638.784,110.126,636.961,117.761Z" transform="translate(-196.179 -99.044)" fill="#fff"/>
    <path id="Path_46" data-name="Path 46" d="M579.961,154.761c-1.823,7.635-4.126,9.452-6.308,8.931s-3.415-3.183-1.592-10.818,8.194-16.831,8.194-16.831S581.784,147.126,579.961,154.761Z" transform="translate(-196.179 -99.044)" fill="#fff"/>
    <path id="Path_47" data-name="Path 47" d="M465.881,598.887c-2.988,12.512-6.762,15.49-10.337,14.636s-5.6-5.216-2.608-17.728,13.429-27.582,13.429-27.582S468.869,586.375,465.881,598.887Z" transform="translate(-196.179 -99.044)" fill="#fff"/>
    <path id="Path_48" data-name="Path 48" d="M478.961,509.761c-1.823,7.635-4.126,9.452-6.308,8.931s-3.415-3.183-1.592-10.818,8.194-16.831,8.194-16.831S480.784,502.126,478.961,509.761Z" transform="translate(-196.179 -99.044)" fill="#fff"/>
    <path id="Path_49" data-name="Path 49" d="M421.961,546.761c-1.823,7.635-4.126,9.452-6.308,8.931s-3.415-3.183-1.592-10.818,8.194-16.831,8.194-16.831S423.784,539.126,421.961,546.761Z" transform="translate(-196.179 -99.044)" fill="#fff"/>
    <path id="Path_50" data-name="Path 50" d="M406.881,225.887c-2.988,12.512-6.762,15.49-10.337,14.637s-5.6-5.216-2.608-17.728,13.429-27.582,13.429-27.582S409.869,213.375,406.881,225.887Z" transform="translate(-196.179 -99.044)" fill="#fff"/>
    <path id="Path_51" data-name="Path 51" d="M398.881,443.887c-2.988,12.512-6.762,15.49-10.337,14.637s-5.6-5.216-2.608-17.728,13.429-27.582,13.429-27.582S401.869,431.375,398.881,443.887Z" transform="translate(-196.179 -99.044)" fill="#fff"/>
    <path id="Path_52" data-name="Path 52" d="M411.961,354.761c-1.823,7.635-4.126,9.452-6.308,8.931s-3.415-3.183-1.592-10.818,8.194-16.831,8.194-16.831S413.784,347.126,411.961,354.761Z" transform="translate(-196.179 -99.044)" fill="#fff"/>
    <path id="Path_53" data-name="Path 53" d="M354.961,391.761c-1.823,7.635-4.126,9.452-6.308,8.931s-3.415-3.183-1.592-10.818,8.194-16.831,8.194-16.831S356.784,384.126,354.961,391.761Z" transform="translate(-196.179 -99.044)" fill="#fff"/>
    <path id="Path_54" data-name="Path 54" d="M559.881,234.887c-2.988,12.512-6.762,15.49-10.337,14.637s-5.6-5.216-2.609-17.728,13.429-27.582,13.429-27.582S562.869,222.375,559.881,234.887Z" transform="translate(-196.179 -99.044)" fill="#fff"/>
    <path id="Path_55" data-name="Path 55" d="M551.881,452.887c-2.988,12.512-6.762,15.49-10.337,14.637s-5.6-5.216-2.609-17.728,13.429-27.582,13.429-27.582S554.869,440.375,551.881,452.887Z" transform="translate(-196.179 -99.044)" fill="#fff"/>
    <path id="Path_56" data-name="Path 56" d="M564.961,363.761c-1.823,7.635-4.126,9.452-6.308,8.931s-3.415-3.183-1.592-10.818,8.194-16.831,8.194-16.831S566.784,356.126,564.961,363.761Z" transform="translate(-196.179 -99.044)" fill="#fff"/>
    <path id="Path_57" data-name="Path 57" d="M701.881,276.887c-2.988,12.512-6.762,15.49-10.337,14.637s-5.6-5.216-2.609-17.728,13.429-27.582,13.429-27.582S704.869,264.375,701.881,276.887Z" transform="translate(-196.179 -99.044)" fill="#fff"/>
    <path id="Path_58" data-name="Path 58" d="M657.961,224.761c-1.823,7.635-4.126,9.452-6.308,8.931s-3.415-3.183-1.592-10.818,8.194-16.831,8.194-16.831S659.784,217.126,657.961,224.761Z" transform="translate(-196.179 -99.044)" fill="#ccc"/>
    <path id="Path_59" data-name="Path 59" d="M772.881,217.887c-2.988,12.512-6.762,15.49-10.337,14.637s-5.6-5.216-2.609-17.728,13.429-27.582,13.429-27.582S775.869,205.375,772.881,217.887Z" transform="translate(-196.179 -99.044)" fill="#fff"/>
    <path id="Path_60" data-name="Path 60" d="M764.881,435.887c-2.988,12.512-6.762,15.49-10.337,14.637s-5.6-5.216-2.609-17.728,13.429-27.582,13.429-27.582S767.869,423.375,764.881,435.887Z" transform="translate(-196.179 -99.044)" fill="#fff"/>
    <path id="Path_61" data-name="Path 61" d="M777.961,346.761c-1.823,7.635-4.126,9.452-6.308,8.931s-3.415-3.183-1.592-10.818,8.194-16.831,8.194-16.831S779.784,339.126,777.961,346.761Z" transform="translate(-196.179 -99.044)" fill="#fff"/>
    <path id="Path_62" data-name="Path 62" d="M914.881,259.887c-2.988,12.512-6.762,15.49-10.337,14.637s-5.6-5.216-2.609-17.728,13.429-27.582,13.429-27.582S917.869,247.375,914.881,259.887Z" transform="translate(-196.179 -99.044)" fill="#fff"/>
    <path id="Path_63" data-name="Path 63" d="M870.961,207.761c-1.823,7.635-4.126,9.452-6.308,8.931s-3.415-3.183-1.592-10.818,8.194-16.831,8.194-16.831S872.784,200.126,870.961,207.761Z" transform="translate(-196.179 -99.044)" fill="#fff"/>
    <path id="Path_64" data-name="Path 64" d="M855.881,360.887c-2.988,12.512-6.762,15.49-10.337,14.637s-5.6-5.216-2.609-17.728,13.429-27.582,13.429-27.582S858.869,348.375,855.881,360.887Z" transform="translate(-196.179 -99.044)" fill="#fff"/>
    <path id="Path_65" data-name="Path 65" d="M847.881,578.887c-2.988,12.512-6.762,15.49-10.337,14.636s-5.6-5.216-2.609-17.728,13.429-27.582,13.429-27.582S850.869,566.375,847.881,578.887Z" transform="translate(-196.179 -99.044)" fill="#fff"/>
    <path id="Path_66" data-name="Path 66" d="M860.961,489.761c-1.823,7.635-4.126,9.452-6.308,8.931s-3.415-3.183-1.592-10.818,8.194-16.831,8.194-16.831S862.784,482.126,860.961,489.761Z" transform="translate(-196.179 -99.044)" fill="#fff"/>
    <path id="Path_67" data-name="Path 67" d="M997.881,402.887c-2.988,12.512-6.762,15.49-10.337,14.637s-5.6-5.216-2.609-17.728,13.429-27.582,13.429-27.582S1000.87,390.375,997.881,402.887Z" transform="translate(-196.179 -99.044)" fill="#fff"/>
    <path id="Path_68" data-name="Path 68" d="M953.961,350.761c-1.823,7.635-4.126,9.452-6.308,8.931s-3.415-3.183-1.592-10.818,8.194-16.831,8.194-16.831S955.784,343.126,953.961,350.761Z" transform="translate(-196.179 -99.044)" fill="#fff"/>
    <circle id="Ellipse_11" data-name="Ellipse 11" cx="51" cy="51" r="51" transform="translate(416.901 327.152)" fill="#fff"/>
    <path id="Path_69" data-name="Path 69" d="M623.042,498.605c-3.306-.092-7.421-.208-10.59-2.522a8.133,8.133,0,0,1-3.2-6.073,5.471,5.471,0,0,1,1.861-4.492c1.655-1.4,4.073-1.728,6.678-.961l-2.7-19.726,1.981-.271,3.173,23.19-1.655-.759c-1.918-.879-4.551-1.327-6.188.055a3.514,3.514,0,0,0-1.153,2.895,6.147,6.147,0,0,0,2.381,4.528c2.466,1.8,5.746,2.034,9.466,2.139Z" transform="translate(-196.179 -99.044)" fill="#2f2e41"/>
    <rect id="Rectangle_26" data-name="Rectangle 26" width="10.771" height="2" transform="translate(432.342 367.487)" fill="#2f2e41"/>
    <path id="Path_70" data-name="Path 70" d="M667.648,426.045a42.161,42.161,0,0,1,16.487-30.886,41.064,41.064,0,0,1,35.015-6.678,40.441,40.441,0,0,1,26.882,22.939,42.108,42.108,0,0,1,3.61,17.692,47.835,47.835,0,0,1-4.831,19.067c-3.007,6.552-6.8,12.7-10.094,19.1a152.466,152.466,0,0,0-8.377,19.557,154.176,154.176,0,0,0-8.322,42.374c-1.224,22.771.955,56.014,26.66,64.753,6.537,2.222,13.589,2.636,20.442,2.618a83.951,83.951,0,0,0,21.42-2.509c12.135-3.24,23.655-10.85,28.826-22.672a31.555,31.555,0,0,0,2.373-8.569c.108-.81-.767-1.492-1.5-1.5a1.537,1.537,0,0,0-1.5,1.5c-1.674,12.6-12.172,22.259-23.569,26.6a67.695,67.695,0,0,1-20.736,4.011c-7.046.356-14.362.3-21.262-1.321a30.791,30.791,0,0,1-16.014-9.1A41.4,41.4,0,0,1,724.8,567.9c-4.057-12.385-4.483-26-3.77-38.911a151.26,151.26,0,0,1,8.5-42.193,147.948,147.948,0,0,1,8.8-19.958c3.342-6.286,7.054-12.395,9.87-18.947a49.444,49.444,0,0,0,4.445-19.153,45.244,45.244,0,0,0-3.576-17.793,43.371,43.371,0,0,0-25.81-24.361,44.641,44.641,0,0,0-36.016,2.95A45.385,45.385,0,0,0,665.99,417.27a43.429,43.429,0,0,0-1.342,8.775c-.1,1.93,2.9,1.924,3,0Z" transform="translate(-196.179 -99.044)" fill="#2f2e41"/>
    <path id="Path_71" data-name="Path 71" d="M677.621,427.1a23.488,23.488,0,0,1,7.857-14.333,23.169,23.169,0,0,1,16.2-5.376c1.93.1,1.925-2.9,0-3A26.1,26.1,0,0,0,674.728,426.3c-.288,1.889,2.6,2.7,2.893.8Z" transform="translate(-196.179 -99.044)" fill="#2f2e41"/>
    <path id="Path_72" data-name="Path 72" d="M664.08,418.2h15a5,5,0,0,1,5,5h0a5,5,0,0,1-5,5h-15a5,5,0,0,1-5-5h0a5,5,0,0,1,5-5Z" transform="translate(980.433 936.571) rotate(-161.728)" fill="#2f2e41"/>
    <path id="Path_73" data-name="Path 73" d="M700.22,714.388H606.43a6.507,6.507,0,0,1-6.5-6.5V693.129a6.507,6.507,0,0,1,6.5-6.5h93.79a6.507,6.507,0,0,1,6.5,6.5v14.759a6.507,6.507,0,0,1-6.5,6.5Z" transform="translate(-196.179 -99.044)" fill="#ccc"/>
    <path id="Path_74" data-name="Path 74" d="M720.2,692.049h-.14l-131.152-2.761a6.5,6.5,0,0,1-6.2-7.946l31.932-139.8a6.467,6.467,0,0,1,6.337-5.053h21.376a65.892,65.892,0,0,1,64.221,52.179l19.984,95.551a6.5,6.5,0,0,1-6.359,7.831Z" transform="translate(-196.179 -99.044)" fill="#2f2e41"/>
    <path id="Path_75" data-name="Path 75" d="M635.941,612.957a6.48,6.48,0,0,1-4.567-1.872l-87.526-86.439a6.5,6.5,0,0,1-.057-9.192l10.371-10.5a6.5,6.5,0,0,1,9.192-.057l87.526,86.439a6.508,6.508,0,0,1,.057,9.193l-10.371,10.5a6.481,6.481,0,0,1-4.625,1.929Z" transform="translate(-196.179 -99.044)" fill="#fff"/>
    <path id="Path_76" data-name="Path 76" d="M631.894,615.575l-38.487-37.554a6.525,6.525,0,0,1-.324-9l16.2-18.258a6.525,6.525,0,0,1,10.076.382l41.181,41.97a6.537,6.537,0,0,1-.484,9.214l-18.937,13.736a6.537,6.537,0,0,1-9.224-.489Z" transform="translate(-196.179 -99.044)" fill="#2f2e41"/>
    <path id="Path_77" data-name="Path 77" d="M1002.63,800.956H264.336a1.191,1.191,0,1,1,0-2.381H1002.63a1.191,1.191,0,1,1,0,2.381Z" transform="translate(-196.179 -99.044)" fill="#3f3d56"/>
  </g>
</svg>
