<svg width="406" height="372" viewBox="0 0 406 372" fill="none" xmlns="http://www.w3.org/2000/svg">
<path d="M377.193 304.657C377.432 301.653 377.044 297.766 373.724 296.61C368.108 294.657 364.778 290.056 364.957 284.856C365.146 279.656 359.231 274.593 354.798 279.467C350.364 284.341 350.951 275.717 345.036 273.627C339.122 271.537 334.112 276.61 335.732 281.264C337.353 285.907 331.518 288.806 324.53 284.856C317.542 280.907 309.858 288.091 311.329 293.722C312.8 299.352 311.597 299.972 307.174 298.092C303.605 296.579 297.751 299.751 297.104 304.657H377.183H377.193Z" fill="#E0E0E0"/>
<path d="M78.4684 304.657C78.7467 302.283 78.6175 298.816 75.8342 297.84C71.4704 296.316 68.8859 292.745 69.035 288.711C69.1841 284.678 64.5917 280.749 61.1425 284.531C57.7031 288.312 58.1604 281.621 53.568 279.993C48.9756 278.364 45.089 282.314 46.3414 285.917C47.5939 289.52 43.0711 291.779 37.6437 288.711C32.2163 285.644 26.2522 291.222 27.3953 295.592C28.5384 299.961 27.604 300.445 24.1747 298.984C21.2622 297.755 16.4312 300.529 16.3318 304.657H78.4783H78.4684Z" fill="#E0E0E0"/>
<path d="M20.0793 304.657H122.186C123.617 299.594 119.909 293.522 115.864 292.671C110.894 291.621 105.894 282.377 105.665 276.495C105.426 270.612 96.4802 252.513 82.5638 263.69C68.6475 274.867 72.8721 265.339 62.8125 262.198C52.743 259.058 46.3912 268.091 50.8146 274.867C50.8146 274.867 40.7054 272.188 36.5404 282.167C32.3754 292.146 36.5404 298.344 36.5404 298.344C36.5404 298.344 23.7572 297.945 20.0992 304.657H20.0793Z" fill="#E0E0E0"/>
<path d="M251.578 21.4918C251.578 18.6872 253.725 16.4183 256.379 16.4183C256.856 16.4183 257.323 16.4918 257.761 16.6283C257.691 16.1241 257.652 15.5989 257.652 15.0737C257.652 9.13876 262.204 4.32778 267.82 4.32778C268.457 4.32778 269.083 4.39081 269.689 4.51686C271.25 1.81725 274.063 0 277.274 0C282.144 0 286.091 4.1387 286.16 9.26481C286.21 9.26481 286.26 9.26481 286.309 9.26481C290.832 9.26481 294.5 13.1409 294.5 17.9204C294.5 22.6998 290.832 26.5759 286.309 26.5759H256.24C253.656 26.4919 251.578 24.2545 251.578 21.5023V21.4918Z" fill="#F5F5F5"/>
<path d="M174.283 71.1773C174.283 68.3726 176.43 66.1037 179.084 66.1037C179.561 66.1037 180.028 66.1772 180.465 66.3138C180.396 65.8096 180.356 65.2843 180.356 64.7591C180.356 58.8242 184.909 54.0132 190.525 54.0132C191.161 54.0132 191.787 54.0762 192.394 54.2023C193.954 51.5027 196.767 49.6854 199.978 49.6854C204.849 49.6854 208.795 53.8241 208.865 58.9502C208.914 58.9502 208.964 58.9502 209.014 58.9502C213.537 58.9502 217.205 62.8263 217.205 67.6058C217.205 72.3853 213.537 76.2614 209.014 76.2614H178.945C176.36 76.1773 174.283 73.9399 174.283 71.1878V71.1773Z" fill="#F5F5F5"/>
<path d="M109.552 18.3825C109.552 16.6388 110.884 15.2312 112.534 15.2312C112.832 15.2312 113.12 15.2838 113.389 15.3678C113.349 15.0527 113.319 14.727 113.319 14.4014C113.319 10.7144 116.152 7.72066 119.641 7.72066C120.039 7.72066 120.426 7.76268 120.804 7.83621C121.778 6.15552 123.518 5.03156 125.526 5.03156C128.557 5.03156 131.013 7.60511 131.052 10.7879C131.082 10.7879 131.112 10.7879 131.142 10.7879C133.955 10.7879 136.231 13.1934 136.231 16.1661C136.231 19.1389 133.955 21.5443 131.142 21.5443H112.444C110.834 21.4918 109.542 20.1053 109.542 18.3931L109.552 18.3825Z" fill="#F5F5F5"/>
<path d="M21.1429 39.9269C21.1429 38.1832 22.4749 36.7756 24.125 36.7756C24.4232 36.7756 24.7115 36.8281 24.9799 36.9122C24.9401 36.597 24.9103 36.2714 24.9103 35.9458C24.9103 32.2588 27.7433 29.265 31.2323 29.265C31.6299 29.265 32.0176 29.3071 32.3953 29.3806C33.3695 27.6999 35.109 26.5759 37.1169 26.5759C40.1487 26.5759 42.604 29.1495 42.6437 32.3323C42.6735 32.3323 42.7034 32.3323 42.7332 32.3323C45.5463 32.3323 47.8226 34.7378 47.8226 37.7105C47.8226 40.6832 45.5463 43.0887 42.7332 43.0887H24.0455C22.4352 43.0362 21.1429 41.6496 21.1429 39.9374V39.9269Z" fill="#F5F5F5"/>
<path d="M349.351 54.7905C349.351 53.0468 350.683 51.6392 352.333 51.6392C352.631 51.6392 352.919 51.6918 353.187 51.7758C353.148 51.4607 353.118 51.135 353.118 50.8094C353.118 47.1224 355.951 44.1286 359.44 44.1286C359.837 44.1286 360.225 44.1707 360.603 44.2442C361.577 42.5635 363.317 41.4395 365.325 41.4395C368.356 41.4395 370.812 44.0131 370.851 47.1959C370.881 47.1959 370.911 47.1959 370.941 47.1959C373.754 47.1959 376.03 49.6014 376.03 52.5741C376.03 55.5468 373.754 57.9523 370.941 57.9523H352.243C350.633 57.8998 349.341 56.5132 349.341 54.801L349.351 54.7905Z" fill="#F5F5F5"/>
<path d="M30.0991 139.539C29.95 138.962 29.8605 138.3 29.8208 137.565C29.5921 133.478 25.8944 134.119 22.7532 133.562C20.298 133.132 26.7989 126.567 21.8487 124.455C20.9242 124.067 19.9302 123.615 19.463 122.69C18.8368 121.472 19.463 119.865 20.5465 119.066C21.6201 118.268 22.9918 118.1 24.3039 118.069C25.1091 117.029 24.453 115.474 23.6777 114.413C22.8924 113.352 21.9381 112.144 22.2364 110.842C22.6837 108.867 25.298 108.793 27.1767 109.182C27.8725 107.984 27.8625 106.503 28.2005 105.148C28.5385 103.793 29.5623 102.375 30.8744 102.543C32.117 102.701 32.8724 104.182 34.0851 104.486C35.4967 104.833 36.7193 103.52 37.8227 102.533C38.9261 101.545 40.8644 100.926 41.6298 102.228C42.0871 103.005 41.8087 104.098 42.2859 104.865C43.1109 106.199 45.0592 105.369 46.2719 104.423C47.4846 103.478 49.413 102.627 50.2679 103.93C50.5263 104.329 50.586 104.833 50.7351 105.295C51.3116 107.039 53.0909 107.911 54.4925 109.035C55.8941 110.159 56.9875 112.386 55.8046 113.751C55.2281 114.424 54.2042 114.697 53.916 115.558C53.5581 116.629 54.5919 117.596 55.4169 118.331C56.7887 119.56 57.0372 123.237 55.2281 124.245C54.4726 124.665 53.3593 124.802 53.1704 125.684C53.0015 126.472 53.7669 127.092 54.2738 127.701C55.6655 129.382 55.069 132.396 53.1704 133.363C52.7331 133.583 52.2062 133.762 52.0373 134.245C51.918 134.592 52.0472 134.96 52.1367 135.317C52.3156 135.978 52.3752 136.682 52.3156 137.365C52.2957 137.596 52.246 137.859 52.077 138.006C51.9279 138.142 51.7092 138.163 51.5005 138.174C48.8862 138.3 47.6238 137.323 46.0333 139.718C45.8842 139.949 45.7153 140.191 45.4866 140.327C45.2679 140.464 45.0194 140.495 44.761 140.516C42.9618 140.674 41.7888 139.487 40.1487 139.266C37.8724 138.962 37.3853 140.201 35.3873 141.199C32.2263 142.764 30.7055 141.798 30.109 139.529L30.0991 139.539Z" fill="#EBEBEB"/>
<path d="M60.1882 136.104C60.0391 135.527 59.9496 134.865 59.9099 134.13C59.6813 130.043 55.9835 130.684 52.8424 130.127C50.3871 129.697 56.888 123.132 51.9378 121.02C51.0134 120.632 50.0193 120.18 49.5521 119.256C48.9259 118.037 49.5521 116.43 50.6356 115.632C51.7092 114.833 53.0809 114.665 54.393 114.634C55.1982 113.594 54.5421 112.039 53.7668 110.978C52.9915 109.917 52.0273 108.709 52.3255 107.407C52.7728 105.432 55.3871 105.358 57.2658 105.747C57.9616 104.56 57.9517 103.068 58.2896 101.713C58.6276 100.358 59.6514 98.9402 60.9636 99.1082C62.2061 99.2658 62.9615 100.747 64.1743 101.052C65.5858 101.398 66.8084 100.085 67.9217 99.0977C69.0251 98.1103 70.9635 97.4906 71.7289 98.7931C72.1861 99.5704 71.9078 100.663 72.3849 101.43C73.21 102.764 75.1582 101.934 76.371 100.989C77.5837 100.043 79.5121 99.1923 80.3669 100.495C80.6254 100.894 80.685 101.398 80.8341 101.86C81.4107 103.604 83.19 104.476 84.5916 105.6C85.9832 106.724 87.0866 108.951 85.9037 110.316C85.3271 110.989 84.3033 111.262 84.015 112.123C83.6572 113.195 84.691 114.161 85.516 114.896C86.8878 116.125 87.1363 119.802 85.3271 120.81C84.5717 121.23 83.4584 121.367 83.2695 122.249C83.1005 123.037 83.8659 123.657 84.3729 124.266C85.7645 125.947 85.1681 128.962 83.2695 129.928C82.8321 130.149 82.3053 130.327 82.1363 130.81C82.017 131.157 82.1463 131.525 82.2357 131.882C82.4146 132.543 82.4743 133.247 82.4146 133.93C82.3948 134.161 82.3451 134.424 82.1761 134.571C82.027 134.707 81.8083 134.728 81.5995 134.739C78.9852 134.865 77.7228 133.888 76.1324 136.283C75.9833 136.514 75.8143 136.756 75.5857 136.892C75.367 137.029 75.1185 137.06 74.86 137.081C73.0608 137.239 71.8879 136.052 70.2478 135.831C67.9714 135.527 67.4844 136.766 65.4864 137.764C62.3254 139.329 60.8045 138.363 60.2081 136.094L60.1882 136.104Z" fill="#EBEBEB"/>
<path d="M63.0908 115.852C62.9417 115.274 62.8522 114.613 62.8125 113.877C62.5838 109.791 58.8861 110.432 55.7449 109.875C53.2897 109.444 59.7906 102.879 54.8404 100.768C53.9159 100.379 52.9219 99.9276 52.4547 99.0032C51.8285 97.7847 52.4547 96.1775 53.5382 95.3792C54.6217 94.5809 55.9835 94.4128 57.2956 94.3813C58.1008 93.3414 57.4447 91.7867 56.6694 90.7258C55.894 89.6649 54.9298 88.4569 55.2281 87.1543C55.6754 85.1795 58.2897 85.106 60.1684 85.4946C60.8642 84.3077 60.8542 82.8161 61.1922 81.461C61.5302 80.1059 62.554 78.6879 63.8661 78.8559C65.1087 79.0135 65.8641 80.4946 67.0768 80.7992C68.4884 81.1459 69.711 79.8328 70.8243 78.8454C71.9277 77.858 73.866 77.2383 74.6314 78.5408C75.0887 79.3181 74.8104 80.4106 75.2875 81.1774C76.1125 82.5114 78.0608 81.6816 79.2735 80.7362C80.4863 79.7908 82.4147 78.94 83.2695 80.2425C83.528 80.6417 83.5876 81.1459 83.7367 81.6081C84.3133 83.3518 86.0926 84.2236 87.4941 85.3476C88.8858 86.4716 89.9891 88.6985 88.8063 90.064C88.2297 90.7363 87.2059 91.0094 86.9176 91.8708C86.5598 92.9422 87.5935 93.9086 88.4186 94.6439C89.7903 95.8729 90.0388 99.5494 88.2297 100.558C87.4743 100.978 86.361 101.115 86.1721 101.997C86.0031 102.785 86.7685 103.405 87.2755 104.014C88.6671 105.694 88.0707 108.709 86.1721 109.676C85.7347 109.896 85.2079 110.075 85.0389 110.558C84.9196 110.905 85.0488 111.272 85.1383 111.629C85.3172 112.291 85.3769 112.995 85.3172 113.678C85.2973 113.909 85.2476 114.171 85.0787 114.319C84.9295 114.455 84.7109 114.476 84.5021 114.487C81.8878 114.613 80.6254 113.636 79.035 116.031C78.8859 116.262 78.7169 116.503 78.4883 116.64C78.2696 116.777 78.0211 116.808 77.7626 116.829C75.9634 116.987 74.7905 115.8 73.1503 115.579C70.874 115.274 70.387 116.514 68.389 117.512C65.228 119.077 63.7071 118.111 63.1107 115.842L63.0908 115.852Z" fill="#EBEBEB"/>
<path d="M82.9117 125.947C82.7626 125.369 82.6732 124.707 82.6334 123.972C82.4048 119.886 78.707 120.527 75.5659 119.97C73.1106 119.539 79.6116 112.974 74.6613 110.863C73.7369 110.474 72.7428 110.022 72.2756 109.098C71.6494 107.879 72.2756 106.272 73.3591 105.474C74.4327 104.676 75.8044 104.507 77.1166 104.476C77.9217 103.436 77.2657 101.881 76.4903 100.82C75.705 99.7595 74.7508 98.5515 75.049 97.249C75.4963 95.2742 78.1106 95.2006 79.9893 95.5893C80.6851 94.4023 80.6752 92.9107 81.0131 91.5556C81.3511 90.2006 82.375 88.7825 83.6871 88.9506C84.9296 89.1081 85.6851 90.5892 86.8978 90.8939C88.3093 91.2405 89.5319 89.9275 90.6452 88.94C91.7486 87.9526 93.687 87.3329 94.4524 88.6354C94.9096 89.4127 94.6313 90.5052 95.1084 91.272C95.9335 92.6061 97.8818 91.7762 99.0945 90.8308C100.307 89.8854 102.236 89.0346 103.09 90.3371C103.349 90.7363 103.409 91.2405 103.558 91.7027C104.134 93.4464 105.923 94.3183 107.315 95.4422C108.707 96.5662 109.81 98.7931 108.637 100.159C108.061 100.831 107.037 101.104 106.748 101.965C106.391 103.037 107.424 104.003 108.249 104.739C109.621 105.968 109.87 109.644 108.061 110.652C107.305 111.073 106.192 111.209 106.003 112.092C105.834 112.879 106.599 113.499 107.106 114.108C108.498 115.789 107.902 118.804 106.003 119.77C105.566 119.991 105.039 120.169 104.87 120.653C104.75 120.999 104.88 121.367 104.969 121.724C105.148 122.386 105.208 123.09 105.148 123.772C105.128 124.003 105.079 124.266 104.91 124.413C104.76 124.55 104.542 124.571 104.333 124.581C101.719 124.707 100.456 123.73 98.8658 126.125C98.7167 126.356 98.5478 126.598 98.3191 126.735C98.1004 126.871 97.8519 126.903 97.5935 126.924C95.7943 127.081 94.6213 125.894 92.9812 125.674C90.7049 125.369 90.2178 126.609 88.2198 127.606C85.0588 129.172 83.538 128.205 82.9415 125.936L82.9117 125.947Z" fill="#EBEBEB"/>
<path d="M102.941 121.283C102.792 120.705 102.703 120.043 102.663 119.308C102.434 115.222 98.7367 115.863 95.5955 115.306C93.1403 114.875 99.6412 108.31 94.691 106.199C93.7665 105.81 92.7725 105.358 92.3053 104.434C91.6791 103.215 92.3053 101.608 93.3888 100.81C94.4623 100.012 95.8341 99.8435 97.1462 99.812C97.9514 98.7721 97.2953 97.2175 96.52 96.1565C95.7347 95.0956 94.7804 93.8876 95.0786 92.5851C95.526 90.6102 98.1402 90.5367 100.019 90.9254C100.715 89.7279 100.705 88.2468 101.043 86.8917C101.381 85.5367 102.405 84.1186 103.717 84.2866C104.959 84.4442 105.715 85.9253 106.927 86.2299C108.339 86.5766 109.562 85.2635 110.675 84.2761C111.788 83.2887 113.717 82.669 114.482 83.9715C114.939 84.7488 114.661 85.8413 115.138 86.6081C115.963 87.9421 117.911 87.1123 119.124 86.1669C120.337 85.2215 122.265 84.3707 123.12 85.6732C123.379 86.0724 123.438 86.5766 123.587 87.0388C124.164 88.7825 125.943 89.6543 127.345 90.7783C128.746 91.9023 129.84 94.1292 128.657 95.4948C128.08 96.167 127.056 96.4401 126.768 97.3015C126.41 98.3729 127.444 99.3393 128.269 100.075C129.641 101.304 129.889 104.98 128.08 105.989C127.325 106.409 126.212 106.545 126.023 107.428C125.854 108.215 126.619 108.835 127.126 109.444C128.518 111.125 127.921 114.14 126.023 115.106C125.585 115.327 125.058 115.505 124.889 115.989C124.77 116.335 124.899 116.703 124.989 117.06C125.168 117.722 125.227 118.426 125.168 119.108C125.148 119.34 125.098 119.602 124.929 119.749C124.78 119.886 124.561 119.907 124.353 119.917C121.738 120.043 120.476 119.066 118.886 121.461C118.736 121.693 118.567 121.934 118.339 122.071C118.12 122.207 117.872 122.239 117.613 122.26C115.814 122.417 114.641 121.23 113.001 121.01C110.725 120.705 110.238 121.945 108.24 122.943C105.079 124.508 103.558 123.541 102.961 121.272L102.941 121.283Z" fill="#EBEBEB"/>
<path d="M103.21 143.93C103.09 143.479 103.021 142.953 102.991 142.376C102.812 139.151 99.8997 139.665 97.4245 139.224C95.4862 138.888 100.615 133.72 96.7088 132.05C95.9832 131.745 95.1979 131.388 94.8301 130.663C94.343 129.697 94.8301 128.436 95.675 127.806C96.52 127.176 97.6035 127.039 98.6372 127.018C99.2734 126.199 98.7565 124.97 98.1402 124.14C97.5239 123.31 96.7685 122.354 97.007 121.325C97.3549 119.77 99.4126 119.718 100.904 120.022C101.45 119.087 101.44 117.911 101.709 116.84C101.977 115.768 102.782 114.655 103.816 114.791C104.79 114.917 105.387 116.083 106.351 116.325C107.464 116.598 108.428 115.558 109.293 114.781C110.168 114.003 111.689 113.51 112.295 114.539C112.653 115.159 112.444 116.01 112.812 116.619C113.458 117.669 114.999 117.018 115.953 116.272C116.907 115.527 118.428 114.854 119.094 115.884C119.303 116.199 119.343 116.598 119.462 116.966C119.909 118.342 121.321 119.024 122.414 119.907C123.508 120.789 124.383 122.543 123.448 123.625C122.991 124.161 122.186 124.371 121.957 125.054C121.669 125.905 122.494 126.661 123.14 127.239C124.214 128.205 124.412 131.104 122.991 131.903C122.394 132.239 121.52 132.333 121.371 133.037C121.241 133.657 121.838 134.151 122.235 134.623C123.329 135.947 122.862 138.321 121.371 139.077C121.033 139.245 120.605 139.392 120.486 139.77C120.396 140.044 120.486 140.338 120.565 140.611C120.705 141.136 120.754 141.682 120.705 142.228C120.685 142.418 120.655 142.617 120.516 142.733C120.396 142.838 120.227 142.859 120.068 142.869C118.011 142.964 117.017 142.197 115.764 144.088C115.645 144.266 115.516 144.455 115.337 144.571C115.168 144.676 114.969 144.708 114.77 144.718C113.359 144.844 112.434 143.909 111.142 143.731C109.353 143.489 108.965 144.466 107.385 145.254C104.9 146.493 103.697 145.726 103.23 143.941L103.21 143.93Z" fill="#EBEBEB"/>
<path d="M114.432 136.104C114.283 135.527 114.194 134.865 114.154 134.13C113.925 130.043 110.228 130.684 107.086 130.127C104.631 129.697 111.132 123.132 106.182 121.02C105.257 120.632 104.263 120.18 103.796 119.256C103.17 118.037 103.796 116.43 104.88 115.632C105.953 114.833 107.325 114.665 108.637 114.634C109.442 113.594 108.786 112.039 108.011 110.978C107.226 109.917 106.271 108.709 106.569 107.407C107.017 105.432 109.631 105.358 111.51 105.747C112.206 104.56 112.196 103.068 112.534 101.713C112.872 100.358 113.895 98.9402 115.208 99.1082C116.45 99.2658 117.206 100.747 118.418 101.052C119.83 101.398 121.052 100.085 122.166 99.0977C123.269 98.1103 125.207 97.4906 125.973 98.7931C126.43 99.5704 126.152 100.663 126.629 101.43C127.454 102.764 129.402 101.934 130.615 100.989C131.828 100.043 133.756 99.1923 134.611 100.495C134.869 100.894 134.929 101.398 135.078 101.86C135.655 103.604 137.434 104.476 138.836 105.6C140.227 106.724 141.331 108.951 140.148 110.316C139.571 110.989 138.547 111.262 138.259 112.123C137.901 113.195 138.935 114.161 139.76 114.896C141.132 116.125 141.38 119.802 139.571 120.81C138.816 121.23 137.702 121.367 137.514 122.249C137.345 123.037 138.11 123.657 138.617 124.266C140.009 125.947 139.412 128.962 137.514 129.928C137.076 130.149 136.549 130.327 136.38 130.81C136.261 131.157 136.39 131.525 136.48 131.882C136.659 132.543 136.718 133.247 136.659 133.93C136.639 134.161 136.589 134.424 136.42 134.571C136.271 134.707 136.052 134.728 135.844 134.739C133.229 134.865 131.967 133.888 130.376 136.283C130.227 136.514 130.058 136.756 129.83 136.892C129.611 137.029 129.363 137.06 129.104 137.081C127.305 137.239 126.132 136.052 124.492 135.831C122.215 135.527 121.728 136.766 119.73 137.764C116.569 139.329 115.049 138.363 114.452 136.094L114.432 136.104Z" fill="#EBEBEB"/>
<path d="M82.9117 101.031C82.7626 100.453 82.6732 99.791 82.6334 99.0557C82.4048 94.9695 78.707 95.6103 75.5659 95.0536C73.1106 94.6229 79.6116 88.0577 74.6613 85.9463C73.7369 85.5577 72.7428 85.106 72.2756 84.1816C71.6494 82.9631 72.2756 81.3559 73.3591 80.5576C74.4327 79.7593 75.8044 79.5912 77.1166 79.5597C77.9217 78.5198 77.2657 76.9651 76.4903 75.9042C75.715 74.8433 74.7508 73.6353 75.049 72.3327C75.4963 70.3579 78.1106 70.2844 79.9893 70.6731C80.6851 69.4861 80.6752 67.9944 81.0131 66.6394C81.3511 65.2843 82.375 63.8663 83.6871 64.0343C84.9296 64.1919 85.6851 65.673 86.8978 65.9776C88.3093 66.3243 89.5319 65.0112 90.6452 64.0238C91.7486 63.0364 93.687 62.4167 94.4524 63.7192C94.9096 64.4965 94.6313 65.589 95.1084 66.3558C95.9335 67.6898 97.8818 66.86 99.0945 65.9146C100.307 64.9692 102.236 64.1184 103.09 65.4209C103.349 65.8201 103.409 66.3243 103.558 66.7865C104.134 68.5302 105.923 69.402 107.315 70.526C108.707 71.65 109.81 73.8769 108.637 75.2424C108.061 75.9147 107.037 76.1878 106.748 77.0492C106.391 78.1206 107.424 79.087 108.249 79.8223C109.621 81.0513 109.87 84.7278 108.061 85.7363C107.305 86.1564 106.192 86.293 106.003 87.1753C105.834 87.9632 106.599 88.5829 107.106 89.1922C108.498 90.8729 107.902 93.8876 106.003 94.854C105.566 95.0746 105.039 95.2532 104.87 95.7364C104.75 96.083 104.88 96.4507 104.969 96.8078C105.148 97.4696 105.208 98.1734 105.148 98.8561C105.128 99.0872 105.079 99.3498 104.91 99.4969C104.76 99.6335 104.542 99.6545 104.333 99.665C101.719 99.791 100.456 98.8141 98.8658 101.209C98.7167 101.44 98.5478 101.682 98.3191 101.818C98.1004 101.955 97.8519 101.986 97.5935 102.007C95.7943 102.165 94.6213 100.978 92.9812 100.757C90.7049 100.453 90.2178 101.692 88.2198 102.69C85.0588 104.255 83.538 103.289 82.9415 101.02L82.9117 101.031Z" fill="#EBEBEB"/>
<path d="M57.1764 102.428C57.0273 101.85 56.9378 101.188 56.898 100.453C56.6694 96.3666 52.9716 97.0074 49.8305 96.4506C47.3753 96.02 53.8762 89.4548 48.926 87.3434C48.0015 86.9547 47.0075 86.5031 46.5403 85.5787C45.9141 84.3602 46.5403 82.753 47.6238 81.9547C48.6973 81.1563 50.0691 80.9883 51.3812 80.9568C52.1864 79.9168 51.5303 78.3622 50.755 77.3013C49.9697 76.2403 49.0154 75.0323 49.3136 73.7298C49.7609 71.755 52.3752 71.6815 54.2539 72.0701C54.9498 70.8726 54.9398 69.3915 55.2778 68.0365C55.6158 66.6814 56.6396 65.2633 57.9517 65.4314C59.1942 65.589 59.9497 67.0701 61.1624 67.3747C62.5739 67.7213 63.7966 66.4083 64.9099 65.4209C66.0232 64.4335 67.9516 63.8137 68.717 65.1163C69.1743 65.8936 68.8959 66.986 69.3731 67.7528C70.1981 69.0869 72.1464 68.257 73.3591 67.3117C74.5718 66.3663 76.5002 65.5154 77.3551 66.818C77.6135 67.2171 77.6732 67.7213 77.8223 68.1835C78.3988 69.9272 80.1781 70.7991 81.5797 71.9231C82.9713 73.047 84.0747 75.2739 82.8918 76.6395C82.3153 77.3118 81.2914 77.5849 81.0032 78.4462C80.6453 79.5177 81.6791 80.4841 82.5042 81.2194C83.8759 82.4484 84.1244 86.1249 82.3153 87.1333C81.5598 87.5535 80.4465 87.69 80.2577 88.5724C80.0887 89.3602 80.8541 89.98 81.361 90.5892C82.7527 92.2699 82.1562 95.2847 80.2577 96.2511C79.8203 96.4716 79.2935 96.6502 79.1245 97.1334C79.0052 97.4801 79.1344 97.8477 79.2239 98.2049C79.4028 98.8666 79.4624 99.5704 79.4028 100.253C79.3829 100.484 79.3332 100.747 79.1642 100.894C79.0151 101.031 78.7964 101.052 78.5877 101.062C75.9734 101.188 74.711 100.211 73.1205 102.606C72.9714 102.837 72.8025 103.079 72.5738 103.215C72.3552 103.352 72.1066 103.383 71.8482 103.405C70.049 103.562 68.8761 102.375 67.2359 102.154C64.9596 101.85 64.4725 103.089 62.4745 104.087C59.3135 105.652 57.7927 104.686 57.1963 102.417L57.1764 102.428Z" fill="#EBEBEB"/>
<path d="M41.5404 113.552C41.3913 112.974 41.3018 112.312 41.2621 111.577C41.0334 107.491 37.3357 108.131 34.1945 107.575C31.7393 107.144 38.2402 100.579 33.29 98.4675C32.3655 98.0788 31.3715 97.6271 30.9043 96.7028C30.2781 95.4843 30.9043 93.8771 31.9878 93.0788C33.0613 92.2804 34.4331 92.1124 35.7452 92.0809C36.5504 91.0409 35.8943 89.4863 35.119 88.4254C34.3337 87.3644 33.3794 86.1564 33.6776 84.8539C34.125 82.8791 36.7392 82.8055 38.6179 83.1942C39.3138 81.9967 39.3038 80.5156 39.6418 79.1605C39.9798 77.8055 41.0036 76.3874 42.3157 76.5555C43.5583 76.713 44.3137 78.1941 45.5264 78.4988C46.9379 78.8454 48.1606 77.5324 49.2739 76.545C50.3872 75.5576 52.3156 74.9378 53.081 76.2403C53.5383 77.0177 53.26 78.1101 53.7371 78.8769C54.5621 80.211 56.5104 79.3811 57.7231 78.4357C58.9358 77.4904 60.8643 76.6395 61.7191 77.942C61.9776 78.3412 62.0372 78.8454 62.1863 79.3076C62.7628 81.0513 64.5421 81.9232 65.9437 83.0471C67.3354 84.1711 68.4387 86.398 67.2558 87.7636C66.6793 88.4359 65.6555 88.709 65.3672 89.5703C65.0093 90.6418 66.0431 91.6082 66.8682 92.3435C68.2399 93.5725 68.4884 97.249 66.6793 98.2574C65.9238 98.6776 64.8105 98.8141 64.6217 99.6965C64.4527 100.484 65.2181 101.104 65.725 101.713C67.1167 103.394 66.5203 106.409 64.6217 107.375C64.1843 107.596 63.6575 107.774 63.4885 108.258C63.3692 108.604 63.4984 108.972 63.5879 109.329C63.7668 109.991 63.8265 110.695 63.7668 111.377C63.7469 111.608 63.6972 111.871 63.5282 112.018C63.3791 112.155 63.1605 112.176 62.9517 112.186C60.3374 112.312 59.075 111.335 57.4846 113.73C57.3355 113.961 57.1665 114.203 56.9378 114.34C56.7192 114.476 56.4707 114.508 56.2122 114.529C54.413 114.686 53.2401 113.499 51.5999 113.279C49.3236 112.974 48.8365 114.213 46.8385 115.211C43.6775 116.777 42.1567 115.81 41.5603 113.541L41.5404 113.552Z" fill="#EBEBEB"/>
<path d="M46.2818 127.617C46.2818 127.617 52.8225 137.386 55.069 140.485C57.3255 143.584 68.5977 162.88 70.1285 175.643C70.2876 177.008 70.4566 178.174 70.6156 179.204C65.7648 213.017 66.5302 274.888 66.6991 285.486H82.0568C82.196 273.543 83.5081 164.361 83.9852 161.031C84.4922 157.502 90.9136 144.067 100.834 138.552C110.754 133.037 119.323 114.77 119.323 114.77H116.162C116.162 114.77 110.297 125.968 101.957 132.165C100.745 133.069 99.4921 133.815 98.1998 134.518C98.498 124.434 94.8798 114.781 94.8798 114.781L93.1701 116.451C95.4762 126.419 95.168 132.806 94.4722 136.483C91.6691 137.964 88.7665 139.676 85.8441 142.586C77.1961 130.695 72.3253 103.51 72.3253 103.51L70.1086 104.791C70.1086 104.791 70.8243 112.176 72.9714 121.461C74.5917 128.499 79.363 141.745 81.5797 147.764C79.373 151 77.1861 155.191 75.049 160.727C74.8104 160.327 74.5321 159.97 74.214 159.666C68.5778 154.277 57.9815 128.846 57.9815 128.846C55.4169 122.932 59.3334 107.407 59.3334 107.407H56.3712L55.0492 120.989L47.6138 112.417L46.262 113.604L54.1545 124.329L58.2102 137.911L47.6138 125.516L46.262 127.659L46.2818 127.617Z" fill="#E6E6E6"/>
<path d="M375.116 175.968C375.235 175.527 375.304 175.013 375.334 174.456C375.513 171.315 378.346 171.819 380.762 171.389C382.65 171.052 377.66 166.021 381.457 164.403C382.163 164.099 382.929 163.762 383.286 163.048C383.764 162.113 383.286 160.874 382.461 160.264C381.636 159.655 380.583 159.519 379.579 159.498C378.962 158.699 379.459 157.502 380.066 156.693C380.662 155.884 381.398 154.96 381.169 153.951C380.821 152.439 378.823 152.386 377.382 152.68C376.845 151.766 376.855 150.621 376.597 149.582C376.338 148.542 375.553 147.449 374.549 147.586C373.595 147.712 373.018 148.846 372.084 149.077C371 149.35 370.066 148.332 369.211 147.575C368.356 146.819 366.875 146.346 366.289 147.344C365.941 147.943 366.149 148.773 365.782 149.371C365.146 150.39 363.654 149.76 362.72 149.035C361.786 148.311 360.315 147.659 359.658 148.657C359.46 148.962 359.41 149.35 359.301 149.708C358.863 151.052 357.491 151.714 356.418 152.575C355.354 153.437 354.499 155.149 355.404 156.199C355.851 156.714 356.637 156.924 356.855 157.586C357.134 158.405 356.338 159.151 355.702 159.718C354.649 160.664 354.46 163.489 355.851 164.256C356.438 164.582 357.293 164.676 357.432 165.359C357.561 165.968 356.975 166.441 356.587 166.903C355.523 168.185 355.971 170.506 357.432 171.241C357.77 171.41 358.177 171.546 358.297 171.914C358.386 172.176 358.297 172.46 358.217 172.733C358.078 173.237 358.038 173.773 358.088 174.309C358.108 174.487 358.138 174.687 358.267 174.802C358.386 174.907 358.555 174.928 358.704 174.928C360.712 175.023 361.676 174.277 362.899 176.115C363.018 176.294 363.138 176.473 363.316 176.588C363.485 176.693 363.674 176.714 363.873 176.735C365.255 176.851 366.149 175.947 367.412 175.779C369.161 175.548 369.529 176.494 371.07 177.26C373.495 178.468 374.668 177.723 375.116 175.979V175.968Z" fill="#EBEBEB"/>
<path d="M352.024 173.332C352.144 172.891 352.213 172.376 352.243 171.819C352.422 168.678 355.255 169.183 357.67 168.752C359.559 168.416 354.569 163.384 358.366 161.767C359.072 161.462 359.837 161.126 360.195 160.411C360.672 159.477 360.195 158.237 359.37 157.628C358.545 157.019 357.492 156.882 356.488 156.861C355.871 156.063 356.368 154.865 356.975 154.056C357.571 153.248 358.307 152.323 358.078 151.315C357.73 149.802 355.732 149.75 354.291 150.044C353.754 149.13 353.764 147.985 353.505 146.945C353.247 145.905 352.462 144.813 351.458 144.949C350.504 145.075 349.927 146.21 348.993 146.441C347.909 146.714 346.975 145.695 346.12 144.939C345.265 144.182 343.784 143.71 343.197 144.708C342.85 145.306 343.058 146.136 342.69 146.735C342.054 147.754 340.563 147.124 339.629 146.399C338.695 145.674 337.223 145.023 336.567 146.021C336.368 146.325 336.319 146.714 336.209 147.071C335.772 148.416 334.4 149.077 333.327 149.939C332.263 150.8 331.408 152.512 332.313 153.563C332.76 154.077 333.545 154.287 333.764 154.949C334.042 155.769 333.247 156.514 332.611 157.082C331.557 158.027 331.369 160.853 332.76 161.619C333.347 161.945 334.202 162.04 334.341 162.722C334.47 163.332 333.883 163.804 333.496 164.267C332.432 165.548 332.879 167.87 334.341 168.605C334.679 168.773 335.086 168.909 335.205 169.277C335.295 169.54 335.205 169.823 335.126 170.096C334.987 170.601 334.947 171.147 334.997 171.672C335.017 171.851 335.046 172.05 335.176 172.166C335.295 172.271 335.464 172.292 335.613 172.292C337.621 172.386 338.585 171.641 339.808 173.479C339.927 173.657 340.046 173.836 340.225 173.952C340.394 174.057 340.583 174.078 340.782 174.099C342.164 174.214 343.058 173.311 344.321 173.143C346.07 172.912 346.438 173.857 347.979 174.624C350.404 175.832 351.577 175.086 352.024 173.342V173.332Z" fill="#EBEBEB"/>
<path d="M349.798 157.796C349.917 157.355 349.987 156.84 350.016 156.283C350.195 153.142 353.028 153.647 355.444 153.216C357.332 152.88 352.342 147.848 356.14 146.231C356.845 145.926 357.611 145.59 357.969 144.876C358.446 143.941 357.969 142.701 357.144 142.092C356.319 141.483 355.265 141.346 354.261 141.325C353.645 140.527 354.142 139.329 354.748 138.52C355.344 137.712 356.08 136.787 355.851 135.779C355.503 134.266 353.505 134.214 352.064 134.508C351.527 133.594 351.537 132.449 351.279 131.409C351.02 130.369 350.235 129.277 349.231 129.413C348.277 129.539 347.7 130.674 346.766 130.905C345.682 131.178 344.748 130.159 343.893 129.403C343.038 128.646 341.557 128.174 340.971 129.172C340.623 129.77 340.832 130.6 340.464 131.199C339.828 132.218 338.337 131.588 337.402 130.863C336.468 130.138 334.997 129.487 334.341 130.485C334.142 130.789 334.092 131.178 333.983 131.535C333.545 132.88 332.174 133.541 331.1 134.403C330.036 135.264 329.182 136.976 330.086 138.027C330.533 138.541 331.319 138.752 331.537 139.413C331.816 140.233 331.021 140.978 330.384 141.546C329.331 142.491 329.142 145.317 330.533 146.084C331.12 146.409 331.975 146.504 332.114 147.187C332.243 147.796 331.657 148.268 331.269 148.731C330.205 150.012 330.653 152.334 332.114 153.069C332.452 153.237 332.86 153.374 332.979 153.741C333.068 154.004 332.979 154.287 332.899 154.561C332.76 155.065 332.72 155.601 332.77 156.136C332.79 156.315 332.82 156.514 332.949 156.63C333.068 156.735 333.237 156.756 333.386 156.756C335.394 156.851 336.358 156.105 337.581 157.943C337.7 158.122 337.82 158.3 337.999 158.416C338.168 158.521 338.356 158.542 338.555 158.563C339.937 158.678 340.832 157.775 342.094 157.607C343.843 157.376 344.211 158.321 345.752 159.088C348.177 160.296 349.35 159.55 349.798 157.806V157.796Z" fill="#EBEBEB"/>
<path d="M334.589 165.538C334.708 165.096 334.778 164.582 334.808 164.025C334.987 160.884 337.82 161.388 340.235 160.958C342.124 160.622 337.134 155.59 340.931 153.972C341.637 153.668 342.402 153.332 342.76 152.617C343.237 151.682 342.76 150.443 341.935 149.834C341.11 149.224 340.056 149.088 339.052 149.067C338.436 148.268 338.933 147.071 339.539 146.262C340.136 145.453 340.871 144.529 340.643 143.521C340.295 142.008 338.297 141.955 336.855 142.25C336.319 141.336 336.329 140.191 336.07 139.151C335.812 138.111 335.026 137.018 334.022 137.155C333.068 137.281 332.492 138.415 331.557 138.647C330.474 138.92 329.539 137.901 328.685 137.144C327.83 136.388 326.349 135.915 325.762 136.913C325.414 137.512 325.623 138.352 325.255 138.941C324.619 139.96 323.128 139.329 322.194 138.605C321.259 137.88 319.788 137.218 319.132 138.226C318.933 138.531 318.883 138.92 318.774 139.277C318.337 140.621 316.965 141.283 315.891 142.144C314.828 143.006 313.973 144.718 314.878 145.768C315.325 146.283 316.11 146.493 316.329 147.155C316.607 147.974 315.812 148.72 315.176 149.287C314.122 150.233 313.933 153.058 315.325 153.825C315.911 154.151 316.766 154.245 316.905 154.928C317.035 155.537 316.448 156.01 316.06 156.472C314.997 157.754 315.444 160.075 316.905 160.811C317.243 160.979 317.651 161.115 317.77 161.483C317.86 161.746 317.77 162.029 317.691 162.302C317.551 162.806 317.512 163.353 317.561 163.878C317.581 164.056 317.611 164.256 317.74 164.372C317.86 164.477 318.029 164.498 318.178 164.498C320.186 164.592 321.15 163.846 322.372 165.685C322.492 165.863 322.611 166.042 322.79 166.157C322.959 166.262 323.148 166.283 323.347 166.304C324.728 166.42 325.623 165.517 326.885 165.349C328.635 165.117 329.003 166.063 330.543 166.83C332.969 168.038 334.142 167.292 334.589 165.548V165.538Z" fill="#EBEBEB"/>
<path d="M319.222 161.966C319.341 161.525 319.41 161.01 319.44 160.453C319.619 157.313 322.452 157.817 324.868 157.386C326.756 157.05 321.766 152.019 325.563 150.401C326.269 150.096 327.035 149.76 327.392 149.046C327.87 148.111 327.392 146.871 326.567 146.262C325.742 145.653 324.689 145.516 323.685 145.495C323.068 144.697 323.565 143.5 324.172 142.691C324.768 141.882 325.504 140.957 325.275 139.949C324.927 138.436 322.929 138.384 321.488 138.678C320.951 137.764 320.961 136.619 320.703 135.579C320.444 134.539 319.659 133.447 318.655 133.583C317.701 133.709 317.124 134.844 316.19 135.075C315.106 135.348 314.172 134.329 313.317 133.573C312.462 132.817 310.981 132.344 310.395 133.342C310.047 133.941 310.255 134.781 309.888 135.369C309.251 136.388 307.76 135.758 306.826 135.033C305.892 134.308 304.42 133.657 303.764 134.655C303.566 134.96 303.516 135.348 303.407 135.705C302.969 137.05 301.597 137.712 300.524 138.573C299.46 139.434 298.605 141.147 299.51 142.197C299.957 142.712 300.743 142.922 300.961 143.584C301.24 144.403 300.444 145.149 299.808 145.716C298.755 146.661 298.566 149.487 299.957 150.254C300.544 150.579 301.399 150.674 301.538 151.357C301.667 151.966 301.081 152.439 300.693 152.901C299.629 154.182 300.077 156.504 301.538 157.239C301.876 157.407 302.283 157.544 302.403 157.911C302.492 158.174 302.403 158.458 302.323 158.731C302.184 159.235 302.144 159.771 302.194 160.306C302.214 160.485 302.244 160.685 302.373 160.8C302.492 160.905 302.661 160.926 302.81 160.926C304.818 161.021 305.782 160.275 307.005 162.113C307.124 162.292 307.244 162.47 307.422 162.586C307.591 162.691 307.78 162.712 307.979 162.733C309.361 162.848 310.255 161.945 311.518 161.777C313.267 161.546 313.635 162.491 315.176 163.258C317.601 164.466 318.774 163.72 319.222 161.977V161.966Z" fill="#EBEBEB"/>
<path d="M319.023 179.34C319.112 178.994 319.172 178.594 319.192 178.153C319.331 175.685 321.567 176.073 323.466 175.737C324.947 175.475 321.021 171.515 324.013 170.233C324.569 169.991 325.176 169.729 325.454 169.172C325.832 168.437 325.454 167.46 324.798 166.977C324.152 166.493 323.317 166.388 322.522 166.378C322.035 165.748 322.432 164.802 322.899 164.172C323.376 163.531 323.953 162.806 323.774 162.019C323.506 160.821 321.925 160.779 320.792 161.01C320.375 160.285 320.375 159.393 320.176 158.573C319.977 157.754 319.351 156.893 318.555 156.998C317.81 157.092 317.353 157.985 316.617 158.174C315.762 158.384 315.027 157.586 314.361 156.987C313.695 156.388 312.522 156.021 312.064 156.809C311.786 157.281 311.955 157.932 311.667 158.405C311.17 159.214 309.987 158.71 309.261 158.143C308.526 157.575 307.363 157.05 306.846 157.848C306.687 158.09 306.657 158.395 306.558 158.678C306.21 159.739 305.136 160.264 304.291 160.937C303.446 161.609 302.78 162.964 303.496 163.783C303.844 164.193 304.46 164.361 304.639 164.876C304.858 165.527 304.232 166.105 303.735 166.557C302.909 167.302 302.76 169.519 303.854 170.128C304.311 170.38 304.987 170.464 305.096 171C305.196 171.483 304.739 171.851 304.43 172.218C303.595 173.227 303.943 175.055 305.096 175.632C305.355 175.769 305.683 175.874 305.782 176.168C305.852 176.378 305.782 176.599 305.723 176.809C305.613 177.208 305.583 177.628 305.613 178.048C305.623 178.195 305.653 178.342 305.752 178.437C305.842 178.521 305.981 178.531 306.1 178.542C307.681 178.615 308.436 178.027 309.4 179.477C309.49 179.613 309.589 179.76 309.729 179.844C309.858 179.929 310.017 179.95 310.166 179.96C311.249 180.055 311.965 179.34 312.949 179.204C314.321 179.015 314.619 179.771 315.832 180.37C317.74 181.315 318.665 180.737 319.023 179.361V179.34Z" fill="#EBEBEB"/>
<path d="M310.404 173.332C310.524 172.891 310.593 172.376 310.623 171.819C310.802 168.678 313.635 169.183 316.051 168.752C317.939 168.416 312.949 163.384 316.746 161.767C317.452 161.462 318.218 161.126 318.575 160.411C319.053 159.477 318.575 158.237 317.75 157.628C316.925 157.019 315.872 156.882 314.868 156.861C314.251 156.063 314.748 154.865 315.355 154.056C315.951 153.248 316.687 152.323 316.458 151.315C316.11 149.802 314.112 149.75 312.671 150.044C312.134 149.13 312.144 147.985 311.886 146.945C311.627 145.905 310.842 144.813 309.838 144.949C308.884 145.075 308.307 146.21 307.373 146.441C306.289 146.714 305.355 145.695 304.5 144.939C303.645 144.182 302.164 143.71 301.578 144.708C301.23 145.306 301.438 146.136 301.071 146.735C300.434 147.754 298.943 147.124 298.009 146.399C297.075 145.674 295.603 145.023 294.947 146.021C294.749 146.325 294.699 146.714 294.59 147.071C294.152 148.416 292.78 149.077 291.707 149.939C290.643 150.8 289.788 152.512 290.693 153.563C291.14 154.077 291.926 154.287 292.144 154.949C292.423 155.769 291.627 156.514 290.991 157.082C289.937 158.027 289.749 160.853 291.14 161.619C291.727 161.945 292.582 162.04 292.721 162.722C292.85 163.332 292.264 163.804 291.876 164.267C290.812 165.548 291.26 167.87 292.721 168.605C293.059 168.773 293.466 168.909 293.586 169.277C293.675 169.54 293.586 169.823 293.506 170.096C293.367 170.601 293.327 171.147 293.377 171.672C293.397 171.851 293.427 172.05 293.556 172.166C293.675 172.271 293.844 172.292 293.993 172.292C296.001 172.386 296.965 171.641 298.188 173.479C298.307 173.657 298.426 173.836 298.605 173.952C298.774 174.057 298.963 174.078 299.162 174.099C300.544 174.214 301.438 173.311 302.701 173.143C304.45 172.912 304.818 173.857 306.359 174.624C308.784 175.832 309.957 175.086 310.404 173.342V173.332Z" fill="#EBEBEB"/>
<path d="M334.589 146.42C334.708 145.979 334.778 145.464 334.808 144.907C334.987 141.766 337.82 142.271 340.235 141.84C342.124 141.504 337.134 136.472 340.931 134.854C341.637 134.55 342.402 134.214 342.76 133.499C343.237 132.565 342.76 131.325 341.935 130.716C341.11 130.107 340.056 129.97 339.052 129.949C338.436 129.151 338.933 127.953 339.539 127.144C340.136 126.335 340.871 125.411 340.643 124.403C340.295 122.89 338.297 122.838 336.855 123.132C336.319 122.218 336.329 121.073 336.07 120.033C335.812 118.993 335.026 117.9 334.022 118.037C333.068 118.163 332.492 119.298 331.557 119.529C330.474 119.802 329.539 118.783 328.685 118.027C327.83 117.27 326.349 116.798 325.762 117.795C325.414 118.394 325.623 119.224 325.255 119.823C324.619 120.842 323.128 120.211 322.194 119.487C321.259 118.762 319.788 118.111 319.132 119.108C318.933 119.413 318.883 119.802 318.774 120.159C318.337 121.503 316.965 122.165 315.891 123.027C314.818 123.888 313.973 125.6 314.878 126.651C315.325 127.165 316.11 127.375 316.329 128.037C316.607 128.856 315.812 129.602 315.176 130.17C314.122 131.115 313.933 133.941 315.325 134.707C315.911 135.033 316.766 135.128 316.905 135.81C317.035 136.42 316.448 136.892 316.06 137.354C314.997 138.636 315.444 140.957 316.905 141.693C317.243 141.861 317.651 141.997 317.77 142.365C317.86 142.628 317.77 142.911 317.691 143.184C317.551 143.689 317.512 144.224 317.561 144.76C317.581 144.939 317.611 145.138 317.74 145.254C317.86 145.359 318.029 145.38 318.178 145.38C320.186 145.474 321.15 144.729 322.372 146.567C322.492 146.745 322.611 146.924 322.79 147.039C322.959 147.145 323.148 147.166 323.347 147.187C324.728 147.302 325.623 146.399 326.885 146.231C328.635 146 329.003 146.945 330.543 147.712C332.969 148.92 334.142 148.174 334.589 146.43V146.42Z" fill="#EBEBEB"/>
<path d="M354.34 147.491C354.46 147.05 354.529 146.535 354.559 145.979C354.738 142.838 357.571 143.342 359.987 142.911C361.875 142.575 356.885 137.544 360.682 135.926C361.388 135.621 362.154 135.285 362.511 134.571C362.989 133.636 362.511 132.396 361.686 131.787C360.861 131.178 359.808 131.041 358.804 131.02C358.187 130.222 358.684 129.025 359.291 128.216C359.887 127.407 360.623 126.483 360.394 125.474C360.046 123.961 358.048 123.909 356.597 124.203C356.06 123.289 356.07 122.144 355.812 121.104C355.553 120.064 354.768 118.972 353.764 119.108C352.81 119.235 352.233 120.369 351.299 120.6C350.215 120.873 349.281 119.854 348.426 119.098C347.571 118.342 346.09 117.869 345.504 118.867C345.156 119.466 345.364 120.295 344.997 120.894C344.36 121.913 342.869 121.283 341.935 120.558C341.001 119.833 339.529 119.182 338.873 120.18C338.675 120.485 338.625 120.873 338.516 121.23C338.078 122.575 336.706 123.237 335.633 124.098C334.569 124.959 333.714 126.672 334.619 127.722C335.066 128.237 335.852 128.447 336.07 129.109C336.349 129.928 335.553 130.674 334.917 131.241C333.864 132.186 333.675 135.012 335.066 135.779C335.653 136.104 336.508 136.199 336.647 136.882C336.776 137.491 336.19 137.964 335.802 138.426C334.738 139.707 335.186 142.029 336.647 142.764C336.985 142.932 337.392 143.069 337.512 143.436C337.601 143.699 337.512 143.983 337.432 144.256C337.293 144.76 337.253 145.296 337.303 145.831C337.323 146.01 337.353 146.21 337.482 146.325C337.601 146.43 337.77 146.451 337.919 146.451C339.927 146.546 340.891 145.8 342.114 147.638C342.233 147.817 342.353 147.995 342.531 148.111C342.7 148.216 342.889 148.237 343.088 148.258C344.47 148.374 345.364 147.47 346.627 147.302C348.376 147.071 348.744 148.016 350.285 148.783C352.71 149.991 353.883 149.245 354.331 147.502L354.34 147.491Z" fill="#EBEBEB"/>
<path d="M366.328 156.031C366.448 155.59 366.517 155.075 366.547 154.519C366.726 151.378 369.559 151.882 371.974 151.451C373.863 151.115 368.873 146.084 372.67 144.466C373.376 144.161 374.141 143.825 374.499 143.111C374.976 142.176 374.499 140.936 373.674 140.327C372.849 139.718 371.796 139.581 370.792 139.56C370.175 138.762 370.672 137.565 371.279 136.756C371.875 135.947 372.611 135.023 372.382 134.014C372.034 132.501 370.036 132.449 368.585 132.743C368.048 131.829 368.058 130.684 367.8 129.644C367.541 128.604 366.756 127.512 365.752 127.648C364.798 127.775 364.221 128.909 363.287 129.14C362.203 129.413 361.269 128.394 360.414 127.638C359.569 126.882 358.078 126.409 357.492 127.407C357.144 128.006 357.352 128.846 356.985 129.434C356.348 130.453 354.857 129.823 353.923 129.098C352.989 128.373 351.517 127.712 350.861 128.72C350.663 129.025 350.613 129.413 350.503 129.77C350.066 131.115 348.694 131.777 347.621 132.638C346.557 133.499 345.702 135.212 346.607 136.262C347.054 136.777 347.839 136.987 348.058 137.649C348.337 138.468 347.541 139.214 346.905 139.781C345.851 140.726 345.663 143.552 347.054 144.319C347.641 144.644 348.496 144.739 348.635 145.422C348.764 146.031 348.177 146.504 347.79 146.966C346.726 148.247 347.174 150.569 348.635 151.304C348.973 151.472 349.38 151.609 349.5 151.976C349.589 152.239 349.5 152.523 349.42 152.796C349.281 153.3 349.241 153.836 349.291 154.371C349.311 154.55 349.34 154.75 349.47 154.865C349.589 154.97 349.758 154.991 349.907 154.991C351.915 155.086 352.879 154.34 354.102 156.178C354.221 156.357 354.34 156.535 354.519 156.651C354.688 156.756 354.877 156.777 355.076 156.798C356.458 156.914 357.352 156.01 358.615 155.842C360.364 155.611 360.732 156.556 362.273 157.323C364.698 158.531 365.871 157.785 366.318 156.042L366.328 156.031Z" fill="#EBEBEB"/>
<path d="M362.7 166.819C362.7 166.819 357.68 174.309 355.951 176.693C354.221 179.067 345.573 193.878 344.4 203.668C344.271 204.708 344.152 205.612 344.032 206.399C347.75 232.345 347.164 279.814 347.034 287.944H335.245C335.136 278.785 334.132 195.013 333.764 192.45C333.376 189.74 328.446 179.435 320.832 175.202C313.218 170.968 306.647 156.956 306.647 156.956H309.073C309.073 156.956 313.566 165.548 319.967 170.296C320.892 170.989 321.856 171.557 322.85 172.103C322.621 164.361 325.394 156.956 325.394 156.956L326.707 158.237C324.937 165.884 325.176 170.79 325.703 173.605C327.85 174.739 330.076 176.063 332.323 178.279C338.963 169.162 342.69 148.3 342.69 148.3L344.39 149.277C344.39 149.277 343.834 154.939 342.193 162.071C340.951 167.47 337.293 177.639 335.583 182.25C337.273 184.729 338.953 187.943 340.593 192.198C340.782 191.893 340.991 191.62 341.229 191.389C345.553 187.261 353.684 167.733 353.684 167.733C355.653 163.195 352.651 151.283 352.651 151.283H354.917L355.931 161.704L361.637 155.128L362.67 156.042L356.617 164.267L353.505 174.687L361.637 165.18L362.67 166.83L362.7 166.819Z" fill="#E6E6E6"/>
<path d="M7.87269 302.619H398.127C402.471 302.619 406 306.348 406 310.938V323.46H0V310.938C0 306.348 3.52879 302.619 7.87269 302.619Z" fill="#E0E0E0"/>
<path d="M206.161 372C312.604 372 398.893 366.676 398.893 360.109C398.893 353.542 312.604 348.218 206.161 348.218C99.7183 348.218 13.4293 353.542 13.4293 360.109C13.4293 366.676 99.7183 372 206.161 372Z" fill="#F5F5F5"/>
<path d="M65.0789 55.6624C64.9695 55.6624 64.8801 55.5784 64.8602 55.4733L62.0073 39.9164L62.4447 39.8219L65.2976 55.3788C65.3174 55.5048 65.2379 55.6309 65.1186 55.6519C65.1087 55.6519 65.0888 55.6519 65.0789 55.6519V55.6624Z" fill="#FAFAFA"/>
<path d="M74.5718 106.461C74.4625 106.461 74.373 106.377 74.3532 106.272L67.1962 67.1856C67.1763 67.0596 67.2558 66.9335 67.3751 66.9125C67.4944 66.881 67.6137 66.9755 67.6335 67.1016L74.7905 106.188C74.8104 106.314 74.7309 106.44 74.6116 106.461C74.6017 106.461 74.5818 106.461 74.5718 106.461Z" fill="#FAFAFA"/>
<path d="M92.3449 194.992C92.2356 194.992 92.1461 194.908 92.1262 194.803L78.7566 121.766C78.7367 121.64 78.8162 121.514 78.9355 121.493C79.0548 121.461 79.1741 121.556 79.194 121.682L92.5636 194.719C92.5835 194.845 92.504 194.971 92.3847 194.992C92.3747 194.992 92.3549 194.992 92.3449 194.992Z" fill="#FAFAFA"/>
<path d="M108.09 285.413C107.981 285.413 107.892 285.329 107.872 285.224L92.355 200.496C92.3351 200.37 92.4146 200.244 92.5339 200.223C92.6532 200.202 92.7725 200.286 92.7923 200.412L108.309 285.15C108.329 285.276 108.249 285.402 108.13 285.423C108.12 285.423 108.1 285.423 108.09 285.423V285.413Z" fill="#FAFAFA"/>
<path d="M118.259 338.911C118.15 338.911 118.06 338.827 118.041 338.722L111.52 303.102C111.5 302.976 111.579 302.85 111.699 302.829C111.818 302.808 111.937 302.892 111.957 303.018L118.478 338.638C118.498 338.764 118.418 338.89 118.299 338.911C118.289 338.911 118.269 338.911 118.259 338.911Z" fill="#FAFAFA"/>
<path d="M46.918 167.722C46.8086 167.722 46.7192 167.638 46.6993 167.533L36.1626 110.012L36.6 109.917L47.1366 167.439C47.1565 167.565 47.077 167.691 46.9577 167.712C46.9478 167.712 46.9279 167.712 46.918 167.712V167.722Z" fill="#FAFAFA"/>
<path d="M61.5401 212.996C61.4308 212.996 61.3413 212.912 61.3214 212.807L50.8841 155.8C50.8643 155.674 50.9438 155.548 51.0631 155.527C51.1824 155.495 51.3016 155.59 51.3215 155.716L61.7588 212.723C61.7787 212.849 61.6992 212.975 61.5799 212.996C61.5699 212.996 61.55 212.996 61.5401 212.996Z" fill="#FAFAFA"/>
<path d="M83.7168 344.037C83.6075 344.037 83.518 343.953 83.4981 343.848L72.7229 284.982C72.703 284.856 72.7825 284.73 72.9018 284.709C73.0211 284.678 73.1404 284.772 73.1603 284.898L83.9355 343.764C83.9554 343.89 83.8759 344.016 83.7566 344.037C83.7466 344.037 83.7268 344.037 83.7168 344.037Z" fill="#FAFAFA"/>
<path d="M38.936 255.297C38.8266 255.297 38.7371 255.213 38.7173 255.108L29.4629 204.582C29.443 204.456 29.5225 204.33 29.6418 204.309C29.7611 204.288 29.8804 204.372 29.9003 204.498L39.1546 255.024C39.1745 255.15 39.095 255.276 38.9757 255.297C38.9658 255.297 38.9459 255.297 38.936 255.297Z" fill="#FAFAFA"/>
<path d="M52.584 295.203C52.4746 295.203 52.3851 295.119 52.3653 295.014L45.1785 255.749C45.1586 255.623 45.2381 255.497 45.3574 255.476C45.4767 255.444 45.5959 255.539 45.6158 255.665L52.8026 294.93C52.8225 295.056 52.743 295.182 52.6237 295.203C52.6138 295.203 52.5939 295.203 52.584 295.203V295.203Z" fill="#FAFAFA"/>
<path d="M98.8558 112.417C98.7465 112.417 98.657 112.333 98.6372 112.228L86.9176 48.2148C86.8977 48.0888 86.9772 47.9627 87.0965 47.9417C87.2158 47.9207 87.3351 48.0048 87.355 48.1308L99.0745 112.144C99.0944 112.27 99.0149 112.396 98.8956 112.417C98.8857 112.417 98.8658 112.417 98.8558 112.417Z" fill="#FAFAFA"/>
<path d="M112.464 171.662C112.355 171.662 112.265 171.578 112.245 171.473L102.653 119.087C102.633 118.961 102.713 118.835 102.832 118.814C102.951 118.793 103.071 118.877 103.09 119.003L112.683 171.388C112.703 171.515 112.623 171.641 112.504 171.662C112.494 171.662 112.474 171.662 112.464 171.662V171.662Z" fill="#FAFAFA"/>
<path d="M134.83 225.654C134.72 225.654 134.631 225.57 134.611 225.465L124.303 169.162C124.283 169.035 124.362 168.909 124.482 168.888C124.601 168.867 124.72 168.951 124.74 169.078L135.048 225.381C135.068 225.507 134.989 225.633 134.869 225.654C134.859 225.654 134.84 225.654 134.83 225.654Z" fill="#FAFAFA"/>
<path d="M158.11 343.229C158 343.229 157.911 343.145 157.891 343.04L145.028 272.776C145.008 272.65 145.088 272.524 145.207 272.503C145.327 272.482 145.446 272.566 145.466 272.692L158.328 342.956C158.348 343.082 158.269 343.208 158.149 343.229C158.14 343.229 158.12 343.229 158.11 343.229Z" fill="#FAFAFA"/>
<path d="M123.567 35.0634C123.458 35.0634 123.369 34.9794 123.349 34.8743L120.893 21.4918C120.874 21.3658 120.953 21.2397 121.072 21.2187C121.192 21.1977 121.311 21.2818 121.331 21.4078L123.786 34.7903C123.806 34.9164 123.726 35.0424 123.607 35.0634C123.597 35.0634 123.577 35.0634 123.567 35.0634V35.0634Z" fill="#FAFAFA"/>
<path d="M140.496 86.4716C140.386 86.4716 140.297 86.3875 140.277 86.2825L133.299 48.1518C133.279 48.0258 133.358 47.8997 133.478 47.8787C133.597 47.8577 133.716 47.9417 133.736 48.0678L140.714 86.1985C140.734 86.3245 140.655 86.4506 140.535 86.4716C140.525 86.4716 140.506 86.4716 140.496 86.4716Z" fill="#FAFAFA"/>
<path d="M148.985 144.76C148.875 144.76 148.786 144.676 148.766 144.571L139.492 93.9296C139.472 93.8036 139.551 93.6775 139.67 93.6565C139.79 93.625 139.909 93.7195 139.929 93.8456L149.203 144.487C149.223 144.613 149.144 144.739 149.024 144.76C149.014 144.76 148.994 144.76 148.985 144.76V144.76Z" fill="#FAFAFA"/>
<path d="M167.881 271.946C167.772 271.946 167.682 271.862 167.662 271.757L149.929 174.928C149.909 174.802 149.989 174.676 150.108 174.655C150.227 174.634 150.346 174.718 150.366 174.844L168.1 271.673C168.12 271.799 168.04 271.925 167.921 271.946C167.911 271.946 167.891 271.946 167.881 271.946Z" fill="#FAFAFA"/>
<path d="M185.724 328.302L175.873 274.499C175.853 274.373 175.933 274.247 176.052 274.226C176.171 274.194 176.29 274.289 176.31 274.415L186.161 328.218L185.724 328.312V328.302Z" fill="#FAFAFA"/>
<path d="M196.34 25.3889C196.231 25.3889 196.141 25.3049 196.121 25.1999L194.829 18.162C194.809 18.0359 194.889 17.9099 195.008 17.8889C195.127 17.8573 195.247 17.9519 195.266 18.0779L196.559 25.1158C196.579 25.2419 196.499 25.3679 196.38 25.3889C196.37 25.3889 196.35 25.3889 196.34 25.3889Z" fill="#FAFAFA"/>
<path d="M222.185 197.03C222.075 197.03 221.986 196.945 221.966 196.84L198.318 67.6898C198.298 67.5638 198.378 67.4377 198.497 67.4167C198.616 67.3957 198.736 67.4798 198.755 67.6058L222.403 196.756C222.423 196.882 222.344 197.009 222.224 197.03C222.214 197.03 222.195 197.03 222.185 197.03Z" fill="#FAFAFA"/>
<path d="M231.578 239.74C231.469 239.74 231.379 239.656 231.36 239.551L218.278 168.101C218.258 167.975 218.338 167.849 218.457 167.827C218.576 167.806 218.696 167.891 218.716 168.017L231.797 239.467C231.817 239.593 231.737 239.719 231.618 239.74C231.608 239.74 231.588 239.74 231.578 239.74V239.74Z" fill="#FAFAFA"/>
<path d="M244.093 294.047L234.868 243.69C234.849 243.564 234.928 243.438 235.047 243.417C235.167 243.396 235.286 243.48 235.306 243.606L244.53 293.963L244.093 294.058V294.047Z" fill="#FAFAFA"/>
<path d="M238.377 106.734C238.268 106.734 238.179 106.65 238.159 106.545L226.141 40.9038C226.121 40.7778 226.2 40.6517 226.32 40.6307C226.439 40.6097 226.558 40.6937 226.578 40.8198L238.596 106.461C238.616 106.587 238.536 106.713 238.417 106.734C238.407 106.734 238.387 106.734 238.377 106.734Z" fill="#FAFAFA"/>
<path d="M256.667 230.601C256.558 230.601 256.469 230.517 256.449 230.412L237.184 125.19C237.165 125.064 237.244 124.938 237.363 124.917C237.483 124.896 237.602 124.98 237.622 125.106L256.886 230.328C256.906 230.454 256.826 230.58 256.707 230.601C256.697 230.601 256.677 230.601 256.667 230.601V230.601Z" fill="#FAFAFA"/>
<path d="M268.029 271.043C267.92 271.043 267.83 270.959 267.81 270.854L255.176 201.851C255.157 201.725 255.236 201.599 255.355 201.578C255.475 201.546 255.594 201.641 255.614 201.767L268.248 270.77C268.268 270.896 268.188 271.022 268.069 271.043C268.059 271.043 268.039 271.043 268.029 271.043V271.043Z" fill="#FAFAFA"/>
<path d="M278.437 299.814C278.327 299.814 278.238 299.73 278.218 299.625L274.103 277.167C274.083 277.041 274.162 276.915 274.282 276.894C274.401 276.873 274.52 276.957 274.54 277.083L278.655 299.541C278.675 299.667 278.596 299.793 278.476 299.814C278.466 299.814 278.447 299.814 278.437 299.814V299.814Z" fill="#FAFAFA"/>
<path d="M294.729 74.4861C294.619 74.4861 294.53 74.4021 294.51 74.2971L287.154 34.118C287.134 33.992 287.214 33.8659 287.333 33.8449C287.452 33.8239 287.572 33.9079 287.592 34.034L294.947 74.213C294.967 74.3391 294.888 74.4651 294.768 74.4861C294.758 74.4861 294.739 74.4861 294.729 74.4861V74.4861Z" fill="#FAFAFA"/>
<path d="M311.329 137.092C311.22 137.092 311.13 137.008 311.11 136.903L299.888 75.5891C299.868 75.463 299.947 75.337 300.067 75.316C300.186 75.295 300.305 75.379 300.325 75.505L311.548 136.819C311.568 136.945 311.488 137.071 311.369 137.092C311.359 137.092 311.339 137.092 311.329 137.092V137.092Z" fill="#FAFAFA"/>
<path d="M322.154 260.234C322.045 260.234 321.955 260.15 321.935 260.045L303.725 160.611C303.705 160.485 303.784 160.359 303.904 160.338C304.023 160.306 304.142 160.401 304.162 160.527L322.373 259.961C322.392 260.087 322.313 260.213 322.194 260.234C322.184 260.234 322.164 260.234 322.154 260.234V260.234Z" fill="#FAFAFA"/>
<path d="M339.599 320.875L330.086 268.921C330.066 268.795 330.146 268.669 330.265 268.648C330.384 268.627 330.504 268.711 330.524 268.837L340.036 320.791L339.599 320.886V320.875Z" fill="#FAFAFA"/>
<path d="M321.756 48.8556C321.647 48.8556 321.557 48.7716 321.538 48.6665L318.804 33.7189L319.241 33.6243L321.975 48.572C321.995 48.698 321.915 48.8241 321.796 48.8451C321.786 48.8451 321.766 48.8451 321.756 48.8451V48.8556Z" fill="#FAFAFA"/>
<path d="M335.683 169.393C335.573 169.393 335.484 169.309 335.464 169.204L319.559 82.3224C319.54 82.1963 319.619 82.0702 319.738 82.0492C319.858 82.0282 319.977 82.1123 319.997 82.2383L335.901 169.12C335.921 169.246 335.842 169.372 335.722 169.393C335.712 169.393 335.692 169.393 335.683 169.393V169.393Z" fill="#FAFAFA"/>
<path d="M345.722 189.677C345.613 189.677 345.523 189.592 345.504 189.487L338.844 153.111C338.824 152.985 338.903 152.859 339.023 152.838C339.142 152.817 339.261 152.901 339.281 153.027L345.941 189.403C345.961 189.529 345.881 189.655 345.762 189.677C345.752 189.677 345.732 189.677 345.722 189.677V189.677Z" fill="#FAFAFA"/>
<path d="M357.293 297.335C357.183 297.335 357.094 297.251 357.074 297.146L341.955 214.582C341.935 214.456 342.015 214.33 342.134 214.309C342.253 214.278 342.372 214.372 342.392 214.498L357.511 297.062C357.531 297.188 357.452 297.314 357.333 297.335C357.323 297.335 357.303 297.335 357.293 297.335V297.335Z" fill="#FAFAFA"/>
<path d="M380.622 337.094L377.084 317.745C377.064 317.619 377.143 317.493 377.263 317.472C377.382 317.441 377.501 317.535 377.521 317.661L381.06 337.01L380.622 337.105V337.094Z" fill="#FAFAFA"/>
<path d="M358.426 68.3096C358.317 68.3096 358.227 68.2256 358.207 68.1205L355.494 53.2884L355.931 53.1939L358.645 68.026C358.664 68.152 358.585 68.2781 358.466 68.2991C358.456 68.2991 358.436 68.2991 358.426 68.2991V68.3096Z" fill="#FAFAFA"/>
<path d="M368.654 123.163C368.545 123.163 368.456 123.079 368.436 122.974L359.927 76.503C359.907 76.3769 359.987 76.2508 360.106 76.2298C360.225 76.2088 360.344 76.2929 360.364 76.4189L368.873 122.89C368.893 123.016 368.813 123.142 368.694 123.163C368.684 123.163 368.664 123.163 368.654 123.163V123.163Z" fill="#FAFAFA"/>
<path d="M376.785 192.534C376.676 192.534 376.587 192.45 376.567 192.345L366.477 137.228C366.458 137.102 366.537 136.976 366.656 136.955C366.776 136.934 366.895 137.018 366.915 137.144L377.004 192.261C377.024 192.387 376.945 192.513 376.825 192.534C376.815 192.534 376.795 192.534 376.785 192.534V192.534Z" fill="#FAFAFA"/>
<path d="M367.024 236.221C366.915 236.221 366.825 236.137 366.806 236.032L359.957 198.626C359.937 198.5 360.016 198.374 360.136 198.353C360.255 198.322 360.374 198.416 360.394 198.542L367.243 235.948C367.263 236.074 367.183 236.2 367.064 236.221C367.054 236.221 367.034 236.221 367.024 236.221V236.221Z" fill="#FAFAFA"/>
<path d="M257.015 29.7797C256.906 29.7797 256.816 29.6957 256.797 29.5907L251.518 0.756313L251.956 0.661774L257.234 29.4856C257.254 29.6117 257.174 29.7377 257.055 29.7587C257.045 29.7587 257.025 29.7587 257.015 29.7587V29.7797Z" fill="#FAFAFA"/>
<path d="M276.946 156.084C276.836 156.084 276.747 156 276.727 155.895L260.922 69.6016C260.902 69.4756 260.982 69.3495 261.101 69.3285C261.22 69.297 261.339 69.3916 261.359 69.5176L277.164 155.811C277.184 155.937 277.105 156.063 276.985 156.084C276.975 156.084 276.955 156.084 276.946 156.084V156.084Z" fill="#FAFAFA"/>
<path d="M290.554 228.385C290.444 228.385 290.355 228.301 290.335 228.196L276.647 153.437C276.627 153.311 276.707 153.185 276.826 153.163C276.946 153.142 277.065 153.227 277.085 153.353L290.772 228.112C290.792 228.238 290.713 228.364 290.594 228.385C290.584 228.385 290.564 228.385 290.554 228.385V228.385Z" fill="#FAFAFA"/>
<path d="M304.371 296.274L291.955 228.458C291.935 228.332 292.015 228.206 292.134 228.185C292.254 228.164 292.373 228.248 292.393 228.374L304.808 296.19L304.371 296.285V296.274Z" fill="#FAFAFA"/>
<path d="M168.666 47.5531C168.557 47.5531 168.468 47.469 168.448 47.364L163.806 22.0171L164.243 21.9225L168.885 47.2694C168.905 47.3955 168.825 47.5215 168.706 47.5425C168.696 47.5425 168.676 47.5425 168.666 47.5425V47.5531Z" fill="#FAFAFA"/>
<path d="M178.795 121.356C178.686 121.356 178.597 121.272 178.577 121.167L168.348 65.3054C168.328 65.1793 168.408 65.0532 168.527 65.0322C168.646 65.0112 168.766 65.0953 168.786 65.2213L179.014 121.083C179.034 121.209 178.955 121.335 178.835 121.356C178.825 121.356 178.805 121.356 178.795 121.356Z" fill="#FAFAFA"/>
<path d="M195.714 192.156C195.604 192.156 195.515 192.071 195.495 191.966L180.774 111.587C180.754 111.461 180.833 111.335 180.952 111.314C181.072 111.293 181.191 111.377 181.211 111.503L195.932 191.882C195.952 192.008 195.873 192.135 195.754 192.156C195.744 192.156 195.724 192.156 195.714 192.156Z" fill="#FAFAFA"/>
<path d="M210.455 290.108C210.346 290.108 210.256 290.024 210.236 289.919L195.386 208.794C195.366 208.668 195.445 208.542 195.565 208.521C195.694 208.5 195.803 208.584 195.823 208.71L210.674 289.835C210.694 289.961 210.614 290.087 210.495 290.108C210.485 290.108 210.465 290.108 210.455 290.108Z" fill="#FAFAFA"/>
<path d="M219.292 291.821L215.654 271.946C215.634 271.82 215.714 271.694 215.833 271.673C215.952 271.642 216.071 271.736 216.091 271.862L219.729 291.736L219.292 291.831V291.821Z" fill="#FAFAFA"/>
<g opacity="0.6">
<path d="M65.0789 55.6624C64.9695 55.6624 64.8801 55.5784 64.8602 55.4733L62.0073 39.9164L62.4447 39.8219L65.2976 55.3788C65.3174 55.5048 65.2379 55.6309 65.1186 55.6519C65.1087 55.6519 65.0888 55.6519 65.0789 55.6519V55.6624Z" fill="white"/>
<path d="M74.5718 106.461C74.4625 106.461 74.373 106.377 74.3532 106.272L67.1962 67.1856C67.1763 67.0596 67.2558 66.9335 67.3751 66.9125C67.4944 66.881 67.6137 66.9755 67.6335 67.1016L74.7905 106.188C74.8104 106.314 74.7309 106.44 74.6116 106.461C74.6017 106.461 74.5818 106.461 74.5718 106.461Z" fill="white"/>
<path d="M92.3449 194.992C92.2356 194.992 92.1461 194.908 92.1262 194.803L78.7566 121.766C78.7367 121.64 78.8162 121.514 78.9355 121.493C79.0548 121.461 79.1741 121.556 79.194 121.682L92.5636 194.719C92.5835 194.845 92.504 194.971 92.3847 194.992C92.3747 194.992 92.3549 194.992 92.3449 194.992Z" fill="white"/>
<path d="M108.09 285.413C107.981 285.413 107.892 285.329 107.872 285.224L92.355 200.496C92.3351 200.37 92.4146 200.244 92.5339 200.223C92.6532 200.202 92.7725 200.286 92.7923 200.412L108.309 285.15C108.329 285.276 108.249 285.402 108.13 285.423C108.12 285.423 108.1 285.423 108.09 285.423V285.413Z" fill="white"/>
<path d="M118.259 338.911C118.15 338.911 118.06 338.827 118.041 338.722L111.52 303.102C111.5 302.976 111.579 302.85 111.699 302.829C111.818 302.808 111.937 302.892 111.957 303.018L118.478 338.638C118.498 338.764 118.418 338.89 118.299 338.911C118.289 338.911 118.269 338.911 118.259 338.911Z" fill="white"/>
<path d="M46.918 167.722C46.8086 167.722 46.7192 167.638 46.6993 167.533L36.1626 110.012L36.6 109.917L47.1366 167.439C47.1565 167.565 47.077 167.691 46.9577 167.712C46.9478 167.712 46.9279 167.712 46.918 167.712V167.722Z" fill="white"/>
<path d="M61.5401 212.996C61.4308 212.996 61.3413 212.912 61.3214 212.807L50.8841 155.8C50.8643 155.674 50.9438 155.548 51.0631 155.527C51.1824 155.495 51.3016 155.59 51.3215 155.716L61.7588 212.723C61.7787 212.849 61.6992 212.975 61.5799 212.996C61.5699 212.996 61.55 212.996 61.5401 212.996Z" fill="white"/>
<path d="M83.7168 344.037C83.6075 344.037 83.518 343.953 83.4981 343.848L72.7229 284.982C72.703 284.856 72.7825 284.73 72.9018 284.709C73.0211 284.678 73.1404 284.772 73.1603 284.898L83.9355 343.764C83.9554 343.89 83.8759 344.016 83.7566 344.037C83.7466 344.037 83.7268 344.037 83.7168 344.037Z" fill="white"/>
<path d="M38.936 255.297C38.8266 255.297 38.7371 255.213 38.7173 255.108L29.4629 204.582C29.443 204.456 29.5225 204.33 29.6418 204.309C29.7611 204.288 29.8804 204.372 29.9003 204.498L39.1546 255.024C39.1745 255.15 39.095 255.276 38.9757 255.297C38.9658 255.297 38.9459 255.297 38.936 255.297Z" fill="white"/>
<path d="M52.584 295.203C52.4746 295.203 52.3851 295.119 52.3653 295.014L45.1785 255.749C45.1586 255.623 45.2381 255.497 45.3574 255.476C45.4767 255.444 45.5959 255.539 45.6158 255.665L52.8026 294.93C52.8225 295.056 52.743 295.182 52.6237 295.203C52.6138 295.203 52.5939 295.203 52.584 295.203V295.203Z" fill="white"/>
<path d="M98.8558 112.417C98.7465 112.417 98.657 112.333 98.6372 112.228L86.9176 48.2148C86.8977 48.0888 86.9772 47.9627 87.0965 47.9417C87.2158 47.9207 87.3351 48.0048 87.355 48.1308L99.0745 112.144C99.0944 112.27 99.0149 112.396 98.8956 112.417C98.8857 112.417 98.8658 112.417 98.8558 112.417Z" fill="white"/>
<path d="M112.464 171.662C112.355 171.662 112.265 171.578 112.245 171.473L102.653 119.087C102.633 118.961 102.713 118.835 102.832 118.814C102.951 118.793 103.071 118.877 103.09 119.003L112.683 171.388C112.703 171.515 112.623 171.641 112.504 171.662C112.494 171.662 112.474 171.662 112.464 171.662V171.662Z" fill="white"/>
<path d="M134.83 225.654C134.72 225.654 134.631 225.57 134.611 225.465L124.303 169.162C124.283 169.035 124.362 168.909 124.482 168.888C124.601 168.867 124.72 168.951 124.74 169.078L135.048 225.381C135.068 225.507 134.989 225.633 134.869 225.654C134.859 225.654 134.84 225.654 134.83 225.654Z" fill="white"/>
<path d="M158.11 343.229C158 343.229 157.911 343.145 157.891 343.04L145.028 272.776C145.008 272.65 145.088 272.524 145.207 272.503C145.327 272.482 145.446 272.566 145.466 272.692L158.328 342.956C158.348 343.082 158.269 343.208 158.149 343.229C158.14 343.229 158.12 343.229 158.11 343.229Z" fill="white"/>
<path d="M123.567 35.0634C123.458 35.0634 123.369 34.9794 123.349 34.8743L120.893 21.4918C120.874 21.3658 120.953 21.2397 121.072 21.2187C121.192 21.1977 121.311 21.2818 121.331 21.4078L123.786 34.7903C123.806 34.9164 123.726 35.0424 123.607 35.0634C123.597 35.0634 123.577 35.0634 123.567 35.0634V35.0634Z" fill="white"/>
<path d="M140.496 86.4716C140.386 86.4716 140.297 86.3875 140.277 86.2825L133.299 48.1518C133.279 48.0258 133.358 47.8997 133.478 47.8787C133.597 47.8577 133.716 47.9417 133.736 48.0678L140.714 86.1985C140.734 86.3245 140.655 86.4506 140.535 86.4716C140.525 86.4716 140.506 86.4716 140.496 86.4716Z" fill="white"/>
<path d="M148.985 144.76C148.875 144.76 148.786 144.676 148.766 144.571L139.492 93.9296C139.472 93.8036 139.551 93.6775 139.67 93.6565C139.79 93.625 139.909 93.7195 139.929 93.8456L149.203 144.487C149.223 144.613 149.144 144.739 149.024 144.76C149.014 144.76 148.994 144.76 148.985 144.76V144.76Z" fill="white"/>
<path d="M167.881 271.946C167.772 271.946 167.682 271.862 167.662 271.757L149.929 174.928C149.909 174.802 149.989 174.676 150.108 174.655C150.227 174.634 150.346 174.718 150.366 174.844L168.1 271.673C168.12 271.799 168.04 271.925 167.921 271.946C167.911 271.946 167.891 271.946 167.881 271.946Z" fill="white"/>
<path d="M185.724 328.302L175.873 274.499C175.853 274.373 175.933 274.247 176.052 274.226C176.171 274.194 176.29 274.289 176.31 274.415L186.161 328.218L185.724 328.312V328.302Z" fill="white"/>
<path d="M196.34 25.3889C196.231 25.3889 196.141 25.3049 196.121 25.1999L194.829 18.162C194.809 18.0359 194.889 17.9099 195.008 17.8889C195.127 17.8573 195.247 17.9519 195.266 18.0779L196.559 25.1158C196.579 25.2419 196.499 25.3679 196.38 25.3889C196.37 25.3889 196.35 25.3889 196.34 25.3889Z" fill="white"/>
<path d="M222.185 197.03C222.075 197.03 221.986 196.945 221.966 196.84L198.318 67.6898C198.298 67.5638 198.378 67.4377 198.497 67.4167C198.616 67.3957 198.736 67.4798 198.755 67.6058L222.403 196.756C222.423 196.882 222.344 197.009 222.224 197.03C222.214 197.03 222.195 197.03 222.185 197.03Z" fill="white"/>
<path d="M231.578 239.74C231.469 239.74 231.379 239.656 231.36 239.551L218.278 168.101C218.258 167.975 218.338 167.849 218.457 167.827C218.576 167.806 218.696 167.891 218.716 168.017L231.797 239.467C231.817 239.593 231.737 239.719 231.618 239.74C231.608 239.74 231.588 239.74 231.578 239.74V239.74Z" fill="white"/>
<path d="M244.093 294.047L234.868 243.69C234.849 243.564 234.928 243.438 235.047 243.417C235.167 243.396 235.286 243.48 235.306 243.606L244.53 293.963L244.093 294.058V294.047Z" fill="white"/>
<path d="M238.377 106.734C238.268 106.734 238.179 106.65 238.159 106.545L226.141 40.9038C226.121 40.7778 226.2 40.6517 226.32 40.6307C226.439 40.6097 226.558 40.6937 226.578 40.8198L238.596 106.461C238.616 106.587 238.536 106.713 238.417 106.734C238.407 106.734 238.387 106.734 238.377 106.734Z" fill="white"/>
<path d="M256.667 230.601C256.558 230.601 256.469 230.517 256.449 230.412L237.184 125.19C237.165 125.064 237.244 124.938 237.363 124.917C237.483 124.896 237.602 124.98 237.622 125.106L256.886 230.328C256.906 230.454 256.826 230.58 256.707 230.601C256.697 230.601 256.677 230.601 256.667 230.601V230.601Z" fill="white"/>
<path d="M268.029 271.043C267.92 271.043 267.83 270.959 267.81 270.854L255.176 201.851C255.157 201.725 255.236 201.599 255.355 201.578C255.475 201.546 255.594 201.641 255.614 201.767L268.248 270.77C268.268 270.896 268.188 271.022 268.069 271.043C268.059 271.043 268.039 271.043 268.029 271.043V271.043Z" fill="white"/>
<path d="M278.437 299.814C278.327 299.814 278.238 299.73 278.218 299.625L274.103 277.167C274.083 277.041 274.162 276.915 274.282 276.894C274.401 276.873 274.52 276.957 274.54 277.083L278.655 299.541C278.675 299.667 278.596 299.793 278.476 299.814C278.466 299.814 278.447 299.814 278.437 299.814V299.814Z" fill="white"/>
<path d="M294.729 74.4861C294.619 74.4861 294.53 74.4021 294.51 74.2971L287.154 34.118C287.134 33.992 287.214 33.8659 287.333 33.8449C287.452 33.8239 287.572 33.9079 287.592 34.034L294.947 74.213C294.967 74.3391 294.888 74.4651 294.768 74.4861C294.758 74.4861 294.739 74.4861 294.729 74.4861V74.4861Z" fill="white"/>
<path d="M311.329 137.092C311.22 137.092 311.13 137.008 311.11 136.903L299.888 75.5891C299.868 75.463 299.947 75.337 300.067 75.316C300.186 75.295 300.305 75.379 300.325 75.505L311.548 136.819C311.568 136.945 311.488 137.071 311.369 137.092C311.359 137.092 311.339 137.092 311.329 137.092V137.092Z" fill="white"/>
<path d="M322.154 260.234C322.045 260.234 321.955 260.15 321.935 260.045L303.725 160.611C303.705 160.485 303.784 160.359 303.904 160.338C304.023 160.306 304.142 160.401 304.162 160.527L322.373 259.961C322.392 260.087 322.313 260.213 322.194 260.234C322.184 260.234 322.164 260.234 322.154 260.234V260.234Z" fill="white"/>
<path d="M339.599 320.875L330.086 268.921C330.066 268.795 330.146 268.669 330.265 268.648C330.384 268.627 330.504 268.711 330.524 268.837L340.036 320.791L339.599 320.886V320.875Z" fill="white"/>
<path d="M321.756 48.8556C321.647 48.8556 321.557 48.7716 321.538 48.6665L318.804 33.7189L319.241 33.6243L321.975 48.572C321.995 48.698 321.915 48.8241 321.796 48.8451C321.786 48.8451 321.766 48.8451 321.756 48.8451V48.8556Z" fill="white"/>
<path d="M335.683 169.393C335.573 169.393 335.484 169.309 335.464 169.204L319.559 82.3224C319.54 82.1963 319.619 82.0702 319.738 82.0492C319.858 82.0282 319.977 82.1123 319.997 82.2383L335.901 169.12C335.921 169.246 335.842 169.372 335.722 169.393C335.712 169.393 335.692 169.393 335.683 169.393V169.393Z" fill="white"/>
<path d="M345.722 189.677C345.613 189.677 345.523 189.592 345.504 189.487L338.844 153.111C338.824 152.985 338.903 152.859 339.023 152.838C339.142 152.817 339.261 152.901 339.281 153.027L345.941 189.403C345.961 189.529 345.881 189.655 345.762 189.677C345.752 189.677 345.732 189.677 345.722 189.677V189.677Z" fill="white"/>
<path d="M357.293 297.335C357.183 297.335 357.094 297.251 357.074 297.146L341.955 214.582C341.935 214.456 342.015 214.33 342.134 214.309C342.253 214.278 342.372 214.372 342.392 214.498L357.511 297.062C357.531 297.188 357.452 297.314 357.333 297.335C357.323 297.335 357.303 297.335 357.293 297.335V297.335Z" fill="white"/>
<path d="M380.622 337.094L377.084 317.745C377.064 317.619 377.143 317.493 377.263 317.472C377.382 317.441 377.501 317.535 377.521 317.661L381.06 337.01L380.622 337.105V337.094Z" fill="white"/>
<path d="M358.426 68.3096C358.317 68.3096 358.227 68.2256 358.207 68.1205L355.494 53.2884L355.931 53.1939L358.645 68.026C358.664 68.152 358.585 68.2781 358.466 68.2991C358.456 68.2991 358.436 68.2991 358.426 68.2991V68.3096Z" fill="white"/>
<path d="M368.654 123.163C368.545 123.163 368.456 123.079 368.436 122.974L359.927 76.503C359.907 76.3769 359.987 76.2508 360.106 76.2298C360.225 76.2088 360.344 76.2929 360.364 76.4189L368.873 122.89C368.893 123.016 368.813 123.142 368.694 123.163C368.684 123.163 368.664 123.163 368.654 123.163V123.163Z" fill="white"/>
<path d="M376.785 192.534C376.676 192.534 376.587 192.45 376.567 192.345L366.477 137.228C366.458 137.102 366.537 136.976 366.656 136.955C366.776 136.934 366.895 137.018 366.915 137.144L377.004 192.261C377.024 192.387 376.945 192.513 376.825 192.534C376.815 192.534 376.795 192.534 376.785 192.534V192.534Z" fill="white"/>
<path d="M367.024 236.221C366.915 236.221 366.825 236.137 366.806 236.032L359.957 198.626C359.937 198.5 360.016 198.374 360.136 198.353C360.255 198.322 360.374 198.416 360.394 198.542L367.243 235.948C367.263 236.074 367.183 236.2 367.064 236.221C367.054 236.221 367.034 236.221 367.024 236.221V236.221Z" fill="white"/>
<path d="M257.015 29.7797C256.906 29.7797 256.816 29.6957 256.797 29.5907L251.518 0.756313L251.956 0.661774L257.234 29.4856C257.254 29.6117 257.174 29.7377 257.055 29.7587C257.045 29.7587 257.025 29.7587 257.015 29.7587V29.7797Z" fill="white"/>
<path d="M276.946 156.084C276.836 156.084 276.747 156 276.727 155.895L260.922 69.6016C260.902 69.4756 260.982 69.3495 261.101 69.3285C261.22 69.297 261.339 69.3916 261.359 69.5176L277.164 155.811C277.184 155.937 277.105 156.063 276.985 156.084C276.975 156.084 276.955 156.084 276.946 156.084V156.084Z" fill="white"/>
<path d="M290.554 228.385C290.444 228.385 290.355 228.301 290.335 228.196L276.647 153.437C276.627 153.311 276.707 153.185 276.826 153.163C276.946 153.142 277.065 153.227 277.085 153.353L290.772 228.112C290.792 228.238 290.713 228.364 290.594 228.385C290.584 228.385 290.564 228.385 290.554 228.385V228.385Z" fill="white"/>
<path d="M304.371 296.274L291.955 228.458C291.935 228.332 292.015 228.206 292.134 228.185C292.254 228.164 292.373 228.248 292.393 228.374L304.808 296.19L304.371 296.285V296.274Z" fill="white"/>
<path d="M168.666 47.5531C168.557 47.5531 168.468 47.469 168.448 47.364L163.806 22.0171L164.243 21.9225L168.885 47.2694C168.905 47.3955 168.825 47.5215 168.706 47.5425C168.696 47.5425 168.676 47.5425 168.666 47.5425V47.5531Z" fill="white"/>
<path d="M178.795 121.356C178.686 121.356 178.597 121.272 178.577 121.167L168.348 65.3054C168.328 65.1793 168.408 65.0532 168.527 65.0322C168.646 65.0112 168.766 65.0953 168.786 65.2213L179.014 121.083C179.034 121.209 178.955 121.335 178.835 121.356C178.825 121.356 178.805 121.356 178.795 121.356Z" fill="white"/>
<path d="M195.714 192.156C195.604 192.156 195.515 192.071 195.495 191.966L180.774 111.587C180.754 111.461 180.833 111.335 180.952 111.314C181.072 111.293 181.191 111.377 181.211 111.503L195.932 191.882C195.952 192.008 195.873 192.135 195.754 192.156C195.744 192.156 195.724 192.156 195.714 192.156Z" fill="white"/>
<path d="M210.455 290.108C210.346 290.108 210.256 290.024 210.236 289.919L195.386 208.794C195.366 208.668 195.445 208.542 195.565 208.521C195.694 208.5 195.803 208.584 195.823 208.71L210.674 289.835C210.694 289.961 210.614 290.087 210.495 290.108C210.485 290.108 210.465 290.108 210.455 290.108Z" fill="white"/>
<path d="M219.292 291.821L215.654 271.946C215.634 271.82 215.714 271.694 215.833 271.673C215.952 271.642 216.071 271.736 216.091 271.862L219.729 291.736L219.292 291.831V291.821Z" fill="white"/>
</g>
<path d="M361.557 102.239H356.557V357.42H361.557V102.239Z" fill="#263238"/>
<path opacity="0.3" d="M361.567 102.239H356.567V357.42H361.567V102.239Z" fill="white"/>
<path opacity="0.2" d="M361.567 102.239V137.144L356.567 131.861V102.239H361.567Z" fill="black"/>
<path d="M362.591 74.8433H345.285L349.271 106.986H360.603H367.442L372.293 74.8433H362.591Z" fill="#263238"/>
<path opacity="0.5" d="M362.591 74.8433H345.285L349.271 106.986H360.603H367.442L372.293 74.8433H362.591Z" fill="white"/>
<path opacity="0.2" d="M362.949 104.886L364.46 76.9441H369.957L365.742 104.886H362.949Z" fill="white"/>
<path opacity="0.5" d="M360.603 106.986H349.261L345.285 74.8433H362.591L360.603 106.986Z" fill="white"/>
<path opacity="0.5" d="M351.01 104.886L347.551 76.9441H360.464L358.734 104.886H351.01Z" fill="white"/>
<path d="M338.516 76.4189L359.947 56.1246L379.609 76.4189H338.516Z" fill="#263238"/>
<path opacity="0.3" d="M338.516 76.4189L359.947 56.1246L379.609 76.4189H338.516Z" fill="white"/>
<path opacity="0.2" d="M359.947 56.1246L365.106 76.4189H338.516L359.947 56.1246Z" fill="white"/>
<path d="M336.199 72.8369H382.799L380.632 76.4189H337.581L336.199 72.8369Z" fill="#263238"/>
<path opacity="0.2" d="M382.799 72.8369L380.642 76.4189H337.581L336.199 72.8369H382.799Z" fill="white"/>
<path opacity="0.2" d="M364.897 72.8369L363.406 76.4189H337.581L336.199 72.8369H364.897Z" fill="white"/>
<path d="M305.086 278.238H352.491L351.338 271.011C350.851 267.986 348.376 265.77 345.474 265.77H312.094C309.192 265.77 306.717 267.986 306.239 271.011L305.086 278.238Z" fill="#FAFAFA"/>
<path opacity="0.2" d="M305.086 278.238H341.557L340.404 271.011C339.917 267.986 337.442 265.77 334.539 265.77H312.094C309.192 265.77 306.717 267.986 306.239 271.011L305.086 278.238Z" fill="white"/>
<path opacity="0.2" d="M305.086 278.238H352.491L351.338 271.011C350.851 267.986 348.376 265.77 345.474 265.77H312.094C309.192 265.77 306.717 267.986 306.239 271.011L305.086 278.238Z" fill="white"/>
<path opacity="0.2" d="M311.886 269.887H333.486C334.291 269.887 334.977 270.486 335.136 271.316L335.861 275.203H309.51L310.235 271.316C310.394 270.486 311.08 269.887 311.886 269.887V269.887Z" fill="black"/>
<path d="M304.619 278.343L309.589 356.716H348.973L352.949 278.343H304.619Z" fill="#FAFAFA"/>
<path opacity="0.2" d="M304.619 278.343L309.589 356.716H338.038L342.015 278.343H304.619Z" fill="white"/>
<path opacity="0.2" d="M304.619 278.343L309.589 356.716H348.973L352.949 278.343H304.619Z" fill="white"/>
<path d="M352.989 275.192H304.579C303.877 275.192 303.307 275.794 303.307 276.537V281.432C303.307 282.174 303.877 282.776 304.579 282.776H352.989C353.691 282.776 354.261 282.174 354.261 281.432V276.537C354.261 275.794 353.691 275.192 352.989 275.192Z" fill="#FAFAFA"/>
<path opacity="0.2" d="M342.054 275.192H304.579C303.877 275.192 303.307 275.794 303.307 276.537V281.432C303.307 282.174 303.877 282.776 304.579 282.776H342.054C342.757 282.776 343.327 282.174 343.327 281.432V276.537C343.327 275.794 342.757 275.192 342.054 275.192Z" fill="white"/>
<path d="M194.59 357.42H198.686L190.306 307.472H186.211L194.59 357.42Z" fill="#263238"/>
<path d="M67.2955 357.42H71.3909L63.0113 307.472H58.9159L67.2955 357.42Z" fill="#263238"/>
<path opacity="0.3" d="M194.59 357.42H198.686L190.306 307.472H186.211L194.59 357.42Z" fill="white"/>
<path opacity="0.3" d="M67.2955 357.42H71.3909L63.0113 307.472H58.9159L67.2955 357.42Z" fill="white"/>
<path d="M31.6497 336.832H192.443V332.451H31.6497V336.832Z" fill="#263238"/>
<path opacity="0.5" d="M31.6497 336.832H192.443V332.451H31.6497V336.832Z" fill="white"/>
<path d="M156.808 357.42H152.712L161.092 307.472H165.187L156.808 357.42Z" fill="#263238"/>
<path d="M29.5126 357.42H25.4172L33.7969 307.472H37.8923L29.5126 357.42Z" fill="#263238"/>
<path opacity="0.3" d="M156.808 357.42H152.712L161.092 307.472H165.187L156.808 357.42Z" fill="white"/>
<path opacity="0.3" d="M29.5126 357.42H25.4172L33.7969 307.472H37.8923L29.5126 357.42Z" fill="white"/>
<path d="M66.6693 305.529H70.7448L77.5638 265.444H73.4883L66.6693 305.529Z" fill="#263238"/>
<path opacity="0.3" d="M66.6693 305.529H70.7448L77.5638 265.444H73.4883L66.6693 305.529Z" fill="white"/>
<path d="M184.859 305.529H188.935L195.763 265.444H191.678L184.859 305.529Z" fill="#263238"/>
<path d="M125.764 305.529H129.84L136.659 265.444H132.583L125.764 305.529Z" fill="#263238"/>
<path opacity="0.3" d="M184.859 305.529H188.935L195.763 265.444H191.678L184.859 305.529Z" fill="white"/>
<path opacity="0.3" d="M125.764 305.529H129.84L136.659 265.444H132.583L125.764 305.529Z" fill="white"/>
<path d="M59.6216 268.175H203.924L205.207 260.675H60.9039L59.6216 268.175Z" fill="#263238"/>
<path d="M57.3154 281.747H201.618L202.891 274.247H58.5878L57.3154 281.747Z" fill="#263238"/>
<path d="M55.0094 295.318H199.302L200.585 287.818H56.2818L55.0094 295.318Z" fill="#263238"/>
<path d="M24.5723 309.541H198.249V304.352H24.5723V309.541Z" fill="#263238"/>
<path opacity="0.5" d="M59.6216 268.175H203.924L205.207 260.675H60.9039L59.6216 268.175Z" fill="white"/>
<path opacity="0.5" d="M57.3154 281.747H201.618L202.891 274.247H58.5878L57.3154 281.747Z" fill="white"/>
<path opacity="0.5" d="M55.0094 295.318H199.302L200.585 287.818H56.2818L55.0094 295.318Z" fill="white"/>
<path opacity="0.5" d="M24.5723 309.541H198.249V304.352H24.5723V309.541Z" fill="white"/>
<path opacity="0.2" d="M24.5722 309.541H164.75V304.352H24.5722V309.541Z" fill="white"/>
<path d="M198.169 154.981C198.169 154.981 198.09 155.149 198 155.485C197.911 155.779 197.801 156.157 197.702 156.567C197.503 157.397 197.334 158.342 197.175 159.319C196.877 161.283 196.598 163.374 196.33 165.506C196.042 167.638 195.773 169.823 195.406 172.05C195.008 174.298 194.65 176.557 193.825 179.12L193.477 180.118C193.328 180.475 193.199 180.811 193.03 181.189C192.831 181.578 192.682 181.924 192.404 182.365C192.265 182.586 192.165 182.765 191.996 183.006C191.827 183.237 191.638 183.479 191.459 183.7C191.012 184.214 190.008 185.296 188.189 185.611C187.314 185.758 186.38 185.611 185.734 185.37C185.396 185.244 185.078 185.097 184.859 184.96L184.501 184.729L184.223 184.519C183.517 183.941 183.139 183.447 182.841 183.017C182.553 182.597 182.334 182.208 182.155 181.861C181.45 180.454 181.092 179.288 180.734 178.122C180.396 176.966 180.137 175.832 179.889 174.718C178.955 170.244 178.458 165.895 178.229 161.409L183.01 160.432C184.412 164.435 185.764 168.531 187.215 172.344C187.573 173.29 187.96 174.225 188.348 175.086C188.726 175.937 189.153 176.788 189.491 177.239C189.571 177.355 189.64 177.418 189.66 177.428C189.68 177.428 189.66 177.344 189.362 177.082L189.243 176.987C189.183 176.945 189.113 176.893 189.054 176.861C188.944 176.798 188.746 176.693 188.537 176.609C188.129 176.452 187.463 176.336 186.837 176.441C185.535 176.662 184.948 177.386 184.829 177.491C184.799 177.502 184.78 177.523 184.77 177.544C184.76 177.565 184.77 177.502 184.77 177.491C184.77 177.491 184.819 177.323 184.859 177.239L184.998 176.809L185.137 176.262C185.515 174.687 185.793 172.638 186.002 170.622L186.618 164.288C186.847 162.124 187.046 159.918 187.424 157.607C187.612 156.451 187.821 155.264 188.129 153.993C188.467 152.701 188.785 151.388 189.819 149.529L198.169 154.991V154.981Z" fill="#EEC1BB"/>
<path d="M195.525 143.993C192.692 144.844 188.805 146.682 185.227 163.279L194.929 171.441L195.535 143.993H195.525Z" fill="#FAFAFA"/>
<path opacity="0.7" d="M195.525 143.993L194.929 171.441L193.756 170.454L187.493 165.18L185.227 163.279C188.805 146.682 192.692 144.844 195.525 143.993V143.993Z" fill="white"/>
<path opacity="0.1" d="M193.756 170.454L187.493 165.18C189.223 159.571 192.503 154.981 192.503 154.981C194.531 160.107 194.61 165.916 193.756 170.454V170.454Z" fill="black"/>
<path d="M182.861 161.472C182.861 161.472 184.7 154.823 184.302 153.163C183.905 151.504 180.634 146.693 180.634 146.693L174.869 150.947C174.869 150.947 175.605 160.327 178.666 163.29L182.861 161.472V161.472Z" fill="#EEC1BB"/>
<path d="M215.465 202.082L212.403 225.181L212.026 228.028L205.157 255.591L199.064 280.035C197.692 301.232 186.29 353.166 186.29 353.166L176.062 352.546C176.062 352.546 182.811 286.81 183.676 278.522C184.163 273.911 192.155 217.481 192.155 217.481L192.463 199.414L215.465 202.082V202.082Z" fill="#FAFAFA"/>
<path opacity="0.2" d="M212.403 225.181L212.026 228.028L205.157 255.591C201.608 245.549 206.916 228.921 206.916 228.921C209.511 228.858 210.087 224.614 212.403 225.181V225.181Z" fill="black"/>
<path d="M205.356 359.584C205.356 359.584 215.664 356.37 216.419 352.084C216.489 351.664 216.827 351.38 217.254 351.454L224.739 352.777C225.087 352.84 225.395 353.124 225.505 353.481L227.791 361.181L225.674 361.254L224.888 360.151L224.004 361.307C212.513 361.685 207.543 361.716 205.246 361.044C204.889 359.983 205.366 359.584 205.366 359.584H205.356Z" fill="#263238"/>
<path d="M165.575 359.584C165.575 359.584 175.883 356.37 176.638 352.084C176.708 351.664 177.046 351.38 177.473 351.454L184.958 352.777C185.306 352.84 185.615 353.124 185.724 353.481L188.01 361.181L185.893 361.254L185.108 360.151L184.223 361.307C172.732 361.685 167.762 361.716 165.466 361.044C165.108 359.983 165.585 359.584 165.585 359.584H165.575Z" fill="#263238"/>
<path d="M226.191 197.66C226.191 197.66 228.189 215.811 228.209 223.143C228.248 234.33 225.207 273.764 225.207 273.764C225.207 273.764 226.539 335.161 225.395 353.124H216.022L210.127 287.923L206.728 234.12L199.66 199.509L226.191 197.66V197.66Z" fill="#FAFAFA"/>
<path d="M236.608 155.18C237.751 160.622 238.775 166.063 239.709 171.536C240.177 174.277 240.624 177.019 241.031 179.781C241.459 182.544 241.837 185.296 242.165 188.195C242.493 191.42 242.433 194.225 242.373 197.093C242.314 199.929 242.145 202.744 241.966 205.538C241.578 211.137 241.002 216.673 240.216 222.229L235.356 221.977C235.057 216.463 234.809 210.916 234.56 205.433C234.451 202.691 234.292 199.96 234.133 197.25C233.964 194.572 233.745 191.83 233.377 189.561C232.413 184.351 231.23 178.899 230.157 173.521C229.053 168.132 227.99 162.712 226.986 157.292L236.598 155.17L236.608 155.18Z" fill="#EEC1BB"/>
<path d="M226.747 202.544C226.787 198.584 226.668 191.872 226.966 183.679C227.135 179.088 227.433 174.025 227.98 168.71C228.725 161.451 229.898 153.741 231.797 146.168C231.797 146.168 227.712 144.991 223.069 144.214C222.155 144.067 221.221 143.92 220.296 143.815C215.893 143.289 209.491 142.691 205.585 142.796C204.978 142.806 204.382 142.838 203.795 142.88C199.352 143.174 195.535 143.993 195.535 143.993C195.535 143.993 186.887 163.93 191.976 202.534H226.757L226.747 202.544Z" fill="#FAFAFA"/>
<path opacity="0.7" d="M231.807 146.168C230.614 150.926 229.7 155.737 229.004 160.453C228.596 163.248 228.258 166.01 227.98 168.71C227.682 171.662 227.453 174.529 227.294 177.292C227.155 179.498 227.055 181.63 226.976 183.679C226.668 191.872 226.787 198.574 226.747 202.534H191.966C186.887 163.93 195.525 143.993 195.525 143.993C195.525 143.993 199.352 143.174 203.795 142.88C204.382 142.838 204.978 142.806 205.574 142.796C209.491 142.691 215.883 143.279 220.296 143.815C221.22 143.93 222.155 144.067 223.069 144.214C227.711 144.991 231.807 146.168 231.807 146.168Z" fill="white"/>
<path d="M207.235 150.012C206.231 152.691 202.503 177.533 202.284 186.126L204.481 190.653L207.274 186.441C206.986 174.708 207.533 153.594 208.616 150.159L207.235 150.012V150.012Z" fill="#263238"/>
<path d="M207.195 152.218L206.191 148.71L208.586 147.785L210.276 149.035L207.195 152.218Z" fill="#263238"/>
<path d="M219.759 126.22C218.566 131.157 217.155 140.254 220.296 143.815C217.731 146.283 214.014 148.279 208.706 147.796C204.64 147.418 204.59 144.403 205.585 142.796C210.932 141.829 211.012 137.691 210.306 133.741L219.769 126.23L219.759 126.22Z" fill="#EEC1BB"/>
<path d="M208.586 147.785C208.586 147.785 209.998 149.981 211.678 152.166C214.451 150.874 221.002 147.344 221.012 143.605C220.743 142.491 219.421 141.724 219.421 141.724C219.421 141.724 215.187 145.39 208.586 147.785V147.785Z" fill="white"/>
<path d="M208.586 147.785C208.586 147.785 206.36 149.424 204.819 151.609C202.99 150.033 204.571 143.195 205.356 142.491C206.986 141.567 208.04 141.777 208.04 141.777C208.04 141.777 205.575 146.735 208.586 147.785V147.785Z" fill="white"/>
<path opacity="0.2" d="M215.893 129.287L210.296 133.73C210.465 134.665 210.594 135.611 210.604 136.525C212.642 136.357 215.535 134.214 215.863 131.997C216.032 130.894 216.042 129.823 215.893 129.287Z" fill="black"/>
<path d="M205.903 110.947C204.412 113.216 203.298 118.52 207.115 117.943C210.942 117.354 208.457 107.05 205.903 110.947Z" fill="#263238"/>
<path d="M222.056 120.001C220.515 126.588 219.928 130.537 216.151 133.31C210.465 137.481 203.209 132.838 202.861 125.873C202.543 119.602 205.117 109.886 211.747 108.489C218.288 107.113 223.596 113.415 222.056 120.001V120.001Z" fill="#EEC1BB"/>
<path d="M212.165 119.917C212.076 120.464 211.718 120.842 211.39 120.779C211.052 120.705 210.863 120.211 210.952 119.676C211.042 119.13 211.4 118.751 211.728 118.814C212.066 118.888 212.254 119.382 212.165 119.917Z" fill="#263238"/>
<path d="M206.36 118.73C206.27 119.277 205.922 119.655 205.585 119.592C205.247 119.518 205.058 119.024 205.147 118.489C205.237 117.953 205.585 117.564 205.922 117.627C206.26 117.701 206.449 118.195 206.36 118.73Z" fill="#263238"/>
<path d="M208.159 119.371C208.159 119.371 206.439 122.144 204.889 123.342C205.634 124.371 207.254 124.277 207.254 124.277L208.159 119.371Z" fill="#D4827D"/>
<path d="M209.65 126.924C209.431 126.913 209.213 126.882 208.974 126.829C208.895 126.808 208.835 126.724 208.855 126.64C208.875 126.556 208.954 126.493 209.034 126.514C211.29 126.976 212.632 125.527 212.642 125.506C212.702 125.443 212.801 125.443 212.861 125.506C212.92 125.569 212.92 125.674 212.861 125.737C212.811 125.8 211.658 127.039 209.65 126.924V126.924Z" fill="#263238"/>
<path d="M214.302 118.3C214.193 118.3 214.093 118.226 214.044 118.121C213.427 116.819 212.304 116.661 212.294 116.661C212.125 116.64 212.006 116.482 212.026 116.304C212.046 116.125 212.195 115.999 212.364 116.02C212.423 116.02 213.825 116.23 214.59 117.837C214.67 117.995 214.61 118.195 214.451 118.268C214.402 118.289 214.352 118.3 214.302 118.3V118.3Z" fill="#263238"/>
<path d="M204.223 116.104C204.163 116.104 204.103 116.083 204.054 116.041C203.915 115.936 203.885 115.726 203.984 115.59C204.988 114.15 206.4 114.245 206.459 114.234C206.628 114.245 206.758 114.403 206.748 114.581C206.748 114.76 206.598 114.896 206.429 114.886C206.37 114.886 205.286 114.823 204.481 115.978C204.422 116.073 204.322 116.115 204.223 116.104V116.104Z" fill="#263238"/>
<path d="M206.529 112.081C206.529 112.081 205.555 111.619 206.161 108.573C206.767 105.526 209.451 103.814 214.63 104.36C219.809 104.907 222.334 111.409 222.334 111.409C222.334 111.409 224.59 113.951 225.246 115.999C225.902 118.058 221.509 125.401 221.509 125.401L218.368 125.443C218.368 125.443 216.996 117.533 218.298 114.844C219.61 112.165 213.616 110.915 210.883 112.365C208.139 113.814 206.539 112.06 206.539 112.06L206.529 112.081Z" fill="#263238"/>
<path d="M223.527 126.031C222.722 127.648 221.29 128.72 219.928 129.13C217.871 129.749 216.817 127.806 217.354 125.737C217.841 123.877 219.501 121.314 221.568 121.598C223.616 121.882 224.441 124.172 223.527 126.02V126.031Z" fill="#EEC1BB"/>
<path d="M194.968 203.269H192.125V206.788H194.968V203.269Z" fill="#263238"/>
<path d="M227.165 203.269H215.217V206.788H227.165V203.269Z" fill="#263238"/>
<path d="M213.735 203.269H196.36V206.788H213.735V203.269Z" fill="#263238"/>
<path d="M208.02 203.322H202.076V206.746H208.02V203.322Z" fill="#E0E0E0"/>
<path d="M227.632 235.265C227.632 235.265 231.33 228.259 238.169 228.259C244.441 228.259 247.692 234.645 247.692 234.645" stroke="#263238" stroke-width="2" stroke-miterlimit="10"/>
<path d="M258.397 236.62V267.913C258.397 269.572 257.115 270.917 255.544 270.917H218.576C217.006 270.917 215.724 269.572 215.724 267.913V236.62C215.724 234.95 217.006 233.606 218.576 233.606H255.544C257.115 233.606 258.397 234.95 258.397 236.62V236.62Z" fill="#263238"/>
<path opacity="0.1" d="M258.397 236.62V267.913C258.397 269.572 257.115 270.917 255.544 270.917H219.74C221.31 270.917 222.592 269.572 222.592 267.913V236.62C222.592 234.95 221.31 233.606 219.74 233.606H255.544C257.115 233.606 258.397 234.95 258.397 236.62V236.62Z" fill="white"/>
<path d="M221.847 236.715V252.009C221.847 252.997 222.602 253.795 223.537 253.795H257.701C258.636 253.795 259.391 252.997 259.391 252.009V236.62C259.391 234.961 258.119 233.606 256.538 233.606H219.571C220.912 233.973 221.847 235.255 221.847 236.715V236.715Z" fill="#263238"/>
<path opacity="0.2" d="M221.847 236.715V252.009C221.847 252.997 222.602 253.795 223.537 253.795H257.701C258.636 253.795 259.391 252.997 259.391 252.009V236.62C259.391 234.961 258.119 233.606 256.538 233.606H219.571C220.912 233.973 221.847 235.255 221.847 236.715V236.715Z" fill="white"/>
<path d="M243.576 260.948C242.711 260.948 242.006 260.202 242.006 259.289V251.547H245.147V259.289C245.147 260.202 244.441 260.948 243.576 260.948V260.948Z" fill="#263238"/>
<path d="M245.157 255.192H241.996C241.891 255.192 241.807 255.281 241.807 255.392V257.776C241.807 257.886 241.891 257.976 241.996 257.976H245.157C245.261 257.976 245.346 257.886 245.346 257.776V255.392C245.346 255.281 245.261 255.192 245.157 255.192Z" fill="white"/>
<path d="M240.296 220.78L242.701 227.24L234.401 226.683C234.401 226.683 233.517 220.706 236.489 219.887L240.306 220.78H240.296Z" fill="#EEC1BB"/>
<path d="M241.17 232.702L234.332 231.904L234.401 226.683L242.701 227.24L241.17 232.702Z" fill="#EEC1BB"/>
<path d="M215.863 45.5782C215.634 48.4459 214.74 51.0825 213.905 53.7296L211.4 61.6919L206.4 77.6164L196.38 109.455L186.271 141.262L181.161 157.145L180.525 159.13L180.207 160.117L180.048 160.622C179.969 160.821 179.909 161.031 179.809 161.22C179.094 162.806 177.642 163.962 176.012 164.267C175.207 164.424 174.352 164.372 173.567 164.119C173.179 163.993 172.921 163.888 172.593 163.773C172.225 163.636 171.837 163.458 171.489 163.237C170.078 162.334 169.144 160.706 169.014 158.972C168.975 158.395 169.372 157.89 169.929 157.838C170.476 157.796 170.953 158.216 171.002 158.794C171.092 159.855 171.688 160.863 172.553 161.409C172.772 161.546 172.99 161.64 173.249 161.735C173.547 161.84 173.915 161.977 174.153 162.04C174.641 162.187 175.147 162.218 175.635 162.113C176.619 161.914 177.493 161.199 177.911 160.243C177.971 160.128 178 160.002 178.05 159.876L178.209 159.382L178.517 158.384L179.143 156.388L184.133 140.464L194.213 108.646L204.372 76.8601L209.461 60.9671L212.006 53.0258C212.851 50.3787 213.636 47.7106 215.097 45.2736C215.217 45.0635 215.475 45.011 215.674 45.1371C215.813 45.2316 215.883 45.3892 215.863 45.5467V45.5782Z" fill="#263238"/>
<path d="M214.6 48.1203C214.6 48.1203 167.146 38.6139 123.17 63.0679C123.17 63.0679 129.81 59.5805 144.551 70.6415C144.551 70.6415 162.931 69.8432 176.937 82.1123C176.937 82.1123 193.646 83.6459 202.344 86.7342C211.042 89.8119 225.256 99.2343 225.256 99.2343C243.437 98.373 257.642 110.705 257.642 110.705C275.723 111.262 279.023 118.279 279.023 118.279C257.88 70.7571 214.59 48.1203 214.59 48.1203H214.6Z" fill="#FAFAFA"/>
<path opacity="0.1" d="M257.652 110.716C257.652 110.716 243.447 98.3835 225.266 99.2448C232.065 71.6184 215.326 49.0762 214.63 48.1518C215.624 48.7085 247.85 66.986 257.652 110.726V110.716Z" fill="black"/>
<path opacity="0.1" d="M214.571 48.1203C213.477 48.4249 187.275 55.7464 176.947 82.1228C162.931 69.8537 144.561 70.6521 144.561 70.6521C177.314 41.9963 213.457 47.9312 214.571 48.1203Z" fill="black"/>
<path opacity="0.2" d="M278.993 118.205C278.556 117.428 274.6 111.23 257.642 110.705C248.228 68.6457 218.059 50.1266 214.869 48.2673C218.596 50.2842 258.824 72.963 278.983 118.205H278.993Z" fill="black"/>
<path opacity="0.2" d="M214.292 48.0678C210.684 47.5215 176.052 43.0887 144.561 70.6521C130.734 60.2738 124.044 62.7003 123.249 63.0364C165.137 39.7799 210.157 47.3114 214.292 48.0678V48.0678Z" fill="black"/>
<path opacity="0.1" d="M229.004 160.453C228.596 163.248 228.258 166.01 227.98 168.71C227.682 171.662 227.453 174.529 227.294 177.292C221.608 168.563 225.405 156.231 225.405 156.231C225.405 156.231 226.896 157.911 229.004 160.453Z" fill="black"/>
<path d="M233.656 146.913C239.173 149.939 243.308 169.025 243.308 169.025L227.93 173.258C227.93 173.258 224.928 164.939 223.676 156.556C222.314 147.428 226.976 143.247 233.656 146.903V146.913Z" fill="#FAFAFA"/>
<path opacity="0.7" d="M233.656 146.913C239.173 149.939 243.308 169.025 243.308 169.025L227.93 173.258C227.93 173.258 224.928 164.939 223.676 156.556C222.314 147.428 226.976 143.247 233.656 146.903V146.913Z" fill="white"/>
</svg>
