<svg width="406" height="372" viewBox="0 0 406 372" fill="none" xmlns="http://www.w3.org/2000/svg">
<g clip-path="url(#clip0_214_3566)">
<path d="M290.671 72.6645C303.543 59.8113 303.543 38.9721 290.671 26.1189C277.799 13.2658 256.93 13.2658 244.058 26.1189C231.186 38.9721 231.186 59.8113 244.058 72.6645C256.93 85.5176 277.799 85.5177 290.671 72.6645Z" fill="#F5F5F5"/>
<path d="M329.263 35.0528C329.263 32.0926 326.859 29.6924 323.895 29.6924C323.354 29.6924 322.843 29.7724 322.352 29.9224C322.432 29.3824 322.472 28.8323 322.472 28.2723C322.472 22.0018 317.385 16.9214 311.105 16.9214C310.394 16.9214 309.693 16.9914 309.012 17.1214C307.269 14.2612 304.124 12.351 300.529 12.351C295.081 12.351 290.664 16.7214 290.584 22.1318C290.524 22.1318 290.474 22.1318 290.413 22.1318C285.356 22.1318 281.25 26.2221 281.25 31.2825C281.25 36.3429 285.346 40.4333 290.413 40.4333H324.045C326.939 40.3433 329.263 37.9831 329.263 35.0728V35.0528Z" fill="#EBEBEB"/>
<path d="M251.975 71.5958C251.975 68.6355 249.571 66.2354 246.607 66.2354C246.066 66.2354 245.555 66.3154 245.064 66.4654C245.144 65.9253 245.184 65.3753 245.184 64.8152C245.184 58.5447 240.097 53.4643 233.817 53.4643C233.106 53.4643 232.405 53.5343 231.724 53.6643C229.981 50.8041 226.836 48.894 223.241 48.894C217.793 48.894 213.376 53.2643 213.296 58.6747C213.236 58.6747 213.186 58.6747 213.125 58.6747C208.068 58.6747 203.961 62.7651 203.961 67.8255C203.961 72.8859 208.058 76.9762 213.125 76.9762H246.757C249.651 76.8862 251.975 74.526 251.975 71.6158V71.5958Z" fill="#EBEBEB"/>
<path d="M90.4682 48.3739C90.4682 45.4137 88.0645 43.0135 85.1 43.0135C84.5591 43.0135 84.0483 43.0935 83.5576 43.2435C83.6377 42.7035 83.6778 42.1534 83.6778 41.5934C83.6778 35.3229 78.59 30.2425 72.3104 30.2425C71.5993 30.2425 70.8983 30.3125 70.2172 30.4425C68.4746 27.5822 65.3298 25.6721 61.7343 25.6721C56.286 25.6721 51.8692 30.0424 51.7891 35.4529C51.729 35.4529 51.6789 35.4529 51.6188 35.4529C46.5611 35.4529 42.4548 39.5432 42.4548 44.6036C42.4548 49.664 46.5511 53.7544 51.6188 53.7544H85.2502C88.1446 53.6643 90.4682 51.3042 90.4682 48.3939V48.3739Z" fill="#EBEBEB"/>
<path d="M382.835 74.9861C382.835 73.1959 381.382 71.7458 379.59 71.7458C379.269 71.7458 378.949 71.7958 378.658 71.8858C378.708 71.5658 378.728 71.2258 378.728 70.8957C378.728 67.1054 375.654 64.0352 371.858 64.0352C371.427 64.0352 371.007 64.0752 370.596 64.1552C369.544 62.4251 367.641 61.275 365.468 61.275C362.173 61.275 359.509 63.9152 359.459 67.1854C359.429 67.1854 359.389 67.1854 359.359 67.1854C356.304 67.1854 353.82 69.6556 353.82 72.7159C353.82 75.7761 356.294 78.2463 359.359 78.2463H379.69C381.442 78.1963 382.845 76.7662 382.845 75.0061L382.835 74.9861Z" fill="#EBEBEB"/>
<path d="M145.392 83.4667C145.392 81.6766 143.94 80.2265 142.147 80.2265C141.827 80.2265 141.506 80.2765 141.216 80.3665C141.266 80.0464 141.286 79.7064 141.286 79.3764C141.286 75.5861 138.211 72.5158 134.415 72.5158C133.985 72.5158 133.564 72.5558 133.153 72.6358C132.102 70.9057 130.199 69.7556 128.025 69.7556C124.73 69.7556 122.066 72.3958 122.016 75.6661C121.986 75.6661 121.946 75.6661 121.916 75.6661C118.861 75.6661 116.378 78.1363 116.378 81.1965C116.378 84.2568 118.851 86.727 121.916 86.727H142.247C144 86.677 145.402 85.2469 145.402 83.4867L145.392 83.4667Z" fill="#EBEBEB"/>
<path d="M314.981 134.051C314.981 131.171 312.637 128.83 309.753 128.83C309.232 128.83 308.731 128.91 308.251 129.05C308.331 128.53 308.371 127.99 308.371 127.45C308.371 121.35 303.413 116.399 297.304 116.399C296.603 116.399 295.922 116.469 295.261 116.589C293.558 113.809 290.503 111.949 286.998 111.949C281.7 111.949 277.403 116.199 277.323 121.47C277.273 121.47 277.213 121.47 277.163 121.47C272.236 121.47 268.25 125.46 268.25 130.371C268.25 135.281 272.236 139.271 277.163 139.271H309.893C312.707 139.181 314.971 136.881 314.971 134.051H314.981Z" fill="#EBEBEB"/>
<path d="M50.6574 111.839C50.6574 110.049 49.2052 108.599 47.4124 108.599C47.0919 108.599 46.7714 108.649 46.481 108.739C46.5311 108.419 46.5511 108.079 46.5511 107.749C46.5511 103.958 43.4764 100.888 39.6806 100.888C39.25 100.888 38.8293 100.928 38.4187 101.008C37.3671 99.278 35.4642 98.1279 33.2909 98.1279C29.9958 98.1279 27.3318 100.768 27.2817 104.038C27.2516 104.038 27.2116 104.038 27.1815 104.038C24.1269 104.038 21.6431 106.509 21.6431 109.569C21.6431 112.629 24.1168 115.099 27.1815 115.099H47.5126C49.2652 115.049 50.6674 113.619 50.6674 111.859L50.6574 111.839Z" fill="#EBEBEB"/>
<path d="M183.57 13.7211C183.57 11.931 182.118 10.4809 180.326 10.4809C180.005 10.4809 179.685 10.5309 179.394 10.6209C179.444 10.3008 179.464 9.96081 179.464 9.63079C179.464 5.84048 176.389 2.77023 172.594 2.77023C172.163 2.77023 171.742 2.81024 171.332 2.89024C170.28 1.1601 168.377 0.0100098 166.204 0.0100098C162.909 0.0100098 160.245 2.65022 160.195 5.92049C160.165 5.92049 160.125 5.92049 160.095 5.92049C157.04 5.92049 154.556 8.40069 154.556 11.4509C154.556 14.5012 157.03 16.9814 160.095 16.9814H180.426C182.178 16.9314 183.58 15.5013 183.58 13.7411L183.57 13.7211Z" fill="#EBEBEB"/>
<path d="M196.931 343.498C304.177 343.498 391.117 338.429 391.117 332.177C391.117 325.924 304.177 320.856 196.931 320.856C89.6844 320.856 2.74414 325.924 2.74414 332.177C2.74414 338.429 89.6844 343.498 196.931 343.498Z" fill="#F5F5F5"/>
<path d="M307.93 306.035C307.93 306.035 317.404 306.035 322.031 303.935C326.658 301.834 327.83 303.304 332.618 303.935C337.395 304.565 342.453 302.384 346.238 302.844C350.024 303.304 354.661 305.725 358.657 304.405C362.653 303.084 365.388 300.884 368.763 304.405C372.128 307.925 380.551 308.555 384.337 306.035C388.122 303.514 394.863 305.615 397.597 306.985C400.331 308.355 406.02 307.565 406.02 307.565C406.02 307.565 401.813 312.755 397.807 310.865C393.811 308.975 386.86 314.645 379.078 314.645C371.297 314.645 365.818 312.335 360.771 313.595C355.723 314.855 346.248 318.006 338.887 315.695C331.526 313.385 326.889 311.915 320.259 313.385C313.629 314.855 305.877 315.505 303.493 313.195C301.109 310.885 292.196 310.865 286.818 311.915C281.429 312.965 278.485 310.445 278.485 310.445C278.485 310.445 288.23 307.025 292.476 308.235C300.208 310.445 304.154 306.175 307.95 306.025L307.93 306.035Z" fill="#FAFAFA"/>
<path opacity="0.4" d="M406 307.565C406 307.565 401.783 312.765 397.787 310.875C393.791 308.975 386.851 314.655 379.059 314.655C371.267 314.655 365.808 312.345 360.751 313.605C355.703 314.875 346.229 318.016 338.857 315.705C331.496 313.395 326.859 311.925 320.229 313.395C313.599 314.865 305.847 315.515 303.453 313.205C301.07 310.895 292.166 310.875 286.788 311.925C281.4 312.975 278.455 310.455 278.455 310.455C278.455 310.455 288.2 307.035 292.446 308.245C294.279 308.775 295.902 308.935 297.354 308.855C299.087 308.785 300.589 308.395 301.931 307.925C304.224 307.125 306.087 306.105 307.92 306.035C307.92 306.035 317.395 306.035 322.022 303.935C326.649 301.834 327.82 303.304 332.608 303.935C337.385 304.565 342.443 302.384 346.229 302.844C350.014 303.304 354.651 305.725 358.648 304.415C362.644 303.104 365.378 300.894 368.753 304.415C370.065 305.785 372.138 306.715 374.422 307.195C376.545 307.645 378.838 307.685 380.831 307.335C382.183 307.095 383.385 306.665 384.317 306.045C388.103 303.524 394.843 305.625 397.577 306.995C400.311 308.355 406 307.575 406 307.575V307.565Z" fill="white"/>
<path opacity="0.4" d="M324.135 308.505C324.135 308.505 322.602 309.815 320.239 310.115C317.865 310.415 314.871 308.715 311.135 308.715C307.399 308.715 304.605 311.245 296.873 309.515C296.873 309.515 297.053 309.235 297.364 308.855C299.096 308.785 300.599 308.395 301.941 307.925C304.004 308.575 307.649 308.355 310.133 307.615C313.288 306.665 315.241 307.565 316.763 308.505C320.239 310.655 324.125 308.505 324.125 308.505H324.135Z" fill="white"/>
<path opacity="0.4" d="M330.655 310.865C334.23 310.025 337.916 310.235 342.233 311.495C346.549 312.755 350.025 311.115 352.228 310.145C354.441 309.175 357.596 311.655 360.12 311.045C362.644 310.435 363.485 309.505 363.485 309.505C363.485 309.505 360.751 310.365 358.958 309.505C357.166 308.645 353.49 307.075 350.115 308.495C346.75 309.915 343.485 308.455 341.542 307.925C339.599 307.395 337.846 310.025 336.224 309.505C332.648 308.365 330.645 310.855 330.645 310.855L330.655 310.865Z" fill="white"/>
<path opacity="0.4" d="M389.264 307.895C389.264 307.895 386.74 307.715 385.899 308.505C385.058 309.295 382.113 310.365 380.22 309.515C378.327 308.665 375.383 310.165 373.059 310.155C371.237 310.135 369.364 309.125 368.643 308.695C369.233 309.025 370.606 309.535 372.118 308.505C372.779 308.055 373.55 307.585 374.411 307.195C376.535 307.645 378.828 307.685 380.821 307.335C381.452 307.645 382.484 308.025 383.475 307.865C385.058 307.615 386.209 306.615 389.264 307.905V307.895Z" fill="white"/>
<path d="M24.6176 309.924C24.6176 309.924 32.5297 309.924 36.3956 311.384C40.2615 312.844 41.243 311.824 45.2391 311.384C49.2352 310.944 53.4516 312.464 56.6165 312.144C59.7813 311.824 63.6472 310.144 66.9923 311.054C70.3374 311.964 72.6209 313.494 75.4352 311.054C78.2495 308.614 85.2802 308.174 88.4451 309.924C91.6099 311.674 97.2385 310.214 99.522 309.264C101.805 308.314 106.553 308.854 106.553 308.854C106.553 308.854 103.037 305.244 99.6923 306.564C96.3471 307.874 90.5483 303.934 84.0383 303.934C77.5284 303.934 72.9614 305.534 68.735 304.664C64.5085 303.794 56.5964 301.604 50.447 303.204C44.2977 304.804 40.4217 305.834 34.8833 304.804C29.3448 303.784 22.8649 303.334 20.8719 304.944C18.8788 306.554 11.4375 306.564 6.94061 305.834C2.44374 305.104 -0.0200195 306.854 -0.0200195 306.854C-0.0200195 306.854 8.12242 309.224 11.6778 308.384C18.1377 306.854 21.4327 309.814 24.6076 309.914L24.6176 309.924Z" fill="#FAFAFA"/>
<path opacity="0.4" d="M106.573 308.864C106.573 308.864 103.047 305.254 99.7123 306.564C96.3671 307.884 90.5683 303.944 84.0583 303.944C77.5484 303.944 72.9814 305.544 68.765 304.674C64.5486 303.794 56.6265 301.614 50.4771 303.214C44.3177 304.814 40.4518 305.844 34.9133 304.814C29.3749 303.794 22.895 303.344 20.9019 304.944C18.9089 306.544 11.4675 306.564 6.97064 305.834C2.47377 305.104 0.0100098 306.854 0.0100098 306.854C0.0100098 306.854 8.15244 309.224 11.6979 308.384C13.2302 308.014 14.5823 307.904 15.7941 307.954C17.2363 308.004 18.4982 308.274 19.62 308.604C21.5429 309.154 23.0953 309.874 24.6176 309.914C24.6176 309.914 32.5297 309.914 36.3956 311.374C40.2615 312.824 41.243 311.814 45.2391 311.374C49.2352 310.934 53.4516 312.444 56.6265 312.134C59.7913 311.814 63.6572 310.134 67.0023 311.044C70.3474 311.954 72.6309 313.494 75.4452 311.044C76.5369 310.094 78.2695 309.444 80.1824 309.114C81.9551 308.804 83.8681 308.774 85.5406 309.024C86.6723 309.194 87.6739 309.484 88.4551 309.924C91.6199 311.674 97.2485 310.214 99.542 309.264C101.825 308.314 106.573 308.864 106.573 308.864V308.864Z" fill="white"/>
<path opacity="0.4" d="M38.1683 308.205C38.1683 308.205 36.8864 307.295 34.9134 307.085C32.9303 306.875 30.4265 308.055 27.3017 308.055C24.177 308.055 21.8434 306.305 15.3835 307.495C15.3835 307.495 15.5338 307.685 15.7942 307.955C17.2364 308.005 18.4983 308.275 19.62 308.605C21.3426 308.155 24.3973 308.305 26.4705 308.825C29.1045 309.485 30.737 308.855 32.0089 308.205C34.9134 306.715 38.1683 308.205 38.1683 308.205Z" fill="white"/>
<path opacity="0.4" d="M43.6167 306.565C46.6113 307.145 49.686 307.005 53.2915 306.125C56.897 305.245 59.8014 306.385 61.6442 307.055C63.487 307.725 66.1311 306.005 68.2343 306.425C70.3475 306.845 71.0486 307.495 71.0486 307.495C71.0486 307.495 68.7651 306.905 67.2628 307.495C65.7705 308.085 62.6858 309.185 59.8815 308.195C57.0672 307.205 54.3431 308.225 52.7106 308.595C51.0781 308.965 49.6159 307.135 48.2738 307.495C45.2893 308.285 43.6167 306.555 43.6167 306.555V306.565Z" fill="white"/>
<path opacity="0.4" d="M92.5913 308.625C92.5913 308.625 90.4881 308.755 89.777 308.205C89.0759 307.655 86.6122 306.915 85.0298 307.505C83.4473 308.095 80.9936 307.055 79.0506 307.065C77.5283 307.075 75.9659 307.775 75.355 308.075C75.8457 307.845 76.9975 307.495 78.2594 308.205C78.8103 308.525 79.4613 308.845 80.1824 309.115C81.9551 308.805 83.868 308.775 85.5405 309.025C86.0714 308.805 86.9227 308.545 87.7539 308.655C89.0759 308.825 90.0374 309.525 92.5913 308.625V308.625Z" fill="white"/>
<path d="M268.59 315.195L276.171 315.315C276.432 315.315 276.642 315.505 276.692 315.755L277.834 321.325C277.934 321.825 277.604 322.305 277.103 322.405C277.033 322.415 276.973 322.425 276.903 322.425C274.449 322.345 272.666 322.165 269.591 322.115C267.699 322.085 261.97 322.195 259.346 322.155C256.722 322.115 256.421 319.525 257.503 319.305C262.33 318.335 265.976 316.945 267.538 315.585C267.829 315.325 268.209 315.195 268.59 315.205V315.195Z" fill="#263238"/>
<path d="M241.749 178.444C241.749 178.444 249.571 191.885 251.153 196.496C255.66 209.617 258.785 244.76 259.556 251.12C261.018 263.201 277.854 315.585 277.854 315.585H267.528C267.528 315.585 245.435 271.522 242.029 260.281C238.614 249.04 232.495 220.878 232.495 220.878C232.495 220.878 205.504 252.57 201.177 258.801C196.85 265.031 208.789 315.595 208.789 315.595H198.473C198.473 315.595 181.387 271.682 183.47 255.811C185.553 239.949 213.957 204.386 214.568 202.516C215.349 200.146 213.185 191.715 213.185 191.715L241.749 178.454V178.444Z" fill="#263238"/>
<path d="M199.514 315.195L207.096 315.315C207.356 315.315 207.567 315.505 207.617 315.755L208.759 321.325C208.859 321.825 208.528 322.305 208.027 322.405C207.957 322.415 207.897 322.425 207.827 322.425C205.373 322.345 203.591 322.165 200.516 322.115C198.623 322.085 192.894 322.195 190.27 322.155C187.646 322.115 187.346 319.525 188.428 319.305C193.255 318.335 196.9 316.945 198.463 315.585C198.753 315.325 199.134 315.195 199.514 315.205V315.195Z" fill="#263238"/>
<path opacity="0.2" d="M224.373 230.449C226.356 223.858 227.377 217.878 227.377 217.878C219.275 211.607 220.196 204.286 220.196 204.286C223.752 208.467 231.804 210.137 231.804 210.137L232.495 220.858C232.495 220.858 229.03 224.928 224.373 230.439V230.449Z" fill="black"/>
<path d="M242.74 181.955L241.208 178.684L214.017 192.216L215.879 195.036L242.74 181.955Z" fill="#263238"/>
<path opacity="0.2" d="M242.74 181.955L241.208 178.684L214.017 192.216L215.879 195.036L242.74 181.955Z" fill="white"/>
<path d="M221.859 188.405L223.241 191.325C223.351 191.565 223.261 191.835 223.05 191.935L218.784 193.825C218.594 193.905 218.373 193.825 218.263 193.615L216.721 190.775C216.591 190.535 216.671 190.245 216.901 190.145L221.328 188.165C221.528 188.075 221.758 188.175 221.869 188.395L221.859 188.405Z" fill="white"/>
<path d="M227.377 185.565L229.09 189.535L230.492 189.135L228.619 184.955L227.377 185.565Z" fill="#263238"/>
<path d="M238.254 180.154L240.267 183.954L241.268 183.664L239.135 179.724L238.254 180.154Z" fill="#263238"/>
<path d="M215.028 191.705L216.951 195.465L216.3 196.075L214.017 192.215L215.028 191.705Z" fill="#263238"/>
<path d="M212.875 192.656C209.61 187.865 195.889 168.844 185.964 160.603C185.964 160.603 190.411 152.102 199.204 146.102C208.638 139.661 216.12 139.011 216.12 139.011C216.12 139.011 231.654 152.132 242.751 178.434L212.885 192.646L212.875 192.656Z" fill="#FAFAFA"/>
<path opacity="0.6" d="M242.741 178.434L212.875 192.656C212.094 191.515 210.712 189.555 208.929 187.115C205.464 182.385 200.456 175.854 195.368 170.074C192.143 166.403 188.888 163.033 185.964 160.603C185.964 160.603 190.411 152.102 199.204 146.102C208.638 139.661 216.12 139.011 216.12 139.011C216.12 139.011 217.973 140.571 220.847 143.692C222.339 145.332 224.132 147.392 226.075 149.882C231.213 156.433 237.473 165.943 242.741 178.434V178.434Z" fill="white"/>
<path opacity="0.2" d="M231.453 168.724L228.379 177.564C228.379 177.564 218.203 185.465 208.929 187.115C205.464 182.385 200.456 175.854 195.368 170.074C195.338 167.113 195.568 164.973 195.568 164.973C195.568 164.973 204.973 172.604 213.426 172.474C221.879 172.344 231.453 168.724 231.453 168.724V168.724Z" fill="black"/>
<path opacity="0.2" d="M226.075 149.882C221.809 148.322 218.844 145.242 218.844 145.242L220.847 143.692C222.339 145.332 224.132 147.392 226.075 149.882Z" fill="black"/>
<path d="M195.959 152.792L198.102 152.062L200.536 153.222L201.067 150.562L203.911 149.122C204.602 147.142 204.873 145.022 204.632 142.882C200.246 143.382 194.397 137.331 191.462 133.731L191.522 138.981L191.592 145.172C193.045 145.882 194.447 146.722 195.338 147.852C196.33 149.092 196.73 150.682 195.949 152.802L195.959 152.792Z" fill="#E4897B"/>
<path opacity="0.2" d="M191.602 145.161C193.055 145.871 194.457 146.711 195.348 147.841C197.672 145.341 196.49 140.831 195.268 139.581C194.817 139.071 192.694 139.141 191.542 138.971L191.612 145.161H191.602Z" fill="black"/>
<path d="M177.381 125.4C177.381 125.4 173.325 125.85 172.954 130.06C172.583 134.271 174.476 138.921 179.103 138.891C183.73 138.861 184.922 125.67 184.922 125.67L177.381 125.4V125.4Z" fill="#263238"/>
<path d="M195.989 141.401C195.849 142.031 195.649 142.652 195.358 143.292C192.834 149.012 185.553 149.442 181.687 145.192C181.417 144.902 181.167 144.582 180.936 144.242C177.721 139.521 175.258 130.651 180.045 126.21C183.44 123.01 188.798 123.17 191.993 126.57C192.904 127.53 193.576 128.7 193.956 129.971C195.508 134.931 196.72 138.101 195.989 141.401V141.401Z" fill="#E4897B"/>
<path d="M185.793 134.911C186.004 135.361 185.874 135.851 185.553 135.971C185.243 136.091 184.852 135.801 184.672 135.331C184.492 134.861 184.602 134.381 184.912 134.271C185.223 134.161 185.613 134.441 185.793 134.911Z" fill="#263238"/>
<path d="M180.475 136.931C180.686 137.381 180.546 137.881 180.235 137.991C179.925 138.101 179.534 137.821 179.354 137.351C179.173 136.881 179.284 136.401 179.594 136.291C179.905 136.181 180.305 136.491 180.475 136.931Z" fill="#263238"/>
<path d="M182.258 136.521C182.248 138.171 181.998 139.811 181.537 141.391C182.368 141.611 183.26 141.451 183.961 140.961L182.258 136.521Z" fill="#DE5753"/>
<path d="M183.72 133.391C183.74 133.281 183.821 133.191 183.921 133.161C184.642 132.941 185.213 132.391 185.463 131.691C185.503 131.531 185.663 131.441 185.824 131.481C185.984 131.521 186.074 131.681 186.034 131.841C185.734 132.741 185.022 133.441 184.111 133.721C183.961 133.781 183.791 133.701 183.73 133.551C183.72 133.501 183.71 133.451 183.72 133.401V133.391Z" fill="#263238"/>
<path d="M189.589 139.051C188.147 139.391 186.965 140.401 186.415 141.771C186.385 141.851 186.435 141.941 186.515 141.971C186.595 142.001 186.675 141.961 186.705 141.881C187.246 140.611 188.338 139.681 189.67 139.361C189.75 139.341 189.8 139.261 189.79 139.181V139.161C189.77 139.081 189.69 139.031 189.609 139.041H189.589V139.051Z" fill="#263238"/>
<path d="M180.095 134.961C180.155 134.981 180.195 135.021 180.235 135.071C180.295 135.221 180.225 135.391 180.075 135.451C179.193 135.821 178.192 135.731 177.381 135.221C177.251 135.131 177.22 134.941 177.311 134.811C177.411 134.681 177.591 134.651 177.721 134.741C178.372 135.121 179.163 135.181 179.854 134.891C179.945 134.871 180.035 134.891 180.095 134.951V134.961Z" fill="#263238"/>
<path d="M193.615 120.55C189.82 118.73 177.701 122.35 177.391 125.4C177.391 125.4 174.907 125.87 175.458 128.23C175.898 130.12 177.491 131.431 177.491 131.431C177.811 131.061 178.152 130.741 178.502 130.431C179.674 132.571 182.048 134.491 186.875 134.031C186.875 134.031 183.981 133.501 182.679 130.311C184.311 131.071 186.525 131.761 189.169 131.711C191.392 134.721 194.427 135.251 194.427 135.251C196.39 140.251 197.822 141.611 197.822 141.611C204.863 134.071 197.151 122.23 193.615 120.54V120.55Z" fill="#263238"/>
<path d="M198.984 135.351C198.673 136.871 197.772 138.211 196.47 139.071C194.747 140.201 193.265 138.801 193.215 136.851C193.195 135.111 194.036 132.391 196.029 132.061C198.022 131.741 199.334 133.471 198.984 135.341V135.351Z" fill="#E4897B"/>
<path opacity="0.4" d="M195.989 141.401C195.849 142.031 195.649 142.651 195.358 143.292C192.834 149.012 185.553 149.442 181.687 145.192C182.418 143.302 185.243 140.511 185.243 140.511L185.633 141.261C185.633 141.261 183.38 143.922 183.951 144.652C184.522 145.372 187.937 145.832 188.538 145.372C189.129 144.912 188.097 142.541 188.097 142.541L189.169 141.261C189.169 141.261 191.042 142.071 191.903 141.621C192.764 141.161 192.163 138.841 190.32 138.321C188.468 137.791 186.785 139.831 186.785 139.831H186.044C188.167 135.691 193.475 134.971 193.475 134.971C194.587 136.081 195.699 138.571 195.989 141.401V141.401Z" fill="black"/>
<path d="M197.451 153.212L200.696 157.003C200.696 157.003 199.955 173.074 192.434 182.995V186.865L197.191 184.955C197.191 184.955 203 165.623 202.209 156.393L203.26 150.262L200.346 152.792L197.451 153.212V153.212Z" fill="#FAFAFA"/>
<path d="M201.928 142.592C202.629 143.662 203.45 146.132 200.716 150.412L200.336 152.802L198.723 151.422C196.39 151.322 195.919 147.562 195.268 148.062L193.365 153.722C193.365 153.722 195.578 157.123 197.752 159.273L199.284 153.122L200.696 153.672L201.367 151.692L206.375 152.722C206.375 152.722 209.49 145.922 207.166 141.271L202.269 141.851C201.908 141.891 201.728 142.301 201.928 142.602V142.592Z" fill="#FAFAFA"/>
<path opacity="0.7" d="M201.928 142.592C202.629 143.662 203.45 146.132 200.716 150.412L200.336 152.802L198.723 151.422C196.39 151.322 195.919 147.562 195.268 148.062L193.365 153.722C193.365 153.722 195.578 157.123 197.752 159.273L199.284 153.122L200.696 153.672L201.367 151.692L206.375 152.722C206.375 152.722 209.49 145.922 207.166 141.271L202.269 141.851C201.908 141.891 201.728 142.301 201.928 142.602V142.592Z" fill="white"/>
<path d="M214.017 139.481C214.017 139.481 231.784 130.141 238.254 131.461C244.723 132.781 252.125 143.412 252.125 143.412L246.186 144.912C246.186 144.912 237.993 137.141 235.88 137.131C233.767 137.121 221.288 146.092 221.288 146.092C221.288 146.092 217.232 144.932 216.12 143.602C215.008 142.271 214.017 139.471 214.017 139.471V139.481Z" fill="#FAFAFA"/>
<path opacity="0.6" d="M214.017 139.481C214.017 139.481 231.784 130.141 238.254 131.461C244.723 132.781 252.125 143.412 252.125 143.412L246.186 144.912C246.186 144.912 237.993 137.141 235.88 137.131C233.767 137.121 221.288 146.092 221.288 146.092C221.288 146.092 217.232 144.932 216.12 143.602C215.008 142.271 214.017 139.471 214.017 139.471V139.481Z" fill="white"/>
<path d="M216.951 164.753L232.495 137.141L238.254 135.121L251.594 144.652L250.613 146.232L261.309 154.142L244.964 182.995H239.766L216.951 164.753Z" fill="#263238"/>
<path opacity="0.2" d="M216.951 164.753L220.827 164.173L234.428 173.524L251.594 144.652L238.254 135.121L232.495 137.141L216.951 164.753Z" fill="white"/>
<path opacity="0.2" d="M221.288 165.223L244.964 182.995L261.309 154.142L251.594 146.962L234.889 174.294L221.288 165.223Z" fill="white"/>
<path d="M241.298 155.403L248.099 160.613L246.386 163.443L239.576 158.363L241.298 155.403Z" fill="#263238"/>
<path d="M241.599 159.873L243.391 157.003L245.525 158.643L243.842 161.543L241.599 159.873Z" stroke="white" stroke-linecap="round" stroke-linejoin="round"/>
<path d="M231.453 143.992C231.453 143.992 228.659 142.742 224.974 144.782C221.288 146.822 221.819 153.752 222.61 155.402H223.732L224.974 153.162C224.974 153.162 222.149 150.212 224.323 146.972C226.496 143.732 229.47 145.382 229.47 145.382H230.572L231.453 144.002V143.992Z" fill="#263238"/>
<path d="M216.831 175.494L230.662 172.194C230.662 172.194 231.824 168.154 232.224 168.064C232.625 167.974 238.434 166.273 238.434 166.273L239.936 174.024C239.936 174.024 235.399 177.464 234.448 177.244C233.496 177.034 232.665 176.114 232.665 176.114L218.924 180.765L216.831 175.484V175.494Z" fill="#E4897B"/>
<path d="M185.964 160.603C183.19 167.464 198.773 181.775 206.425 182.995C214.087 184.215 227.377 178.684 227.377 178.684L225.444 172.524C225.444 172.524 209.199 177.484 205.764 176.034C202.329 174.584 193.365 161.723 193.365 161.723L185.964 160.603V160.603Z" fill="#FAFAFA"/>
<path opacity="0.6" d="M185.964 160.603C183.19 167.464 198.773 181.775 206.425 182.995C214.087 184.215 227.377 178.684 227.377 178.684L225.444 172.524C225.444 172.524 209.199 177.484 205.764 176.034C202.329 174.584 193.365 161.723 193.365 161.723L185.964 160.603V160.603Z" fill="white"/>
<path d="M251.564 143.552L252.686 144.942C252.686 144.942 255.46 147.372 256.352 147.842C257.243 148.312 256.352 152.662 256.352 152.662L249.912 151.082C249.912 151.082 248.79 149.462 249.691 147.852C250.603 146.242 251.594 144.662 251.594 144.662L250.453 143.842L251.564 143.562V143.552Z" fill="#E4897B"/>
<path d="M67.9036 325.786C89.0559 325.786 100.644 318.516 115.306 314.555C129.978 310.595 136.018 320.566 147.695 320.526C159.383 320.486 174.216 314.955 184.702 315.745C195.188 316.536 200.957 319.636 210.431 320.066C219.906 320.496 233.687 313.225 242.35 315.075C251.023 316.936 255.71 319.236 262.951 320.066C270.202 320.886 284.264 314.075 289.382 316.296C294.5 318.516 292.366 322.016 306.007 320.066C319.648 318.116 337.125 316.076 346.93 320.066C356.735 324.056 382.734 323.186 382.734 323.186C382.734 323.186 383.586 330.787 344.376 329.197C305.166 327.616 289.933 338.687 270.693 337.897C251.454 337.107 214.077 331.017 199.525 332.757C184.972 334.497 150.86 340.477 141.065 337.937C131.26 335.397 110.208 329.607 95.3956 331.167C80.5829 332.737 47.853 335.127 42.675 328.396C42.675 328.396 46.8514 325.776 67.9136 325.776L67.9036 325.786Z" fill="#FAFAFA"/>
<path opacity="0.4" d="M344.366 329.197C305.156 327.616 289.923 338.697 270.693 337.907C251.454 337.107 214.077 331.017 199.515 332.757C184.952 334.497 150.86 340.487 141.055 337.947C131.25 335.407 110.188 329.607 95.3855 331.177C80.5729 332.747 47.8429 335.137 42.665 328.406C42.665 328.406 46.6411 325.916 66.3813 325.796C66.882 325.786 67.3828 325.786 67.9036 325.786C73.2317 325.786 77.9489 325.326 82.2655 324.566C95.0851 322.336 104.329 317.516 115.306 314.555C129.968 310.605 136.008 320.566 147.695 320.526C159.383 320.496 174.216 314.955 184.702 315.745C195.188 316.536 200.957 319.636 210.431 320.066C219.906 320.496 233.687 313.225 242.35 315.075C251.023 316.936 255.71 319.246 262.961 320.066C270.203 320.886 284.274 314.075 289.382 316.295C293.238 317.966 292.977 320.356 298.426 320.616C299.978 320.686 302.011 320.586 304.735 320.236C305.146 320.186 305.567 320.126 306.007 320.066C319.648 318.116 337.125 316.075 346.93 320.066C348.021 320.516 349.323 320.896 350.766 321.226C355.963 322.426 363.014 322.946 369.184 323.146C376.605 323.386 382.734 323.186 382.734 323.186C382.734 323.186 383.586 330.777 344.366 329.197V329.197Z" fill="white"/>
<path opacity="0.4" d="M180.546 332.507C176.58 331.747 151.752 336.947 147.786 335.917C143.83 334.887 139.863 331.147 134.055 331.147C128.246 331.147 118.471 330.087 112.392 326.856C106.322 323.636 98.9209 323.496 77.5283 326.856C63.4167 329.077 62.976 327.906 66.3812 325.796C66.882 325.786 67.3828 325.786 67.9036 325.786C73.2317 325.786 77.9489 325.326 82.2655 324.566C84.6892 324.546 87.6938 324.166 91.3794 323.186C105.221 319.506 111.34 322.176 114.505 326.096C117.68 330.017 125.071 328.246 132.202 326.856C139.333 325.476 142.768 330.087 146.994 333.787C151.221 337.477 159.944 332.197 168.818 331.147C177.701 330.087 180.546 332.507 180.546 332.507V332.507Z" fill="white"/>
<path opacity="0.4" d="M130.89 323.146C140.134 321.646 147.535 327.446 154.135 327.966C160.735 328.496 172.363 321.456 176.319 323.396C180.285 325.336 194.226 328.686 199.534 326.876C204.843 325.066 220.957 326.086 220.957 326.086C220.957 326.086 212.955 321.426 206.395 323.176C203.751 323.886 201.297 327.936 194.357 325.446C187.416 322.956 185.563 320.676 177.381 321.426C169.188 322.166 162.588 324.276 157.31 323.226C152.032 322.176 149.208 324.026 147.004 324.646C144.801 325.266 138.021 321.716 135.647 321.286C133.273 320.856 130.89 323.146 130.89 323.146V323.146Z" fill="white"/>
<path opacity="0.4" d="M304.735 320.236C302.181 321.036 299.517 322.006 297.033 323.156C288.31 327.186 283.823 327.116 277.744 326.096C271.675 325.076 266.006 327.656 259.857 328.746C253.707 329.826 246.316 324.476 232.575 326.096C228.048 326.636 243.932 320.856 249.751 323.236C255.56 325.606 257.142 328.956 265.065 326.096C272.997 323.236 276.162 319.536 283.292 323.236C287.709 325.516 293.188 323.066 298.426 320.616C299.978 320.686 302.011 320.586 304.735 320.236Z" fill="white"/>
<path opacity="0.4" d="M369.374 323.226C369.374 323.226 362.163 326.436 358.257 326.096C354.351 325.766 349.984 322.086 344.245 326.096C340.73 328.546 330.935 327.226 326.528 325.886C322.122 324.546 311.435 329.356 307.529 328.006C303.633 326.656 297.554 328.896 297.554 328.896C297.554 328.896 301.711 324.376 305.616 325.146C314.33 326.856 315.472 322.956 317.174 322.586C322.302 321.446 325.427 322.796 328.992 324.566C333.739 326.926 337.195 325.916 342.583 323.186C344.476 322.226 347.551 321.616 350.765 321.226C355.963 322.426 363.014 322.946 369.184 323.146L369.374 323.226V323.226Z" fill="white"/>
<path d="M215.309 350.528C215.309 350.528 227.197 350.528 233.006 352.718C238.815 354.909 240.287 353.378 246.286 352.718C252.285 352.058 258.625 354.339 263.382 353.859C268.139 353.378 273.948 350.858 278.966 352.228C283.984 353.599 287.419 355.899 291.645 352.228C295.872 348.558 306.438 347.898 311.195 350.528C315.952 353.158 324.405 350.968 327.841 349.538C331.276 348.118 338.407 348.928 338.407 348.928C338.407 348.928 333.129 343.508 328.101 345.488C323.083 347.458 314.37 341.548 304.595 341.548C294.82 341.548 287.95 343.958 281.61 342.648C275.27 341.338 263.382 338.047 254.138 340.457C244.894 342.868 239.085 344.398 230.762 342.868C222.44 341.338 212.715 340.657 209.72 343.068C206.726 345.478 195.549 345.498 188.788 344.398C182.028 343.298 178.332 345.928 178.332 345.928C178.332 345.928 190.561 349.498 195.899 348.228C205.604 345.928 210.551 350.378 215.309 350.528Z" fill="#FAFAFA"/>
<path opacity="0.4" d="M338.397 348.928C338.397 348.928 333.109 343.508 328.091 345.478C323.073 347.458 314.36 341.538 304.585 341.538C294.81 341.538 287.95 343.948 281.61 342.638C275.27 341.317 263.382 338.037 254.138 340.447C244.894 342.858 239.075 344.398 230.762 342.858C222.44 341.317 212.715 340.647 209.71 343.058C206.716 345.468 195.539 345.488 188.788 344.398C182.028 343.298 178.332 345.928 178.332 345.928C178.332 345.928 190.561 349.488 195.889 348.228C198.193 347.678 200.226 347.518 202.049 347.588C204.222 347.658 206.105 348.068 207.797 348.558C210.682 349.388 213.015 350.458 215.309 350.528C215.309 350.528 227.197 350.528 233.006 352.718C238.815 354.909 240.287 353.378 246.286 352.718C252.285 352.058 258.625 354.329 263.382 353.859C268.139 353.378 273.948 350.848 278.966 352.218C283.984 353.589 287.419 355.889 291.645 352.218C293.288 350.788 295.892 349.818 298.756 349.318H298.766C301.43 348.848 304.305 348.798 306.808 349.178C308.501 349.428 310.013 349.878 311.185 350.528C315.942 353.158 324.395 350.968 327.831 349.538C331.266 348.118 338.397 348.928 338.397 348.928V348.928Z" fill="white"/>
<path opacity="0.4" d="M235.65 347.948C235.65 347.948 233.727 346.578 230.762 346.268C227.788 345.948 224.022 347.728 219.335 347.728C214.648 347.728 211.142 345.098 201.438 346.888C201.438 346.888 201.668 347.178 202.048 347.578C204.222 347.648 206.105 348.058 207.797 348.548C210.381 347.868 214.968 348.098 218.083 348.868C222.039 349.858 224.493 348.918 226.406 347.938C230.762 345.698 235.65 347.938 235.65 347.938V347.948Z" fill="white"/>
<path opacity="0.4" d="M243.833 345.488C248.319 346.368 252.946 346.148 258.365 344.828C263.783 343.518 268.14 345.228 270.914 346.228C273.688 347.228 277.654 344.658 280.819 345.288C283.984 345.918 285.045 346.888 285.045 346.888C285.045 346.888 281.61 345.998 279.367 346.888C277.123 347.778 272.496 349.428 268.27 347.948C264.043 346.468 259.947 347.988 257.503 348.538C255.06 349.098 252.866 346.348 250.833 346.888C246.346 348.078 243.833 345.478 243.833 345.478V345.488Z" fill="white"/>
<path opacity="0.4" d="M317.394 348.588C317.394 348.588 314.23 348.778 313.168 347.958C312.116 347.138 308.421 346.018 306.037 346.898C303.663 347.788 299.968 346.218 297.053 346.238C294.77 346.258 292.416 347.308 291.505 347.758C292.246 347.418 293.969 346.888 295.872 347.958C296.703 348.428 297.674 348.918 298.756 349.328H298.766C301.43 348.858 304.304 348.808 306.808 349.188C307.599 348.868 308.891 348.468 310.133 348.628C312.116 348.888 313.569 349.928 317.394 348.588V348.588Z" fill="white"/>
<path d="M47.2421 358.839C47.2421 358.839 59.1302 358.839 64.9391 356.199C70.748 353.559 72.2202 355.409 78.2194 356.199C84.2186 356.989 90.5582 354.249 95.3155 354.829C100.073 355.409 105.882 358.439 110.899 356.789C115.917 355.139 119.352 352.368 123.579 356.789C127.805 361.209 138.371 361.999 143.129 358.829C147.886 355.669 156.339 358.299 159.774 360.019C163.209 361.739 170.34 360.749 170.34 360.749C170.34 360.749 165.062 367.27 160.034 364.899C155.017 362.529 146.303 369.65 136.528 369.65C126.754 369.65 119.883 366.75 113.553 368.33C107.214 369.91 95.3255 373.87 86.0814 370.97C76.8373 368.07 71.0284 366.22 62.7057 368.07C54.383 369.92 44.6581 370.73 41.6636 367.83C38.669 364.929 27.4919 364.909 20.7316 366.23C13.9713 367.55 10.2756 364.379 10.2756 364.379C10.2756 364.379 22.5043 360.089 27.8425 361.609C37.5473 364.379 42.4948 359.019 47.2521 358.839H47.2421Z" fill="#FAFAFA"/>
<path opacity="0.4" d="M170.33 360.759C170.33 360.759 165.042 367.28 160.024 364.909C155.007 362.529 146.293 369.65 136.518 369.65C126.743 369.65 119.883 366.75 113.543 368.33C107.204 369.92 95.3155 373.87 86.0714 370.97C76.8273 368.07 71.0084 366.22 62.6957 368.07C54.373 369.92 44.6481 370.73 41.6435 367.83C38.649 364.929 27.4719 364.909 20.7216 366.22C13.9613 367.54 10.2656 364.379 10.2656 364.379C10.2656 364.379 22.4943 360.089 27.8224 361.609C30.126 362.269 32.1591 362.469 33.9818 362.379C36.1552 362.289 38.038 361.799 39.7306 361.209C42.615 360.209 44.9486 358.919 47.2421 358.839C47.2421 358.839 59.1302 358.839 64.9391 356.199C70.748 353.569 72.2202 355.409 78.2194 356.199C84.2186 356.989 90.5582 354.259 95.3155 354.829C100.073 355.409 105.882 358.449 110.899 356.799C115.917 355.149 119.352 352.378 123.579 356.799C125.221 358.519 127.825 359.689 130.69 360.289H130.7C133.364 360.849 136.238 360.909 138.742 360.459C140.434 360.159 141.947 359.619 143.119 358.839C147.876 355.679 156.329 358.309 159.764 360.029C163.199 361.739 170.33 360.759 170.33 360.759V360.759Z" fill="white"/>
<path opacity="0.4" d="M67.5831 361.939C67.5831 361.939 65.6602 363.589 62.6956 363.959C59.7211 364.339 55.9553 362.199 51.2682 362.199C46.581 362.199 43.0757 365.369 33.3708 363.209C33.3708 363.209 33.6012 362.859 33.9818 362.379C36.1551 362.289 38.038 361.799 39.7306 361.209C42.3145 362.029 46.9015 361.749 50.0163 360.819C53.9723 359.629 56.4261 360.759 58.339 361.939C62.6956 364.639 67.5831 361.939 67.5831 361.939Z" fill="white"/>
<path opacity="0.4" d="M75.7656 364.899C80.2525 363.849 84.8795 364.109 90.2978 365.689C95.7161 367.269 100.073 365.209 102.847 363.999C105.621 362.789 109.587 365.889 112.752 365.129C115.917 364.369 116.979 363.199 116.979 363.199C116.979 363.199 113.543 364.269 111.3 363.199C109.056 362.129 104.429 360.149 100.203 361.929C95.9765 363.709 91.8802 361.879 89.4365 361.219C86.9928 360.549 84.7994 363.859 82.7663 363.209C78.2795 361.779 75.7656 364.909 75.7656 364.909V364.899Z" fill="white"/>
<path opacity="0.4" d="M149.328 361.179C149.328 361.179 146.163 360.949 145.102 361.939C144.05 362.929 140.354 364.279 137.971 363.209C135.597 362.139 131.901 364.029 128.987 364.009C126.703 363.989 124.35 362.719 123.438 362.179C124.18 362.589 125.902 363.229 127.805 361.939C128.636 361.369 129.608 360.779 130.69 360.289H130.7C133.364 360.849 136.238 360.909 138.742 360.459C139.533 360.849 140.825 361.329 142.067 361.129C144.05 360.819 145.502 359.559 149.328 361.179V361.179Z" fill="white"/>
</g>
<defs>
<clipPath id="clip0_214_3566">
<rect width="406" height="372" fill="white"/>
</clipPath>
</defs>
</svg>
