<svg width="414" height="380" viewBox="0 0 414 380" fill="none" xmlns="http://www.w3.org/2000/svg">
<g clip-path="url(#clip0_214_3373)" filter="url(#filter0_d_214_3373)">
<path d="M207 372C319.114 372 410 366.648 410 360.045C410 353.443 319.114 348.091 207 348.091C94.8862 348.091 4 353.443 4 360.045C4 366.648 94.8862 372 207 372Z" fill="#F5F5F5"/>
<path d="M30.9833 341.725C30.7286 338.355 31.1425 333.995 34.6879 332.699C40.6852 330.508 44.2412 325.347 44.0501 319.515C43.8484 313.683 50.1642 308.003 54.8984 313.47C59.6326 318.937 59.0063 309.264 65.3221 306.919C71.6379 304.575 76.9878 310.266 75.2576 315.485C73.5273 320.693 79.7582 323.945 87.2204 319.515C94.6826 315.085 102.888 323.144 101.317 329.459C99.7352 335.763 101.03 336.47 105.754 334.361C109.565 332.664 115.817 336.222 116.507 341.725H30.9833Z" fill="#E0E0E0"/>
<path d="M328.738 341.725C328.441 339.062 328.579 335.174 331.551 334.078C336.211 332.369 338.971 328.363 338.812 323.839C338.652 319.315 343.556 314.908 347.24 319.15C350.912 323.391 350.424 315.886 355.328 314.06C360.232 312.233 364.383 316.664 363.045 320.705C361.708 324.746 366.537 327.279 372.333 323.839C378.129 320.399 384.498 326.655 383.277 331.556C382.056 336.458 383.054 337 386.716 335.362C389.826 333.984 394.985 337.094 395.091 341.725H328.728H328.738Z" fill="#E0E0E0"/>
<path d="M359.256 341.725H250.231C248.703 336.046 252.662 329.235 256.982 328.281C262.29 327.103 267.629 316.734 267.873 310.136C268.128 303.538 277.681 283.237 292.542 295.773C307.402 308.31 302.891 297.623 313.633 294.1C324.386 290.577 331.169 300.71 326.445 308.31C326.445 308.31 337.241 305.305 341.688 316.499C346.136 327.692 341.688 334.643 341.688 334.643C341.688 334.643 355.339 334.196 359.245 341.725H359.256Z" fill="#E0E0E0"/>
<path d="M161.216 24.1068C161.216 20.9609 158.923 18.4159 156.089 18.4159C155.58 18.4159 155.081 18.4984 154.614 18.6515C154.688 18.086 154.73 17.4968 154.73 16.9077C154.73 10.2507 149.869 4.85434 143.871 4.85434C143.192 4.85434 142.523 4.92504 141.876 5.06643C140.209 2.03835 137.205 0 133.777 0C128.576 0 124.361 4.64226 124.287 10.3921C124.234 10.3921 124.181 10.3921 124.128 10.3921C119.298 10.3921 115.381 14.7398 115.381 20.1008C115.381 25.4617 119.298 29.8094 124.128 29.8094H156.238C158.997 29.7152 161.216 27.2055 161.216 24.1185V24.1068Z" fill="#F5F5F5"/>
<path d="M351.465 57.663C351.465 54.5171 349.172 51.9721 346.338 51.9721C345.828 51.9721 345.329 52.0546 344.862 52.2078C344.937 51.6422 344.979 51.0531 344.979 50.464C344.979 43.807 340.118 38.4106 334.12 38.4106C333.441 38.4106 332.772 38.4813 332.125 38.6227C330.458 35.5946 327.454 33.5563 324.026 33.5563C318.824 33.5563 314.61 38.1985 314.536 43.9483C314.483 43.9483 314.43 43.9483 314.377 43.9483C309.547 43.9483 305.63 48.296 305.63 53.657C305.63 59.018 309.547 63.3657 314.377 63.3657H346.486C349.246 63.2715 351.465 60.7618 351.465 57.6748V57.663Z" fill="#F5F5F5"/>
<path d="M235.116 41.1559C235.116 39.2 233.693 37.6212 231.931 37.6212C231.613 37.6212 231.305 37.6801 231.018 37.7744C231.061 37.4209 231.093 37.0556 231.093 36.6904C231.093 32.5548 228.068 29.1968 224.342 29.1968C223.917 29.1968 223.503 29.2439 223.1 29.3264C222.06 27.4412 220.202 26.1805 218.058 26.1805C214.82 26.1805 212.198 29.0672 212.156 32.6372C212.124 32.6372 212.092 32.6372 212.06 32.6372C209.057 32.6372 206.626 35.3354 206.626 38.6698C206.626 42.0042 209.057 44.7024 212.06 44.7024H232.027C233.747 44.6435 235.126 43.0882 235.126 41.1677L235.116 41.1559Z" fill="#F5F5F5"/>
<path d="M401.63 34.2396C401.63 32.2838 400.208 30.7049 398.446 30.7049C398.127 30.7049 397.819 30.7638 397.533 30.8581C397.575 30.5046 397.607 30.1394 397.607 29.7741C397.607 25.6385 394.582 22.2805 390.856 22.2805C390.431 22.2805 390.017 22.3276 389.614 22.4101C388.574 20.5249 386.716 19.2642 384.572 19.2642C381.334 19.2642 378.713 22.1509 378.67 25.721C378.638 25.721 378.606 25.721 378.575 25.721C375.571 25.721 373.14 28.4191 373.14 31.7536C373.14 35.088 375.571 37.7861 378.575 37.7861H398.541C400.261 37.7272 401.641 36.1719 401.641 34.2514L401.63 34.2396Z" fill="#F5F5F5"/>
<path d="M55.7791 55.6246C55.7791 53.6688 54.3568 52.0899 52.5947 52.0899C52.2763 52.0899 51.9684 52.1488 51.6818 52.2431C51.7243 51.8896 51.7561 51.5244 51.7561 51.1591C51.7561 47.0235 48.7309 43.6655 45.0051 43.6655C44.5805 43.6655 44.1666 43.7126 43.7632 43.7951C42.723 41.9099 40.8654 40.6492 38.7212 40.6492C35.4837 40.6492 32.8618 43.5359 32.8194 47.106C32.7875 47.106 32.7557 47.106 32.7238 47.106C29.7198 47.106 27.2891 49.8041 27.2891 53.1386C27.2891 56.473 29.7198 59.1711 32.7238 59.1711H52.6902C54.4098 59.1122 55.7897 57.557 55.7897 55.6364L55.7791 55.6246Z" fill="#F5F5F5"/>
<path d="M348.567 156.517C348.726 155.869 348.822 155.127 348.864 154.302C349.108 149.719 353.057 150.438 356.411 149.813C359.033 149.33 352.091 141.966 357.377 139.598C358.364 139.162 359.426 138.655 359.925 137.618C360.593 136.252 359.925 134.449 358.768 133.553C357.621 132.658 356.156 132.469 354.755 132.434C353.895 131.268 354.596 129.524 355.424 128.334C356.263 127.144 357.282 125.789 356.963 124.328C356.485 122.113 353.694 122.03 351.688 122.466C350.944 121.123 350.955 119.462 350.594 117.942C350.233 116.422 349.14 114.831 347.739 115.02C346.412 115.196 345.605 116.858 344.31 117.199C342.803 117.588 341.497 116.115 340.308 115.008C339.12 113.9 337.06 113.205 336.243 114.666C335.755 115.538 336.052 116.763 335.542 117.624C334.661 119.12 332.581 118.189 331.286 117.129C329.991 116.068 327.932 115.114 327.019 116.575C326.743 117.023 326.679 117.588 326.52 118.107C325.904 120.063 324.004 121.04 322.508 122.301C321.011 123.562 319.843 126.06 321.096 127.591C321.711 128.346 322.805 128.652 323.113 129.618C323.495 130.82 322.391 131.904 321.51 132.729C320.045 134.107 319.78 138.231 321.711 139.362C322.518 139.833 323.707 139.987 323.909 140.976C324.089 141.86 323.272 142.555 322.73 143.239C321.244 145.124 321.881 148.505 323.909 149.589C324.376 149.837 324.938 150.037 325.119 150.579C325.246 150.968 325.108 151.38 325.013 151.781C324.822 152.523 324.758 153.312 324.822 154.078C324.843 154.338 324.896 154.632 325.076 154.797C325.236 154.95 325.469 154.974 325.692 154.986C328.484 155.127 329.832 154.031 331.53 156.718C331.689 156.977 331.87 157.248 332.114 157.401C332.347 157.554 332.613 157.589 332.889 157.613C334.81 157.79 336.063 156.458 337.814 156.211C340.245 155.869 340.765 157.26 342.898 158.379C346.274 160.134 347.898 159.05 348.535 156.505L348.567 156.517Z" fill="#EBEBEB"/>
<path d="M316.436 152.664C316.595 152.016 316.691 151.274 316.733 150.449C316.977 145.866 320.926 146.585 324.28 145.96C326.902 145.477 319.96 138.113 325.246 135.745C326.233 135.309 327.295 134.802 327.794 133.765C328.462 132.399 327.794 130.596 326.637 129.701C325.49 128.805 324.026 128.617 322.624 128.581C321.765 127.415 322.465 125.671 323.293 124.481C324.121 123.291 325.151 121.936 324.832 120.475C324.355 118.26 321.563 118.177 319.557 118.613C318.814 117.282 318.824 115.609 318.463 114.089C318.102 112.569 317.009 110.978 315.608 111.167C314.281 111.344 313.474 113.005 312.179 113.347C310.672 113.735 309.367 112.263 308.188 111.155C307.01 110.048 304.94 109.352 304.123 110.813C303.635 111.685 303.932 112.911 303.422 113.771C302.541 115.267 300.461 114.336 299.166 113.276C297.871 112.215 295.811 111.261 294.899 112.722C294.623 113.17 294.559 113.735 294.4 114.254C293.784 116.21 291.884 117.188 290.387 118.448C288.901 119.709 287.723 122.207 288.986 123.739C289.602 124.493 290.695 124.799 291.003 125.765C291.385 126.967 290.281 128.051 289.4 128.876C287.935 130.254 287.67 134.378 289.602 135.509C290.409 135.981 291.597 136.134 291.799 137.123C291.979 138.007 291.162 138.702 290.621 139.386C289.135 141.271 289.772 144.652 291.799 145.736C292.266 145.984 292.829 146.184 293.009 146.726C293.136 147.115 292.999 147.527 292.903 147.928C292.712 148.67 292.648 149.46 292.712 150.225C292.733 150.485 292.786 150.779 292.967 150.944C293.126 151.097 293.359 151.121 293.582 151.133C296.374 151.274 297.722 150.178 299.42 152.865C299.58 153.124 299.76 153.395 300.004 153.548C300.238 153.701 300.503 153.737 300.779 153.76C302.7 153.937 303.953 152.606 305.704 152.358C308.135 152.016 308.655 153.407 310.789 154.526C314.164 156.282 315.788 155.198 316.425 152.653L316.436 152.664Z" fill="#EBEBEB"/>
<path d="M313.336 129.948C313.495 129.3 313.591 128.558 313.633 127.733C313.877 123.15 317.826 123.868 321.18 123.244C323.802 122.761 316.86 115.397 322.146 113.028C323.134 112.593 324.195 112.086 324.694 111.049C325.363 109.682 324.694 107.88 323.537 106.984C322.38 106.089 320.926 105.9 319.524 105.865C318.665 104.698 319.365 102.955 320.193 101.764C321.021 100.574 322.051 99.2195 321.732 97.7585C321.255 95.5434 318.463 95.4609 316.457 95.8969C315.714 94.5654 315.724 92.8924 315.363 91.3724C315.003 89.8525 313.909 88.2619 312.508 88.4504C311.181 88.6271 310.375 90.2884 309.08 90.6301C307.572 91.0189 306.267 89.5461 305.078 88.4386C303.9 87.3311 301.83 86.6359 301.012 88.0969C300.524 88.9688 300.821 90.1942 300.312 91.0543C299.431 92.5507 297.35 91.6199 296.055 90.5594C294.76 89.499 292.701 88.5446 291.788 90.0057C291.512 90.4534 291.448 91.019 291.289 91.5374C290.674 93.4933 288.773 94.4712 287.277 95.7319C285.791 96.9926 284.612 99.4905 285.865 101.022C286.481 101.776 287.574 102.083 287.882 103.049C288.264 104.251 287.16 105.335 286.279 106.159C284.814 107.538 284.549 111.662 286.481 112.793C287.287 113.264 288.476 113.417 288.678 114.407C288.858 115.291 288.041 115.986 287.5 116.669C286.014 118.554 286.651 121.936 288.678 123.02C289.145 123.267 289.708 123.468 289.888 124.01C290.015 124.398 289.877 124.811 289.782 125.211C289.591 125.954 289.527 126.743 289.591 127.509C289.612 127.768 289.665 128.063 289.846 128.228C290.005 128.381 290.238 128.404 290.461 128.416C293.253 128.558 294.601 127.462 296.299 130.148C296.459 130.407 296.639 130.678 296.883 130.832C297.117 130.985 297.382 131.02 297.658 131.044C299.579 131.22 300.832 129.889 302.583 129.642C305.014 129.3 305.534 130.69 307.668 131.81C311.043 133.565 312.667 132.481 313.304 129.936L313.336 129.948Z" fill="#EBEBEB"/>
<path d="M292.17 141.271C292.33 140.623 292.425 139.881 292.468 139.056C292.712 134.472 296.66 135.191 300.015 134.567C302.637 134.084 295.695 126.72 300.981 124.351C301.968 123.915 303.029 123.409 303.528 122.372C304.197 121.005 303.528 119.202 302.371 118.307C301.225 117.412 299.76 117.223 298.359 117.188C297.499 116.021 298.2 114.277 299.028 113.087C299.866 111.897 300.885 110.542 300.567 109.081C300.089 106.866 297.297 106.784 295.291 107.22C294.548 105.877 294.559 104.215 294.198 102.695C293.837 101.175 292.744 99.5847 291.342 99.7733C290.016 99.95 289.209 101.611 287.914 101.953C286.407 102.342 285.101 100.869 283.912 99.7615C282.734 98.6539 280.664 97.9588 279.847 99.4198C279.358 100.292 279.656 101.517 279.146 102.377C278.265 103.874 276.185 102.943 274.89 101.882C273.595 100.822 271.535 99.8675 270.622 101.329C270.346 101.776 270.283 102.342 270.124 102.86C269.508 104.816 267.597 105.794 266.111 107.055C264.625 108.315 263.447 110.813 264.71 112.345C265.326 113.099 266.419 113.405 266.727 114.372C267.109 115.573 266.005 116.657 265.124 117.482C263.659 118.861 263.394 122.985 265.326 124.116C266.132 124.587 267.321 124.74 267.523 125.73C267.703 126.614 266.886 127.309 266.345 127.992C264.859 129.877 265.495 133.259 267.523 134.343C267.99 134.59 268.553 134.791 268.733 135.333C268.86 135.721 268.722 136.134 268.627 136.534C268.436 137.277 268.372 138.066 268.436 138.832C268.457 139.091 268.51 139.386 268.691 139.551C268.85 139.704 269.083 139.727 269.306 139.739C272.098 139.881 273.446 138.785 275.144 141.471C275.304 141.73 275.484 142.001 275.728 142.155C275.962 142.308 276.227 142.343 276.503 142.367C278.424 142.543 279.677 141.212 281.428 140.964C283.859 140.623 284.379 142.013 286.513 143.132C289.888 144.888 291.512 143.804 292.149 141.259L292.17 141.271Z" fill="#EBEBEB"/>
<path d="M270.771 136.039C270.93 135.391 271.026 134.649 271.068 133.824C271.312 129.241 275.261 129.96 278.615 129.335C281.237 128.852 274.295 121.488 279.581 119.12C280.568 118.684 281.63 118.177 282.129 117.14C282.798 115.774 282.129 113.971 280.972 113.076C279.825 112.18 278.361 111.992 276.959 111.956C276.1 110.79 276.8 109.046 277.628 107.856C278.467 106.666 279.486 105.311 279.167 103.85C278.69 101.635 275.898 101.552 273.892 101.988C273.149 100.645 273.159 98.9838 272.798 97.4639C272.438 95.944 271.344 94.3534 269.943 94.5419C268.616 94.7186 267.809 96.3799 266.514 96.7216C265.007 97.1104 263.702 95.6376 262.513 94.5301C261.324 93.4225 259.265 92.7274 258.447 94.1884C257.959 95.0603 258.256 96.2857 257.747 97.1458C256.866 98.6421 254.785 97.7113 253.49 96.6509C252.195 95.5905 250.136 94.6361 249.223 96.0971C248.947 96.5449 248.883 97.1104 248.724 97.6289C248.108 99.5847 246.208 100.563 244.712 101.823C243.215 103.084 242.047 105.582 243.311 107.114C243.926 107.868 245.02 108.174 245.327 109.14C245.71 110.342 244.606 111.426 243.725 112.251C242.26 113.629 241.994 117.753 243.926 118.884C244.733 119.356 245.922 119.509 246.124 120.498C246.304 121.382 245.487 122.077 244.945 122.761C243.459 124.646 244.096 128.027 246.124 129.111C246.591 129.359 247.153 129.559 247.334 130.101C247.461 130.49 247.323 130.902 247.227 131.303C247.036 132.045 246.973 132.835 247.036 133.6C247.058 133.86 247.111 134.154 247.291 134.319C247.45 134.472 247.684 134.496 247.907 134.508C250.698 134.649 252.047 133.553 253.745 136.24C253.904 136.499 254.085 136.77 254.329 136.923C254.562 137.076 254.828 137.112 255.104 137.135C257.025 137.312 258.277 135.981 260.029 135.733C262.46 135.391 262.98 136.782 265.113 137.901C268.489 139.657 270.113 138.573 270.75 136.028L270.771 136.039Z" fill="#EBEBEB"/>
<path d="M270.495 161.442C270.622 160.936 270.697 160.347 270.728 159.698C270.92 156.081 274.03 156.659 276.673 156.164C278.743 155.787 273.265 149.99 277.437 148.116C278.212 147.775 279.05 147.374 279.443 146.561C279.963 145.477 279.443 144.063 278.541 143.356C277.639 142.649 276.482 142.496 275.378 142.473C274.698 141.554 275.25 140.175 275.909 139.244C276.567 138.313 277.373 137.241 277.119 136.087C276.747 134.343 274.55 134.284 272.958 134.626C272.374 133.577 272.384 132.257 272.098 131.056C271.811 129.854 270.951 128.605 269.847 128.758C268.807 128.899 268.17 130.207 267.141 130.478C265.952 130.785 264.922 129.618 263.999 128.746C263.065 127.874 261.441 127.32 260.793 128.475C260.411 129.17 260.634 130.125 260.241 130.808C259.551 131.986 257.906 131.256 256.887 130.419C255.868 129.583 254.244 128.829 253.533 129.983C253.31 130.337 253.267 130.785 253.14 131.197C252.662 132.74 251.155 133.506 249.987 134.496C248.82 135.486 247.885 137.453 248.883 138.667C249.372 139.268 250.231 139.503 250.475 140.269C250.783 141.224 249.902 142.072 249.212 142.72C248.066 143.804 247.854 147.056 249.372 147.951C250.008 148.328 250.943 148.435 251.102 149.224C251.24 149.919 250.603 150.473 250.178 151.003C249.011 152.488 249.51 155.15 251.102 155.999C251.463 156.187 251.919 156.352 252.046 156.776C252.142 157.083 252.046 157.413 251.962 157.719C251.813 158.308 251.76 158.921 251.813 159.534C251.834 159.746 251.866 159.969 252.015 160.099C252.142 160.217 252.322 160.24 252.492 160.252C254.69 160.358 255.751 159.498 257.089 161.619C257.216 161.819 257.354 162.031 257.545 162.161C257.725 162.279 257.938 162.314 258.15 162.326C259.657 162.467 260.644 161.419 262.024 161.218C263.935 160.947 264.349 162.043 266.037 162.927C268.69 164.317 269.975 163.457 270.474 161.454L270.495 161.442Z" fill="#EBEBEB"/>
<path d="M258.511 152.664C258.67 152.016 258.766 151.274 258.808 150.449C259.052 145.866 263.001 146.585 266.355 145.96C268.977 145.477 262.035 138.113 267.321 135.745C268.308 135.309 269.37 134.802 269.869 133.765C270.537 132.399 269.869 130.596 268.712 129.701C267.565 128.805 266.1 128.617 264.699 128.581C263.839 127.415 264.54 125.671 265.368 124.481C266.206 123.291 267.225 121.936 266.907 120.475C266.429 118.26 263.638 118.177 261.632 118.613C260.888 117.282 260.899 115.609 260.538 114.089C260.177 112.569 259.084 110.978 257.683 111.167C256.356 111.344 255.549 113.005 254.254 113.347C252.747 113.735 251.441 112.263 250.252 111.155C249.074 110.048 247.004 109.352 246.187 110.813C245.699 111.685 245.996 112.911 245.486 113.771C244.605 115.267 242.525 114.336 241.23 113.276C239.935 112.215 237.876 111.261 236.963 112.722C236.687 113.17 236.623 113.735 236.464 114.254C235.848 116.21 233.948 117.188 232.451 118.448C230.965 119.709 229.787 122.207 231.05 123.739C231.666 124.493 232.759 124.799 233.067 125.765C233.449 126.967 232.345 128.051 231.464 128.876C229.999 130.254 229.734 134.378 231.666 135.509C232.473 135.981 233.662 136.134 233.863 137.123C234.044 138.007 233.226 138.702 232.685 139.386C231.199 141.271 231.836 144.652 233.863 145.736C234.33 145.984 234.893 146.184 235.073 146.726C235.201 147.115 235.063 147.527 234.967 147.928C234.776 148.67 234.712 149.46 234.776 150.225C234.797 150.485 234.85 150.779 235.031 150.944C235.19 151.097 235.424 151.121 235.647 151.133C238.438 151.274 239.786 150.178 241.485 152.865C241.644 153.124 241.824 153.395 242.068 153.548C242.302 153.701 242.567 153.737 242.843 153.76C244.765 153.937 246.017 152.606 247.769 152.358C250.199 152.016 250.72 153.407 252.853 154.526C256.229 156.282 257.853 155.198 258.49 152.653L258.511 152.664Z" fill="#EBEBEB"/>
<path d="M292.17 113.323C292.33 112.675 292.425 111.933 292.468 111.108C292.712 106.525 296.66 107.243 300.015 106.619C302.637 106.136 295.695 98.7718 300.981 96.4035C301.968 95.9676 303.029 95.4609 303.528 94.4241C304.197 93.0573 303.528 91.2546 302.371 90.3591C301.225 89.4637 299.76 89.2752 298.359 89.2398C297.499 88.0734 298.2 86.3296 299.028 85.1395C299.856 83.9495 300.885 82.5945 300.567 81.1335C300.089 78.9184 297.297 78.836 295.291 79.2719C294.548 77.9405 294.559 76.2674 294.198 74.7475C293.837 73.2275 292.744 71.6369 291.342 71.8254C290.016 72.0022 289.209 73.6635 287.914 74.0052C286.407 74.394 285.101 72.9212 283.912 71.8137C282.734 70.7061 280.664 70.011 279.847 71.472C279.358 72.3439 279.656 73.5692 279.146 74.4293C278.265 75.9257 276.185 74.9949 274.89 73.9345C273.595 72.8741 271.535 71.9197 270.622 73.3807C270.346 73.8284 270.283 74.394 270.124 74.9124C269.508 76.8683 267.597 77.8462 266.111 79.107C264.625 80.3677 263.447 82.8655 264.71 84.3972C265.326 85.1513 266.419 85.4577 266.727 86.4238C267.109 87.6256 266.005 88.7096 265.124 89.5344C263.659 90.9129 263.394 95.0368 265.326 96.1679C266.132 96.6392 267.321 96.7923 267.523 97.782C267.703 98.6657 266.886 99.3609 266.345 100.044C264.859 101.929 265.495 105.311 267.523 106.395C267.99 106.642 268.553 106.843 268.733 107.385C268.86 107.774 268.722 108.186 268.627 108.587C268.436 109.329 268.372 110.118 268.436 110.884C268.457 111.143 268.51 111.438 268.691 111.603C268.85 111.756 269.083 111.78 269.306 111.791C272.098 111.933 273.446 110.837 275.144 113.523C275.304 113.783 275.484 114.054 275.728 114.207C275.962 114.36 276.227 114.395 276.503 114.419C278.424 114.596 279.677 113.264 281.428 113.017C283.859 112.675 284.379 114.065 286.513 115.185C289.888 116.94 291.512 115.856 292.149 113.311L292.17 113.323Z" fill="#EBEBEB"/>
<path d="M319.652 114.89C319.812 114.242 319.907 113.5 319.95 112.675C320.194 108.092 324.142 108.81 327.497 108.186C330.119 107.703 323.176 100.339 328.463 97.9705C329.45 97.5346 330.511 97.0279 331.01 95.9911C331.679 94.6243 331.01 92.8216 329.853 91.9262C328.707 91.0307 327.242 90.8422 325.841 90.8068C324.981 89.6404 325.682 87.8966 326.509 86.7066C327.348 85.5165 328.367 84.1616 328.049 82.7005C327.571 80.4855 324.779 80.403 322.773 80.8389C322.03 79.5075 322.041 77.8344 321.68 76.3145C321.319 74.7946 320.226 73.2039 318.824 73.3925C317.498 73.5692 316.691 75.2305 315.396 75.5722C313.889 75.961 312.583 74.4882 311.394 73.3807C310.205 72.2731 308.146 71.578 307.329 73.039C306.84 73.9109 307.138 75.1363 306.628 75.9964C305.747 77.4927 303.667 76.5619 302.371 75.5015C301.076 74.4411 299.017 73.4867 298.104 74.9477C297.828 75.3955 297.765 75.961 297.605 76.4795C296.99 78.4353 295.09 79.4133 293.593 80.674C292.107 81.9347 290.929 84.4326 292.192 85.9643C292.808 86.7183 293.901 87.0247 294.209 87.9908C294.591 89.1926 293.487 90.2766 292.606 91.1014C291.141 92.4799 290.876 96.6038 292.808 97.7349C293.614 98.2062 294.803 98.3593 295.005 99.3491C295.185 100.233 294.368 100.928 293.827 101.611C292.341 103.496 292.977 106.878 295.005 107.962C295.472 108.209 296.034 108.41 296.215 108.952C296.342 109.341 296.204 109.753 296.109 110.154C295.918 110.896 295.854 111.685 295.918 112.451C295.939 112.71 295.992 113.005 296.172 113.17C296.332 113.323 296.565 113.347 296.788 113.358C299.58 113.5 300.928 112.404 302.626 115.09C302.785 115.35 302.966 115.621 303.21 115.774C303.444 115.927 303.709 115.962 303.985 115.986C305.906 116.163 307.159 114.831 308.91 114.584C311.341 114.242 311.861 115.632 313.995 116.752C317.37 118.507 318.994 117.423 319.631 114.878L319.652 114.89Z" fill="#EBEBEB"/>
<path d="M336.339 127.368C336.498 126.72 336.593 125.977 336.636 125.152C336.88 120.569 340.829 121.288 344.183 120.663C346.805 120.18 339.863 112.816 345.149 110.448C346.136 110.012 347.197 109.505 347.696 108.469C348.365 107.102 347.696 105.299 346.539 104.404C345.393 103.508 343.928 103.32 342.527 103.284C341.667 102.118 342.368 100.374 343.196 99.1841C344.034 97.9941 345.053 96.6391 344.735 95.1781C344.257 92.963 341.465 92.8805 339.459 93.3165C338.716 91.9733 338.727 90.312 338.366 88.792C338.005 87.2721 336.912 85.6815 335.511 85.87C334.184 86.0467 333.377 87.7081 332.082 88.0497C330.575 88.4386 329.269 86.9658 328.091 85.8582C326.913 84.7507 324.843 84.0555 324.025 85.5165C323.537 86.3884 323.834 87.6138 323.325 88.4739C322.444 89.9703 320.363 89.0395 319.068 87.979C317.773 86.9186 315.714 85.9643 314.801 87.4253C314.525 87.873 314.461 88.4386 314.302 88.957C313.687 90.9129 311.787 91.8908 310.29 93.1515C308.804 94.4122 307.626 96.9101 308.889 98.4418C309.504 99.1959 310.598 99.5022 310.906 100.468C311.288 101.67 310.184 102.754 309.303 103.579C307.838 104.957 307.572 109.081 309.504 110.212C310.311 110.684 311.5 110.837 311.702 111.827C311.882 112.71 311.065 113.405 310.523 114.089C309.037 115.974 309.674 119.356 311.702 120.44C312.169 120.687 312.731 120.887 312.912 121.429C313.039 121.818 312.901 122.23 312.806 122.631C312.615 123.373 312.551 124.163 312.614 124.929C312.636 125.188 312.689 125.482 312.869 125.647C313.028 125.801 313.262 125.824 313.485 125.836C316.277 125.977 317.625 124.881 319.323 127.568C319.482 127.827 319.663 128.098 319.907 128.251C320.14 128.404 320.406 128.44 320.682 128.463C322.603 128.64 323.856 127.309 325.607 127.061C328.038 126.72 328.558 128.11 330.691 129.229C334.067 130.985 335.691 129.901 336.328 127.356L336.339 127.368Z" fill="#EBEBEB"/>
<path d="M331.286 143.144C331.286 143.144 324.301 154.102 321.902 157.578C319.493 161.053 307.456 182.698 305.821 197.013C305.651 198.545 305.471 199.853 305.301 201.008C310.481 238.935 309.664 308.333 309.483 320.222H293.083C292.935 306.825 291.534 184.359 291.024 180.624C290.483 176.665 283.626 161.595 273.032 155.41C262.439 149.224 253.289 128.734 253.289 128.734H256.664C256.664 128.734 262.927 141.294 271.833 148.246C273.128 149.259 274.465 150.096 275.845 150.885C275.527 139.562 279.39 128.746 279.39 128.746L281.216 130.62C278.753 141.801 279.082 148.965 279.826 153.089C282.819 154.75 285.918 156.67 289.039 159.934C298.274 146.596 303.475 116.104 303.475 116.104L305.842 117.541C305.842 117.541 305.078 125.824 302.785 136.24C301.055 144.134 295.96 158.992 293.593 165.743C295.949 169.372 298.285 174.073 300.567 180.282C300.822 179.835 301.119 179.434 301.458 179.092C307.477 173.048 318.792 144.511 318.792 144.511C321.531 137.877 317.349 120.463 317.349 120.463H320.512L321.924 135.698L329.864 126.083L331.307 127.415L322.879 139.445L318.548 154.679L329.864 140.776L331.307 143.18L331.286 143.144Z" fill="#E6E6E6"/>
<path d="M33.2019 197.379C33.0745 196.884 33.0002 196.306 32.9684 195.682C32.7773 192.159 29.7521 192.725 27.1727 192.241C25.1559 191.864 30.4845 186.221 26.4297 184.406C25.676 184.064 24.8587 183.687 24.4766 182.886C23.967 181.838 24.4766 180.447 25.3576 179.764C26.2386 179.081 27.3638 178.927 28.4359 178.904C29.094 178.008 28.5632 176.665 27.9157 175.758C27.2789 174.851 26.4934 173.814 26.7375 172.683C27.109 170.986 29.2426 170.927 30.7817 171.257C31.3549 170.232 31.3443 168.948 31.6203 167.781C31.8963 166.615 32.7348 165.389 33.8069 165.543C34.826 165.684 35.4416 166.956 36.4394 167.216C37.5964 167.522 38.5942 166.379 39.5071 165.531C40.4199 164.682 42.0015 164.152 42.6278 165.272C42.9993 165.943 42.7764 166.874 43.1692 167.546C43.8485 168.688 45.4407 167.982 46.4385 167.169C47.4363 166.356 49.0073 165.613 49.7079 166.744C49.9202 167.086 49.9733 167.522 50.09 167.923C50.5571 169.431 52.0219 170.173 53.1683 171.139C54.3041 172.105 55.2169 174.026 54.251 175.204C53.7733 175.781 52.9348 176.017 52.7012 176.759C52.404 177.678 53.2532 178.515 53.9326 179.151C55.0577 180.212 55.2594 183.381 53.7733 184.241C53.1471 184.606 52.2342 184.712 52.0856 185.478C51.9476 186.162 52.5739 186.692 52.9878 187.21C54.1236 188.648 53.646 191.252 52.0856 192.076C51.7247 192.265 51.2895 192.418 51.1621 192.831C51.0666 193.125 51.1621 193.443 51.247 193.75C51.3956 194.315 51.4381 194.928 51.385 195.517C51.3638 195.717 51.3319 195.941 51.194 196.071C51.0666 196.189 50.8861 196.212 50.7269 196.212C48.5827 196.318 47.5531 195.482 46.2475 197.544C46.1201 197.744 45.9927 197.944 45.8016 198.074C45.6212 198.192 45.4195 198.215 45.2072 198.239C43.7318 198.368 42.7764 197.355 41.4284 197.166C39.5602 196.907 39.1674 197.968 37.5221 198.828C34.9321 200.183 33.6796 199.346 33.2019 197.39V197.379Z" fill="#EBEBEB"/>
<path d="M57.8599 194.421C57.7325 193.926 57.6582 193.349 57.6263 192.725C57.4353 189.202 54.4101 189.767 51.8307 189.284C49.8139 188.907 55.1425 183.263 51.0876 181.449C50.334 181.107 49.5166 180.73 49.1345 179.929C48.625 178.88 49.1345 177.49 50.0155 176.807C50.8966 176.123 52.0217 175.97 53.0938 175.946C53.7519 175.051 53.2212 173.708 52.5737 172.801C51.9368 171.893 51.1513 170.856 51.3955 169.725C51.767 168.029 53.9005 167.97 55.4503 168.3C56.0235 167.275 56.0129 165.99 56.2889 164.824C56.5649 163.657 57.4034 162.432 58.4755 162.585C59.4945 162.727 60.1102 163.999 61.108 164.258C62.265 164.565 63.2628 163.422 64.1757 162.573C65.0885 161.725 66.6701 161.195 67.2964 162.314C67.6679 162.986 67.445 163.928 67.8377 164.588C68.5171 165.731 70.1093 165.024 71.1071 164.211C72.1049 163.398 73.6759 162.668 74.3765 163.787C74.5888 164.129 74.6418 164.565 74.7586 164.965C75.2256 166.473 76.6905 167.216 77.8369 168.182C78.9727 169.148 79.8855 171.068 78.9196 172.247C78.4419 172.824 77.6033 173.06 77.3698 173.802C77.0726 174.721 77.9218 175.558 78.6011 176.194C79.7263 177.254 79.928 180.424 78.4419 181.284C77.8156 181.649 76.9028 181.755 76.7542 182.521C76.6162 183.204 77.2424 183.735 77.6564 184.253C78.7922 185.69 78.3145 188.294 76.7542 189.119C76.3933 189.308 75.9581 189.461 75.8307 189.873C75.7351 190.168 75.8307 190.486 75.9156 190.792C76.0642 191.358 76.1067 191.97 76.0536 192.56C76.0324 192.76 76.0005 192.984 75.8625 193.113C75.7352 193.231 75.5547 193.255 75.3955 193.255C73.2513 193.361 72.2217 192.524 70.916 194.586C70.7887 194.786 70.6613 194.987 70.4702 195.116C70.2898 195.234 70.0881 195.258 69.8758 195.281C68.4003 195.411 67.445 194.398 66.0969 194.209C64.2287 193.95 63.836 195.01 62.1907 195.87C59.6007 197.225 58.3481 196.389 57.8705 194.433L57.8599 194.421Z" fill="#EBEBEB"/>
<path d="M60.2378 176.995C60.1104 176.5 60.0361 175.923 60.0043 175.298C59.8132 171.775 56.788 172.341 54.2086 171.858C52.1918 171.481 57.5204 165.837 53.4656 164.023C52.7119 163.681 51.8946 163.304 51.5124 162.503C51.0029 161.454 51.5124 160.064 52.3935 159.38C53.2745 158.697 54.3997 158.544 55.4718 158.52C56.1299 157.625 55.5991 156.282 54.9516 155.374C54.3147 154.467 53.5292 153.43 53.7734 152.299C54.1449 150.602 56.2785 150.544 57.8282 150.873C58.4014 149.848 58.3908 148.564 58.6668 147.398C58.9428 146.231 59.7814 145.006 60.8534 145.159C61.8725 145.3 62.4881 146.573 63.4859 146.832C64.6429 147.138 65.6407 145.996 66.5536 145.147C67.4665 144.299 69.0481 143.769 69.6743 144.888C70.0458 145.56 69.8229 146.49 70.2157 147.162C70.895 148.305 72.4872 147.598 73.485 146.785C74.4828 145.972 76.0538 145.23 76.7544 146.361C76.9667 146.703 77.0198 147.138 77.1365 147.539C77.6036 149.047 79.0684 149.789 80.2148 150.756C81.3506 151.722 82.2635 153.642 81.2975 154.821C80.8198 155.398 79.9813 155.634 79.7477 156.376C79.4505 157.295 80.2997 158.131 80.9791 158.768C82.1042 159.828 82.3059 162.998 80.8198 163.858C80.1936 164.223 79.2807 164.329 79.1321 165.095C78.9941 165.778 79.6204 166.308 80.0344 166.827C81.1701 168.264 80.6925 170.868 79.1321 171.693C78.7712 171.881 78.336 172.035 78.2086 172.447C78.1131 172.742 78.2086 173.06 78.2935 173.366C78.4421 173.932 78.4846 174.533 78.4315 175.133C78.4103 175.334 78.3784 175.558 78.2405 175.687C78.1131 175.805 77.9326 175.829 77.7734 175.829C75.6292 175.935 74.5996 175.098 73.294 177.16C73.1666 177.36 73.0392 177.561 72.8481 177.69C72.6677 177.808 72.466 177.832 72.2537 177.855C70.7783 177.985 69.8229 176.971 68.4749 176.783C66.6067 176.524 66.2139 177.584 64.5686 178.444C61.9786 179.799 60.7261 178.963 60.2484 177.007L60.2378 176.995Z" fill="#EBEBEB"/>
<path d="M76.4783 185.679C76.3509 185.184 76.2766 184.606 76.2447 183.982C76.0537 180.459 73.0285 181.025 70.4491 180.542C68.4323 180.164 73.7609 174.521 69.706 172.706C68.9524 172.365 68.1351 171.988 67.7529 171.186C67.2434 170.138 67.7529 168.747 68.6339 168.064C69.515 167.381 70.6401 167.227 71.7122 167.204C72.3703 166.308 71.8396 164.965 71.1921 164.058C70.5552 163.151 69.7697 162.114 70.0139 160.983C70.3854 159.286 72.519 159.227 74.0581 159.557C74.6313 158.532 74.6207 157.248 74.8967 156.081C75.1726 154.915 76.0112 153.689 77.0833 153.843C78.1023 153.984 78.718 155.257 79.7158 155.516C80.8728 155.822 81.8706 154.679 82.7834 153.831C83.6857 152.983 85.2779 152.452 85.9042 153.572C86.2757 154.243 86.0528 155.186 86.4455 155.846C87.1249 156.989 88.7171 156.282 89.7149 155.469C90.7127 154.656 92.2837 153.913 92.9842 155.044C93.1965 155.386 93.2496 155.822 93.3664 156.223C93.8334 157.731 95.2983 158.473 96.4447 159.439C97.5804 160.405 98.4933 162.326 97.5274 163.504C97.0497 164.082 96.2111 164.317 95.9776 165.059C95.6804 165.978 96.5296 166.815 97.2089 167.451C98.3341 168.512 98.5358 171.681 97.0497 172.541C96.4234 172.907 95.5106 173.013 95.362 173.778C95.224 174.462 95.8502 174.992 96.2642 175.51C97.4 176.948 96.9223 179.552 95.362 180.377C95.0011 180.565 94.5659 180.718 94.4385 181.131C94.3429 181.425 94.4385 181.743 94.5234 182.05C94.672 182.615 94.7145 183.228 94.6614 183.817C94.6402 184.017 94.6083 184.241 94.4703 184.371C94.3429 184.489 94.1625 184.512 94.0033 184.512C91.8591 184.618 90.8294 183.782 89.5238 185.844C89.3965 186.044 89.2691 186.244 89.078 186.374C88.8976 186.492 88.6959 186.515 88.4836 186.539C87.0081 186.668 86.0528 185.655 84.7047 185.467C82.8365 185.207 82.4438 186.268 80.7985 187.128C78.2085 188.483 76.9559 187.646 76.4783 185.69V185.679Z" fill="#EBEBEB"/>
<path d="M92.8889 181.673C92.7615 181.178 92.6872 180.6 92.6554 179.976C92.4643 176.453 89.4391 177.019 86.8597 176.536C84.8429 176.158 90.1715 170.515 86.1167 168.7C85.363 168.359 84.5457 167.981 84.1636 167.18C83.6541 166.132 84.1636 164.741 85.0446 164.058C85.9256 163.375 87.0508 163.221 88.1229 163.198C88.781 162.302 88.2503 160.959 87.6027 160.052C86.9659 159.145 86.1804 158.108 86.4245 156.977C86.796 155.28 88.9296 155.221 90.4687 155.551C91.0419 154.526 91.0313 153.242 91.3073 152.075C91.5833 150.909 92.4219 149.683 93.4939 149.837C94.513 149.978 95.1286 151.251 96.1264 151.51C97.2834 151.816 98.2812 150.673 99.1941 149.825C100.107 148.977 101.689 148.446 102.315 149.566C102.686 150.237 102.463 151.18 102.856 151.84C103.536 152.983 105.128 152.276 106.126 151.463C107.123 150.65 108.694 149.907 109.395 151.038C109.607 151.38 109.66 151.816 109.777 152.217C110.244 153.725 111.709 154.467 112.855 155.433C113.991 156.399 114.904 158.32 113.938 159.498C113.46 160.076 112.622 160.311 112.388 161.053C112.091 161.972 112.94 162.809 113.62 163.445C114.745 164.506 114.946 167.675 113.46 168.535C112.834 168.901 111.921 169.007 111.773 169.772C111.635 170.456 112.261 170.986 112.675 171.504C113.811 172.942 113.333 175.546 111.773 176.371C111.412 176.559 110.976 176.712 110.849 177.125C110.754 177.419 110.849 177.737 110.934 178.044C111.083 178.609 111.125 179.21 111.072 179.811C111.051 180.011 111.019 180.235 110.881 180.365C110.754 180.483 110.573 180.506 110.414 180.506C108.27 180.612 107.24 179.776 105.934 181.838C105.807 182.038 105.68 182.238 105.489 182.368C105.308 182.486 105.107 182.509 104.894 182.533C103.419 182.662 102.463 181.649 101.115 181.461C99.2472 181.201 98.8544 182.262 97.2091 183.122C94.6191 184.477 93.3666 183.64 92.8889 181.684V181.673Z" fill="#EBEBEB"/>
<path d="M93.1009 201.161C93.0053 200.772 92.9416 200.324 92.9204 199.829C92.7718 197.06 90.3835 197.496 88.3561 197.119C86.7745 196.825 90.9673 192.383 87.7722 190.945C87.1778 190.674 86.5303 190.38 86.2331 189.755C85.8297 188.931 86.2331 187.835 86.9337 187.293C87.6236 186.751 88.5153 186.633 89.3645 186.621C89.8846 185.914 89.46 184.854 88.9611 184.147C88.4516 183.428 87.8359 182.615 88.027 181.732C88.3136 180.388 90.0014 180.341 91.2114 180.6C91.6573 179.787 91.6573 178.786 91.8695 177.867C92.0818 176.948 92.7506 175.982 93.5998 176.1C94.3959 176.206 94.8841 177.207 95.6696 177.419C96.5825 177.655 97.368 176.759 98.0792 176.088C98.7904 175.416 100.043 175.004 100.531 175.887C100.828 176.418 100.648 177.148 100.956 177.678C101.487 178.586 102.75 178.02 103.525 177.384C104.31 176.748 105.552 176.158 106.104 177.054C106.274 177.325 106.306 177.667 106.412 177.985C106.783 179.175 107.93 179.764 108.832 180.518C109.734 181.272 110.445 182.792 109.681 183.711C109.31 184.171 108.652 184.359 108.46 184.936C108.227 185.667 108.896 186.315 109.426 186.822C110.307 187.658 110.467 190.144 109.299 190.828C108.811 191.11 108.089 191.205 107.972 191.805C107.866 192.347 108.354 192.76 108.683 193.172C109.575 194.303 109.203 196.353 107.972 197.002C107.696 197.155 107.346 197.273 107.24 197.602C107.165 197.838 107.24 198.086 107.303 198.321C107.42 198.769 107.452 199.24 107.42 199.711C107.41 199.876 107.378 200.041 107.272 200.147C107.176 200.242 107.027 200.253 106.9 200.265C105.212 200.348 104.406 199.688 103.376 201.314C103.28 201.467 103.174 201.632 103.026 201.726C102.888 201.821 102.718 201.844 102.559 201.856C101.402 201.962 100.637 201.161 99.5865 201.008C98.1217 200.795 97.8032 201.644 96.5082 202.315C94.4702 203.376 93.483 202.728 93.1009 201.184V201.161Z" fill="#EBEBEB"/>
<path d="M102.304 194.421C102.177 193.926 102.103 193.349 102.071 192.725C101.88 189.202 98.8544 189.767 96.275 189.284C94.2582 188.907 99.5868 183.263 95.532 181.449C94.7783 181.107 93.961 180.73 93.5788 179.929C93.0693 178.88 93.5788 177.49 94.4599 176.807C95.3409 176.123 96.4661 175.97 97.5382 175.946C98.1963 175.051 97.6655 173.708 97.018 172.801C96.3812 171.893 95.5957 170.856 95.8398 169.725C96.2113 168.029 98.3449 167.97 99.884 168.3C100.457 167.275 100.447 165.99 100.723 164.824C100.999 163.657 101.837 162.432 102.909 162.585C103.928 162.727 104.544 163.999 105.542 164.258C106.699 164.565 107.697 163.422 108.609 162.573C109.522 161.725 111.104 161.195 111.73 162.314C112.102 162.986 111.879 163.928 112.271 164.588C112.951 165.731 114.543 165.024 115.541 164.211C116.539 163.398 118.11 162.668 118.81 163.787C119.022 164.129 119.076 164.565 119.192 164.965C119.659 166.473 121.124 167.216 122.271 168.182C123.406 169.148 124.319 171.068 123.353 172.247C122.876 172.824 122.037 173.06 121.804 173.802C121.506 174.721 122.356 175.558 123.035 176.194C124.16 177.254 124.362 180.424 122.876 181.284C122.249 181.649 121.336 181.755 121.188 182.521C121.05 183.204 121.676 183.735 122.09 184.253C123.226 185.69 122.748 188.294 121.188 189.119C120.827 189.308 120.392 189.461 120.264 189.873C120.169 190.168 120.264 190.486 120.349 190.792C120.498 191.358 120.54 191.97 120.487 192.56C120.466 192.76 120.434 192.984 120.296 193.113C120.169 193.231 119.988 193.255 119.829 193.255C117.685 193.361 116.655 192.524 115.35 194.586C115.222 194.786 115.095 194.987 114.904 195.116C114.723 195.234 114.522 195.258 114.31 195.281C112.834 195.411 111.879 194.398 110.531 194.209C108.662 193.95 108.27 195.01 106.624 195.87C104.034 197.225 102.782 196.389 102.304 194.433V194.421Z" fill="#EBEBEB"/>
<path d="M76.4783 164.235C76.3509 163.74 76.2766 163.163 76.2447 162.538C76.0537 159.015 73.0285 159.581 70.4491 159.098C68.4323 158.721 73.7609 153.077 69.706 151.262C68.9524 150.921 68.1351 150.544 67.7529 149.742C67.2434 148.694 67.7529 147.303 68.6339 146.62C69.515 145.937 70.6401 145.783 71.7122 145.76C72.3703 144.864 71.8396 143.521 71.1921 142.614C70.5552 141.707 69.7697 140.67 70.0139 139.539C70.3854 137.842 72.519 137.783 74.0581 138.113C74.6313 137.088 74.6207 135.804 74.8967 134.637C75.1726 133.471 76.0112 132.246 77.0833 132.399C78.1023 132.54 78.718 133.813 79.7158 134.072C80.8728 134.378 81.8706 133.235 82.7834 132.387C83.6857 131.539 85.2779 131.008 85.9042 132.128C86.2757 132.799 86.0528 133.742 86.4455 134.402C87.1249 135.545 88.7171 134.838 89.7149 134.025C90.7127 133.212 92.2837 132.481 92.9842 133.6C93.1965 133.942 93.2496 134.378 93.3664 134.779C93.8334 136.287 95.2983 137.029 96.4447 137.995C97.5911 138.961 98.4933 140.882 97.5274 142.06C97.0497 142.638 96.2111 142.873 95.9776 143.616C95.6804 144.535 96.5296 145.371 97.2089 146.007C98.3341 147.068 98.5358 150.237 97.0497 151.097C96.4234 151.463 95.5106 151.569 95.362 152.334C95.224 153.018 95.8502 153.548 96.2642 154.067C97.4 155.504 96.9223 158.108 95.362 158.933C95.0011 159.121 94.5659 159.274 94.4385 159.687C94.3429 159.981 94.4385 160.299 94.5234 160.606C94.672 161.171 94.7145 161.772 94.6614 162.373C94.6402 162.573 94.6083 162.797 94.4703 162.927C94.3429 163.045 94.1625 163.068 94.0033 163.068C91.8591 163.174 90.8294 162.338 89.5238 164.4C89.3965 164.6 89.2691 164.8 89.078 164.93C88.8976 165.048 88.6959 165.071 88.4836 165.095C87.0081 165.224 86.0528 164.211 84.7047 164.023C82.8365 163.763 82.4438 164.824 80.7985 165.684C78.2085 167.039 76.9559 166.202 76.4783 164.246V164.235Z" fill="#EBEBEB"/>
<path d="M55.3865 165.436C55.2591 164.942 55.1848 164.364 55.1529 163.74C54.9619 160.217 51.9367 160.782 49.3573 160.299C47.3405 159.922 52.6691 154.279 48.6142 152.464C47.8606 152.122 47.0433 151.745 46.6611 150.944C46.1516 149.896 46.6611 148.505 47.5421 147.822C48.4232 147.138 49.5483 146.985 50.6204 146.962C51.2785 146.066 50.7478 144.723 50.1003 143.816C49.4634 142.909 48.6779 141.872 48.9221 140.741C49.2936 139.044 51.4272 138.985 52.9663 139.315C53.5395 138.29 53.5289 137.006 53.8049 135.839C54.0809 134.673 54.9194 133.447 55.9915 133.6C57.0105 133.742 57.6262 135.014 58.624 135.274C59.781 135.58 60.7788 134.437 61.6916 133.589C62.6045 132.74 64.1861 132.21 64.8124 133.329C65.1839 134.001 64.961 134.944 65.3537 135.603C66.0331 136.746 67.6253 136.039 68.6231 135.226C69.6209 134.413 71.1919 133.683 71.8925 134.802C72.1047 135.144 72.1578 135.58 72.2746 135.981C72.7416 137.489 74.2065 138.231 75.3529 139.197C76.4886 140.163 77.4015 142.084 76.4356 143.262C75.9579 143.839 75.1193 144.075 74.8858 144.817C74.5886 145.736 75.4378 146.573 76.1171 147.209C77.2423 148.27 77.444 151.439 75.9579 152.299C75.3316 152.664 74.4188 152.77 74.2702 153.536C74.1322 154.22 74.7584 154.75 75.1724 155.268C76.3082 156.706 75.8305 159.31 74.2702 160.134C73.9093 160.323 73.4741 160.476 73.3467 160.888C73.2511 161.183 73.3467 161.501 73.4316 161.808C73.5802 162.373 73.6227 162.974 73.5696 163.575C73.5484 163.775 73.5165 163.999 73.3785 164.129C73.2511 164.246 73.0707 164.27 72.9115 164.27C70.7673 164.376 69.7376 163.54 68.432 165.601C68.3047 165.802 68.1773 166.002 67.9862 166.132C67.8058 166.249 67.6041 166.273 67.3918 166.297C65.9163 166.426 64.961 165.413 63.6129 165.224C61.7447 164.965 61.352 166.026 59.7067 166.886C57.1167 168.241 55.8641 167.404 55.3865 165.448V165.436Z" fill="#EBEBEB"/>
<path d="M42.5854 175.016C42.4581 174.521 42.3838 173.943 42.3519 173.319C42.1609 169.796 39.1356 170.362 36.5563 169.878C34.5394 169.501 39.8681 163.858 35.8132 162.043C35.0596 161.701 34.2422 161.324 33.8601 160.523C33.3506 159.475 33.8601 158.084 34.7411 157.401C35.6221 156.718 36.7473 156.564 37.8194 156.541C38.4775 155.645 37.9468 154.302 37.2993 153.395C36.6624 152.488 35.8769 151.451 36.121 150.32C36.4926 148.623 38.6261 148.564 40.1653 148.894C40.7385 147.869 40.7279 146.585 41.0038 145.418C41.2798 144.252 42.1184 143.026 43.1905 143.18C44.2095 143.321 44.8252 144.593 45.823 144.853C46.98 145.159 47.9778 144.016 48.8906 143.168C49.8035 142.319 51.3851 141.789 52.0114 142.909C52.3829 143.58 52.16 144.523 52.5527 145.183C53.2321 146.325 54.8243 145.619 55.8221 144.806C56.8092 143.993 58.3909 143.25 59.0914 144.381C59.3037 144.723 59.3568 145.159 59.4736 145.56C59.9406 147.068 61.4054 147.81 62.5518 148.776C63.6876 149.742 64.6005 151.663 63.6345 152.841C63.1569 153.418 62.3183 153.654 62.0848 154.396C61.7876 155.315 62.6368 156.152 63.3161 156.788C64.4413 157.849 64.643 161.018 63.1569 161.878C62.5306 162.243 61.6177 162.35 61.4691 163.115C61.3311 163.799 61.9574 164.329 62.3714 164.847C63.5072 166.285 63.0295 168.889 61.4691 169.714C61.1082 169.902 60.673 170.055 60.5456 170.468C60.4501 170.762 60.5457 171.08 60.6306 171.387C60.7792 171.952 60.8216 172.553 60.7686 173.154C60.7473 173.354 60.7155 173.578 60.5775 173.708C60.4501 173.826 60.2697 173.849 60.1104 173.849C57.9663 173.955 56.9366 173.119 55.631 175.181C55.5036 175.381 55.3763 175.581 55.1852 175.711C55.0047 175.829 54.8031 175.852 54.5908 175.876C53.1153 176.005 52.16 174.992 50.8119 174.804C48.9437 174.544 48.551 175.605 46.9057 176.465C44.3157 177.82 43.0631 176.983 42.5854 175.027V175.016Z" fill="#EBEBEB"/>
<path d="M46.47 187.116C46.47 187.116 51.8304 195.517 53.6774 198.192C55.5244 200.854 64.7592 217.468 66.0118 228.449C66.1498 229.615 66.2771 230.628 66.4045 231.512C62.4346 260.615 63.0609 313.859 63.1989 322.979H75.788C75.9048 312.705 76.9768 218.74 77.3696 215.865C77.7836 212.825 83.0485 201.267 91.1794 196.518C99.3103 191.77 106.327 176.052 106.327 176.052H103.737C103.737 176.052 98.9388 185.69 92.1029 191.016C91.1157 191.794 90.0861 192.43 89.0246 193.043C89.2688 184.359 86.3072 176.052 86.3072 176.052L84.9061 177.49C86.7955 186.067 86.5408 191.57 85.9782 194.728C83.6854 196 81.3077 197.485 78.9087 199.971C71.8181 189.744 67.8375 166.344 67.8375 166.344L66.0224 167.44C66.0224 167.44 66.6168 173.79 68.3683 181.79C69.6951 187.847 73.6013 199.252 75.4271 204.424C73.6226 207.205 71.8287 210.81 70.0772 215.582C69.8756 215.241 69.6526 214.934 69.3979 214.675C64.7805 210.045 56.0976 188.141 56.0976 188.141C53.9958 183.051 57.2015 169.69 57.2015 169.69H54.7813L53.6986 181.378L47.6058 174.002L46.5018 175.027L52.9662 184.253L56.2886 195.941L47.6058 185.278L46.5018 187.128L46.47 187.116Z" fill="#E6E6E6"/>
<path d="M413.274 362.803L6.28245 362.803V348.759C6.28245 343.61 10.0507 339.427 14.6894 339.427L404.878 339.427C409.517 339.427 413.285 343.61 413.285 348.759V362.803H413.274Z" fill="#E0E0E0"/>
<path d="M56.31 344.118C56.31 344.118 54.8346 333.038 47.935 331.818C41.0247 330.609 43.1159 325.248 41.3113 323.167C39.5068 321.097 34.8151 327.209 38.8381 333.147C42.8611 339.074 39.5705 337.211 41.3113 342.724C43.0522 348.237 56.9469 353.303 56.31 344.118Z" fill="#263238"/>
<path opacity="0.2" d="M56.31 344.118C56.31 344.118 54.8346 333.038 47.935 331.818C41.0247 330.609 43.1159 325.248 41.3113 323.167C39.5068 321.097 34.8151 327.209 38.8381 333.147C42.8611 339.074 39.5705 337.211 41.3113 342.724C43.0522 348.237 56.9469 353.303 56.31 344.118Z" fill="white"/>
<path d="M56.0233 351.309C56.0233 351.309 50.7265 340.022 53.5076 321.588C56.2887 303.164 66.723 296.006 57.6474 275.731C48.5717 255.455 38.2117 240.997 43.3917 226.605" stroke="#263238" stroke-width="0.9" stroke-linecap="round" stroke-linejoin="round"/>
<path d="M52.0324 349.097C52.0324 349.097 47.5636 342.19 54.0068 338.638C60.4499 335.086 61.7449 337.941 65.7255 335.392C69.7166 332.842 72.7312 326.654 73.4106 330.609C74.0899 334.564 69.4831 336.83 71.1178 338.638C72.7418 340.447 60.2801 352.203 52.0324 349.097Z" fill="#263238"/>
<path d="M41.5024 232.368C41.5024 232.368 37.1504 218.804 47.0433 218.521C56.9363 218.238 46.0349 230.93 41.5024 232.368Z" fill="#263238"/>
<path d="M50.0898 242.806C50.0898 242.806 53.0408 230.473 60.0571 233.066C67.0735 235.67 57.085 243.024 50.0898 242.806Z" fill="#263238"/>
<path d="M38.1799 243.874C38.1799 243.874 39.2414 234.024 31.7898 233.828C24.3383 233.632 27.6607 242.283 38.1799 243.874Z" fill="#263238"/>
<path d="M43.137 263.953C43.137 263.953 33.1378 254.801 29.5394 261.611C25.941 268.42 37.0865 269.836 43.137 263.953Z" fill="#263238"/>
<path d="M60.832 262.33C60.832 262.33 62.7108 247.131 70.7887 251.903C78.8665 256.664 67.8696 263.855 60.832 262.33Z" fill="#263238"/>
<path d="M67.9331 284.087C67.9331 284.087 61.9676 268.736 73.0494 270.468C84.1312 272.201 75.7562 280.361 67.9331 284.087Z" fill="#263238"/>
<path d="M50.939 289.567C50.939 289.567 41.5768 278.247 34.433 281.843C27.2787 285.427 33.1274 296.682 50.939 289.567Z" fill="#263238"/>
<path d="M59.4307 314.637C59.4307 314.637 67.4024 296.464 74.493 302.587C81.5837 308.71 69.9711 317.861 59.4307 314.637Z" fill="#263238"/>
<path d="M47.85 313.569C47.85 313.569 49.9517 299.471 42.0649 300.604C34.1781 301.737 36.248 310.355 47.85 313.569Z" fill="#263238"/>
<g opacity="0.2">
<path d="M41.5024 232.368C41.5024 232.368 37.1504 218.804 47.0433 218.521C56.9363 218.238 46.0349 230.93 41.5024 232.368Z" fill="white"/>
<path d="M50.0898 242.806C50.0898 242.806 53.0408 230.473 60.0571 233.066C67.0735 235.67 57.085 243.024 50.0898 242.806Z" fill="white"/>
<path d="M38.1799 243.874C38.1799 243.874 39.2414 234.024 31.7898 233.828C24.3383 233.632 27.6607 242.283 38.1799 243.874Z" fill="white"/>
<path d="M43.137 263.953C43.137 263.953 33.1378 254.801 29.5394 261.611C25.941 268.42 37.0865 269.836 43.137 263.953Z" fill="white"/>
<path d="M60.832 262.33C60.832 262.33 62.7108 247.131 70.7887 251.903C78.8665 256.664 67.8696 263.855 60.832 262.33Z" fill="white"/>
<path d="M67.9331 284.087C67.9331 284.087 61.9676 268.736 73.0494 270.468C84.1312 272.201 75.7562 280.361 67.9331 284.087Z" fill="white"/>
<path d="M50.939 289.567C50.939 289.567 41.5768 278.247 34.433 281.843C27.2787 285.427 33.1274 296.682 50.939 289.567Z" fill="white"/>
<path d="M59.4307 314.637C59.4307 314.637 67.4024 296.464 74.493 302.587C81.5837 308.71 69.9711 317.861 59.4307 314.637Z" fill="white"/>
<path d="M47.85 313.569C47.85 313.569 49.9517 299.471 42.0649 300.604C34.1781 301.737 36.248 310.355 47.85 313.569Z" fill="white"/>
</g>
<path d="M35.7065 240.649C35.7065 240.649 39.9631 247.142 45.78 250.487C45.78 250.487 49.6331 242.86 52.6371 241.008" stroke="#263238" stroke-width="0.9" stroke-linecap="round" stroke-linejoin="round"/>
<path d="M35.4624 263.049C35.4624 263.049 46.2789 262.689 54.845 269.335C54.845 269.335 59.6004 261.066 65.8419 257.285" stroke="#263238" stroke-width="0.9" stroke-linecap="round" stroke-linejoin="round"/>
<path d="M71.2025 276.82C71.2025 276.82 66.5532 289.371 60.6302 294.252C60.6302 294.252 48.3382 286.942 39.3157 286.756" stroke="#263238" stroke-width="0.9" stroke-linecap="round" stroke-linejoin="round"/>
<path d="M42.9673 305.18C42.9673 305.18 49.0389 317.349 53.5714 320.008C53.5714 320.008 57.8067 313.874 66.9673 311.052" stroke="#263238" stroke-width="0.9" stroke-linecap="round" stroke-linejoin="round"/>
<path d="M52.7225 347.452C52.7225 347.452 48.8905 341.199 44.5703 340.305C40.2501 339.412 38.3819 334.302 36.7897 337.374C35.1975 340.447 39.592 350.645 52.7225 347.441V347.452Z" fill="#263238"/>
<path d="M32.8515 371.999H74.6525L77.4548 345.535H30.0598L32.8515 371.999Z" fill="#FAFAFA"/>
<path d="M29.0832 350.546H78.4207L79.0576 344.936H28.4463L29.0832 350.546Z" fill="#FAFAFA"/>
<path opacity="0.3" d="M29.0832 350.546H78.4207L79.0576 344.936H28.4463L29.0832 350.546Z" fill="white"/>
<path d="M399.677 85.7981L396.046 121.588H377.874L374.244 85.7981H399.677Z" fill="#263238"/>
<path opacity="0.3" d="M399.677 85.7981L396.046 121.588H377.874L374.244 85.7981H399.677Z" fill="white"/>
<path d="M390.336 113.896H383.574V371.999H390.336V113.896Z" fill="#263238"/>
<path opacity="0.3" d="M390.336 113.896H383.574V371.999H390.336V113.896Z" fill="white"/>
<path d="M394.136 119.409H379.785L376.6 87.9771H397.32L394.136 119.409Z" fill="#FAFAFA"/>
<path opacity="0.4" d="M394.136 119.409H379.785L376.6 87.9771H397.32L394.136 119.409Z" fill="white"/>
<path d="M385.071 119.899H384.094L383.033 86.8876H384.009L385.071 119.899Z" fill="#263238"/>
<path opacity="0.3" d="M385.071 119.899H384.094L383.033 86.8876H384.009L385.071 119.899Z" fill="white"/>
<path opacity="0.2" d="M399.677 85.7981L396.046 121.588H384.625L383.256 85.7981H399.677Z" fill="white"/>
<path d="M386.96 74.293C386.96 74.293 376.186 85.2098 367.928 85.2098L370.486 86.9312H403.434L405.993 85.2098C397.734 85.2098 386.96 74.293 386.96 74.293V74.293Z" fill="#263238"/>
<path opacity="0.4" d="M405.993 85.2098L403.434 86.9312H370.486L367.928 85.2098C376.186 85.2098 386.96 74.293 386.96 74.293C386.96 74.293 397.734 85.2098 405.993 85.2098V85.2098Z" fill="white"/>
<path opacity="0.2" d="M405.993 85.2098L403.434 86.9312H382.035C381.388 85.8526 380.931 85.0681 380.931 85.0681C386.674 82.3335 386.96 74.293 386.96 74.293C386.96 74.293 397.734 85.2098 405.993 85.2098V85.2098Z" fill="white"/>
<path d="M381.154 367.227H392.766C394.21 367.227 395.388 368.436 395.388 369.918V371.999H378.532V369.918C378.532 368.436 379.71 367.227 381.154 367.227V367.227Z" fill="#263238"/>
<path opacity="0.5" d="M381.154 367.227H392.766C394.21 367.227 395.388 368.436 395.388 369.918V371.999H378.532V369.918C378.532 368.436 379.71 367.227 381.154 367.227V367.227Z" fill="white"/>
<path d="M317.688 76.6354H287.192C282.002 76.6354 277.798 80.9498 277.798 86.2775V113.515C277.798 118.843 282.002 123.157 287.192 123.157H299.251L302.435 131.753L305.619 123.157H317.678C322.868 123.157 327.072 118.843 327.072 113.515V86.2775C327.072 80.9498 322.868 76.6354 317.678 76.6354H317.688Z" fill="#FAFAFA"/>
<path opacity="0.7" d="M317.688 76.6354H287.192C282.002 76.6354 277.798 80.9498 277.798 86.2775V113.515C277.798 118.843 282.002 123.157 287.192 123.157H299.251L302.435 131.753L305.619 123.157H317.678C322.868 123.157 327.072 118.843 327.072 113.515V86.2775C327.072 80.9498 322.868 76.6354 317.678 76.6354H317.688Z" fill="white"/>
<path d="M313.14 110.765C319.051 104.698 319.051 94.8606 313.14 88.7934C307.229 82.7261 297.644 82.7261 291.733 88.7934C285.822 94.8607 285.822 104.698 291.733 110.765C297.645 116.832 307.229 116.832 313.14 110.765Z" fill="#FAFAFA"/>
<path d="M300.854 106.716C300.45 106.716 300.057 106.531 299.792 106.215L293.858 99.0355C293.36 98.4363 293.434 97.532 294.018 97.0199C294.601 96.5079 295.483 96.5841 295.981 97.1834L300.864 103.078L308.921 93.3374C309.42 92.7382 310.301 92.6619 310.885 93.174C311.468 93.6861 311.543 94.5903 311.044 95.1896L301.926 106.215C301.66 106.531 301.278 106.716 300.864 106.716H300.854Z" fill="white"/>
<path d="M359.118 371.999H366.123L351.793 288.979H344.788L359.118 371.999Z" fill="#263238"/>
<path d="M205.034 371.999H212.039L197.72 288.979H190.704L205.034 371.999Z" fill="#263238"/>
<path opacity="0.3" d="M359.118 371.999H366.123L351.793 288.979H344.788L359.118 371.999Z" fill="white"/>
<path opacity="0.3" d="M205.034 371.999H212.039L197.72 288.979H190.704L205.034 371.999Z" fill="white"/>
<path d="M144.051 337.778H355.445V330.489H144.051V337.778Z" fill="#263238"/>
<path opacity="0.5" d="M144.051 337.778H355.445V330.489H144.051V337.778Z" fill="white"/>
<path d="M294.474 371.999H287.468L301.798 288.979H308.803L294.474 371.999Z" fill="#263238"/>
<path d="M140.4 371.999H133.384L147.714 288.979H154.73L140.4 371.999Z" fill="#263238"/>
<path opacity="0.3" d="M294.474 371.999H287.468L301.798 288.979H308.803L294.474 371.999Z" fill="white"/>
<path opacity="0.3" d="M140.4 371.999H133.384L147.714 288.979H154.73L140.4 371.999Z" fill="white"/>
<path d="M203.961 285.754H210.935L222.612 219.131H215.638L203.961 285.754Z" fill="#263238"/>
<path opacity="0.3" d="M203.961 285.754H210.935L222.612 219.131H215.638L203.961 285.754Z" fill="white"/>
<path d="M342.474 285.754H349.448L361.124 219.131H354.139L342.474 285.754Z" fill="#263238"/>
<path d="M273.212 285.754H280.186L291.863 219.131H284.889L273.212 285.754Z" fill="#263238"/>
<path opacity="0.3" d="M342.474 285.754H349.448L361.124 219.131H354.139L342.474 285.754Z" fill="white"/>
<path opacity="0.3" d="M273.212 285.754H280.186L291.863 219.131H284.889L273.212 285.754Z" fill="white"/>
<path d="M191.913 223.685H375.093L377.279 211.21H194.1L191.913 223.685Z" fill="#263238"/>
<path d="M187.965 246.238H371.144L373.331 233.774H190.141L187.965 246.238Z" fill="#263238"/>
<path d="M184.006 268.79H367.185L369.372 256.327H186.192L184.006 268.79Z" fill="#263238"/>
<path d="M131.93 292.422L365.38 292.422V283.793L131.93 283.793V292.422Z" fill="#263238"/>
<path opacity="0.5" d="M191.913 223.685H375.093L377.279 211.21H194.1L191.913 223.685Z" fill="white"/>
<path opacity="0.5" d="M187.965 246.238H371.144L373.331 233.774H190.141L187.965 246.238Z" fill="white"/>
<path opacity="0.5" d="M184.006 268.79H367.185L369.372 256.327H186.192L184.006 268.79Z" fill="white"/>
<path opacity="0.5" d="M131.93 292.422L365.38 292.422V283.793L131.93 283.793V292.422Z" fill="white"/>
<path opacity="0.2" d="M131.93 292.422H308.061V283.793H131.93V292.422Z" fill="white"/>
<path d="M290.005 194.901C287.033 198.278 283.997 201.394 280.685 204.423C279.029 205.926 277.32 207.408 275.452 208.824C274.518 209.533 273.541 210.241 272.437 210.927C271.885 211.265 271.291 211.603 270.622 211.94C269.943 212.267 269.2 212.616 268.106 212.899C267.533 213.03 266.875 213.161 265.92 213.128C265.676 213.117 265.389 213.084 265.166 213.041L264.784 212.954C264.529 212.888 264.264 212.823 264.03 212.757C263.149 212.463 262.396 212.104 261.769 211.744C260.496 211.014 259.487 210.241 258.532 209.456C256.632 207.898 255.061 206.242 253.522 204.564C250.497 201.176 247.875 197.657 245.444 193.866C244.637 192.613 244.987 190.924 246.208 190.107C247.217 189.431 248.501 189.551 249.382 190.314L249.435 190.368C252.588 193.136 255.815 195.947 259.01 198.507C260.591 199.792 262.226 200.991 263.776 201.993C264.54 202.484 265.315 202.898 265.941 203.148C266.259 203.29 266.493 203.333 266.62 203.355C266.642 203.355 266.631 203.333 266.642 203.333C266.557 203.312 266.408 203.29 266.291 203.29C265.877 203.268 265.739 203.301 265.676 203.301C265.612 203.301 265.835 203.192 266.1 203.017C266.366 202.843 266.695 202.614 267.024 202.364C267.703 201.863 268.436 201.263 269.157 200.62C270.612 199.335 272.087 197.929 273.552 196.48C276.46 193.582 279.411 190.499 282.224 187.514L282.277 187.459C284.315 185.302 287.669 185.248 289.771 187.339C291.83 189.388 291.915 192.732 290.015 194.901H290.005Z" fill="#E9B376"/>
<path d="M287.308 185.15V200.762C287.308 200.762 284.092 203.508 280.143 206.536C278.169 208.051 276.014 209.631 273.998 210.971C270.93 213.019 268.17 214.523 266.769 214.435C262.587 214.174 253.511 207.517 253.511 207.517L259.477 197.319C259.477 197.319 266.334 201.623 266.769 201.917C267.204 202.2 281.587 185.248 287.308 185.15Z" fill="#FAFAFA"/>
<path opacity="0.2" d="M280.143 206.536C278.169 208.051 276.014 209.631 273.997 210.971C274.475 202.015 278.583 198.572 278.583 198.572C279.857 201.078 280.271 203.878 280.143 206.536V206.536Z" fill="black"/>
<path d="M293.115 144.097C285.79 150.231 286.65 167.881 294.887 179.462C294.887 179.462 312.465 180.977 322.231 176.488C331.997 171.999 321.201 143.422 310.884 141.177C300.566 138.933 293.125 144.097 293.125 144.097H293.115Z" fill="#263238"/>
<path d="M293.55 162.434C290.865 157.683 288.2 144.86 299.367 140.894C313.304 135.948 319.546 145.067 320.756 154.11C321.955 163.153 316.998 169.984 307.784 169.308C298.571 168.633 295.408 165.713 293.55 162.423V162.434Z" fill="#263238"/>
<path d="M278.583 198.572C277.224 205.185 279.613 220.765 280.005 232.499L312.826 236.378C312.826 232.695 313.495 227.357 315.639 218.87C316.871 213.901 318.622 207.844 321.032 200.424C321.382 199.324 321.753 198.191 322.146 197.025C323.876 191.839 320.894 186.599 315.735 185.771C314.365 185.542 312.89 185.346 311.393 185.193C305.545 184.583 300.747 184.125 295.524 184.332C293.794 184.387 291.99 184.529 290.259 184.67C284.05 185.204 279.857 192.373 278.583 198.561V198.572Z" fill="#263238"/>
<path d="M311.224 166.802C309.568 171.967 307.381 181.478 310.512 185.15C310.512 185.15 305.714 184.136 295.11 190.096C292.361 185.553 294.643 184.278 294.643 184.278C300.513 183.199 300.906 178.874 300.418 174.767L311.224 166.792V166.802Z" fill="#EBB376"/>
<path opacity="0.2" d="M306.819 170.049L300.428 174.767C300.545 175.736 300.609 176.728 300.556 177.676C302.774 177.469 306.065 175.192 306.585 172.882C306.85 171.727 306.935 170.605 306.819 170.06V170.049Z" fill="black"/>
<path d="M313.421 154.742C313.537 163.36 313.76 167.009 309.865 171.738C303.995 178.852 293.656 177.109 291.034 168.698C288.678 161.126 288.89 148.303 296.819 144.25C304.632 140.262 313.314 146.113 313.421 154.742V154.742Z" fill="#FFB573"/>
<path d="M306.298 146.679C303.974 149.676 309.27 159.111 313.453 160.723C321.573 157.977 313.251 137.745 306.298 146.679Z" fill="#263238"/>
<path d="M296.352 142.659C293.263 144.054 290.366 150.013 289.983 152.236C294.58 152.584 306.404 147.137 306.404 147.137C306.404 147.137 314.748 148.717 310.258 144.849C305.768 140.981 296.342 142.659 296.342 142.659H296.352Z" fill="#263238"/>
<path d="M299.452 158.25C299.505 158.947 299.186 159.546 298.741 159.579C298.295 159.612 297.891 159.078 297.838 158.381C297.785 157.683 298.104 157.084 298.549 157.051C298.995 157.019 299.399 157.553 299.452 158.25Z" fill="#263238"/>
<path d="M291.756 158.838C291.809 159.535 291.491 160.135 291.045 160.167C290.599 160.2 290.196 159.666 290.142 158.969C290.089 158.272 290.408 157.672 290.854 157.64C291.299 157.607 291.703 158.141 291.756 158.838Z" fill="#263238"/>
<path d="M291.055 157.662L289.389 157.302C289.389 157.302 290.323 158.544 291.055 157.662Z" fill="#263238"/>
<path d="M295.025 159.71C295.025 159.71 294.091 162.804 292.924 164.351C293.89 165.146 295.386 164.634 295.386 164.634L295.025 159.71V159.71Z" fill="#ED893E"/>
<path d="M299.293 167.086C298.985 167.162 298.656 167.216 298.295 167.238C298.189 167.238 298.093 167.162 298.083 167.053C298.083 166.944 298.167 166.835 298.263 166.835C301.256 166.606 302.488 164.351 302.498 164.329C302.551 164.231 302.668 164.199 302.774 164.253C302.87 164.307 302.902 164.427 302.849 164.536C302.796 164.623 301.766 166.508 299.282 167.097L299.293 167.086Z" fill="#263238"/>
<path d="M316.255 162.434C315.788 164.155 314.578 165.495 313.325 166.192C311.436 167.238 310.014 165.615 310.141 163.534C310.258 161.649 311.383 158.838 313.474 158.653C315.533 158.468 316.796 160.472 316.255 162.444V162.434Z" fill="#FFB573"/>
<path d="M303.22 156.202C303.05 156.245 302.881 156.169 302.785 156.016C301.83 154.382 299.441 154.197 299.42 154.186C299.197 154.175 299.038 153.968 299.049 153.75C299.059 153.521 299.25 153.358 299.473 153.369C299.59 153.369 302.297 153.598 303.464 155.591C303.581 155.788 303.517 156.038 303.326 156.158C303.284 156.18 303.252 156.202 303.21 156.202H303.22Z" fill="#263238"/>
<path d="M289.972 155.167C289.834 155.199 289.696 155.167 289.59 155.047C289.442 154.883 289.442 154.622 289.601 154.469C291.204 152.89 293.008 153.304 293.082 153.325C293.295 153.38 293.433 153.598 293.38 153.816C293.327 154.033 293.114 154.175 292.902 154.121C292.838 154.11 291.426 153.805 290.153 155.058C290.1 155.112 290.036 155.145 289.962 155.167H289.972Z" fill="#263238"/>
<path d="M298.751 157.062L297.085 156.703C297.085 156.703 298.019 157.945 298.751 157.062Z" fill="#263238"/>
<path d="M268.924 188.897L269.72 191.447C270.017 192.406 270.749 193.157 271.684 193.462L276.057 194.901C277.808 195.478 279.719 195.14 281.184 194.018L282.097 193.321C281.056 188.996 276.832 185.106 276.832 185.106L275.749 183.864C274.783 182.753 273.223 182.622 272.161 183.57L269.73 185.749C268.892 186.501 268.573 187.754 268.934 188.908L268.924 188.897Z" fill="#EBB376"/>
<path d="M239.531 191.229L240.327 193.778C240.625 194.737 241.357 195.489 242.291 195.794L246.664 197.232C248.416 197.81 250.327 197.472 251.791 196.35L252.704 195.652C251.664 191.327 247.439 187.438 247.439 187.438L246.357 186.196C245.391 185.084 243.83 184.953 242.769 185.901L240.338 188.08C239.499 188.832 239.181 190.085 239.542 191.24L239.531 191.229Z" fill="#EBB376"/>
<path opacity="0.2" d="M302.976 204.913C305.088 211.298 310.47 216.059 315.629 218.88C316.86 213.912 318.611 207.855 321.021 200.435C317.783 195.794 313.251 192.493 307.487 193.375C307.487 193.375 300.832 198.452 302.976 204.913Z" fill="black"/>
<path d="M186.5 331.578L192.041 333.877C192.041 333.877 239.128 260.979 243.48 263.724C259.264 273.65 291.714 291.387 307.073 280.644C322.433 269.913 313.315 241.586 313.315 241.586C313.315 241.586 283.455 230.821 279.761 237.478C279.04 238.764 278.031 241.368 277.225 243.601C276.45 245.704 275.855 247.491 275.855 247.491C275.855 247.491 275.855 247.491 275.834 247.48C274.932 247.044 245.656 232.586 231.868 238.535C217.867 244.593 186.5 331.578 186.5 331.578V331.578Z" fill="#EBB376"/>
<path d="M288.593 284.534C288.593 284.534 273.785 285.525 253.5 278.454C253.5 278.454 248.501 336.503 245.147 368.011L238.343 367.031C238.343 367.031 226.783 281.036 229.076 270.545C231.358 260.064 243.724 259.366 243.724 259.366C243.724 259.366 267.395 277.191 288.604 284.534H288.593Z" fill="#EBB376"/>
<path d="M288.593 284.534C288.264 284.468 273.785 285.089 258.978 280.775L260.909 272.517C268.372 277.561 278.774 280.644 288.603 284.534H288.593Z" fill="#FAFAFA"/>
<path opacity="0.4" d="M288.593 284.534C288.264 284.468 273.785 285.089 258.978 280.775L260.909 272.517C268.372 277.561 278.774 280.644 288.603 284.534H288.593Z" fill="white"/>
<path d="M259.646 271.656L257.874 280.851L260.57 281.799L262.65 273.682L259.646 271.656Z" fill="#FAFAFA"/>
<path opacity="0.6" d="M259.646 271.656L257.874 280.851L260.57 281.799L262.65 273.682L259.646 271.656Z" fill="white"/>
<path opacity="0.2" d="M231.517 307.097C230.445 284.25 229.989 272.408 233.651 267.679C237.313 262.951 243.045 262.101 243.045 262.101C247.8 274.467 268.541 282.18 269.093 282.387C276.832 284.043 288.296 284.468 288.582 284.523C276.842 282.028 268.35 277.55 260.888 272.506C250.56 265.522 243.703 259.355 243.703 259.355C243.703 259.355 231.337 260.042 229.054 270.534C228.12 274.815 229.511 291.735 231.453 310.246C231.538 309.08 231.549 308.023 231.506 307.097H231.517Z" fill="black"/>
<path d="M180.959 326.795C180.853 326.578 180.81 326.229 181.171 325.771C181.341 325.553 181.585 325.423 181.893 325.401C182.466 325.346 183.209 325.673 183.889 326.087C183.369 325.379 182.965 324.638 183.146 324.17C183.263 323.865 183.56 323.701 184.037 323.701C184.483 323.701 184.855 323.865 185.152 324.192C186.086 325.227 185.884 327.591 185.874 327.7C185.874 327.743 185.863 327.776 185.842 327.809C185.831 327.83 185.821 327.841 185.799 327.863C185.778 327.885 185.746 327.907 185.725 327.918C185.725 327.918 185.672 327.939 185.64 327.939C185.237 327.939 183.846 327.939 182.679 327.7C181.883 327.536 181.182 327.264 180.97 326.806L180.959 326.795ZM181.936 325.902C181.766 325.913 181.649 325.978 181.554 326.087C181.32 326.392 181.384 326.534 181.405 326.578C181.649 327.1 183.422 327.362 184.918 327.406C184.069 326.741 182.711 325.826 181.936 325.891V325.902ZM184.048 324.202C183.91 324.202 183.666 324.224 183.613 324.355C183.454 324.758 184.366 326.011 185.407 327.1C185.407 326.381 185.332 325.139 184.791 324.54C184.642 324.377 184.473 324.279 184.271 324.235C184.197 324.224 184.122 324.213 184.048 324.213V324.202Z" fill="#263238"/>
<path d="M231.698 362.052C231.517 361.899 231.326 361.605 231.453 361.027C231.517 360.755 231.687 360.526 231.942 360.374C232.43 360.08 233.247 360.047 234.033 360.112C233.269 359.709 232.6 359.208 232.557 358.707C232.536 358.38 232.738 358.108 233.162 357.89C233.555 357.694 233.969 357.672 234.373 357.846C235.646 358.369 236.453 360.592 236.495 360.701C236.506 360.733 236.517 360.777 236.506 360.82C236.506 360.82 236.506 360.853 236.495 360.875C236.495 360.875 236.464 360.94 236.442 360.962C236.421 360.984 236.411 360.995 236.379 361.006C235.88 361.256 233.789 362.27 232.483 362.27C232.154 362.27 231.878 362.204 231.687 362.052H231.698ZM232.207 360.81C232.059 360.897 231.974 361.006 231.942 361.147C231.857 361.529 231.974 361.627 232.005 361.659C232.451 362.03 234.16 361.474 235.53 360.864C234.479 360.635 232.876 360.406 232.207 360.82V360.81ZM233.396 358.347C233.269 358.413 233.056 358.533 233.067 358.674C233.099 359.11 234.447 359.84 235.837 360.363C235.54 359.709 234.946 358.62 234.213 358.315C234.086 358.26 233.969 358.238 233.842 358.238C233.693 358.238 233.545 358.271 233.407 358.347H233.396Z" fill="#263238"/>
<path d="M195.533 331.426C195.841 330.707 187.094 327.242 187.094 327.242C187.094 327.242 179.42 330.227 173.794 329.051C168.168 327.874 169.601 332.341 175.27 335.032C180.948 337.712 185.269 339.771 189.302 341.678C193.336 343.585 192.402 338.867 195.533 331.437V331.426Z" fill="#263238"/>
<path d="M246.792 359.807C246.76 359.023 237.419 359.753 237.419 359.753C237.419 359.753 231.74 365.832 226.157 367.249C220.584 368.665 223.747 372.075 229.999 371.999C236.251 371.922 241.017 371.868 245.454 371.814C249.891 371.759 247.078 367.913 246.792 359.818V359.807Z" fill="#263238"/>
<path d="M313.304 241.586C313.304 241.586 283.445 230.821 279.751 237.478C279.029 238.764 278.021 241.368 277.214 243.601C276.439 245.704 275.845 247.491 275.845 247.491C275.845 247.491 275.845 247.491 275.823 247.48C275.791 247.458 273.371 246.325 273.371 246.325L263.362 276.973C279.273 286.026 301.766 287.083 310.969 280.644C326.328 269.913 313.294 241.586 313.294 241.586H313.304Z" fill="#FAFAFA"/>
<g opacity="0.4">
<path d="M313.304 241.586C313.304 241.586 283.445 230.821 279.751 237.478C279.029 238.764 278.021 241.368 277.214 243.601C276.439 245.704 275.845 247.491 275.845 247.491C275.845 247.491 275.845 247.491 275.823 247.48C275.791 247.458 273.371 246.325 273.371 246.325L263.362 276.973C279.273 286.026 301.766 287.083 310.969 280.644C326.328 269.913 313.294 241.586 313.294 241.586H313.304Z" fill="white"/>
</g>
<path opacity="0.3" d="M275.855 247.491L293.094 254.997C293.094 254.997 284.251 247.338 277.225 243.601C276.45 245.704 275.855 247.491 275.855 247.491V247.491Z" fill="black"/>
<path d="M279.326 238.317L279.931 230.756L313.304 235.31L313.75 242.61L279.326 238.317Z" fill="#FAFAFA"/>
<path opacity="0.4" d="M279.326 238.317L279.931 230.756L313.304 235.31L313.75 242.61L279.326 238.317Z" fill="white"/>
<path d="M279.995 231.497L281.735 231.758L281.194 237.653L279.75 237.478L279.995 231.497Z" fill="#263238"/>
<path d="M283.392 231.998L302.212 234.809L301.723 240.169L282.861 237.86L283.392 231.998Z" fill="#263238"/>
<path d="M313.304 241.586L303.39 240.376L303.868 235.06H303.878L312.826 236.389L313.304 241.586Z" fill="#263238"/>
<path opacity="0.2" d="M279.995 231.497L281.735 231.758L281.194 237.653L279.75 237.478L279.995 231.497Z" fill="black"/>
<path opacity="0.2" d="M283.392 231.998L302.212 234.809L301.723 240.169L282.861 237.86L283.392 231.998Z" fill="black"/>
<path opacity="0.2" d="M313.304 241.586L303.39 240.376L303.868 235.06H303.878L312.826 236.389L313.304 241.586Z" fill="black"/>
<path d="M287.878 238.572L293.234 239.3C293.781 239.374 294.282 238.98 294.355 238.419L294.828 234.747C294.9 234.186 294.516 233.671 293.97 233.597L288.614 232.869C288.067 232.795 287.566 233.189 287.494 233.75L287.02 237.422C286.948 237.983 287.332 238.498 287.878 238.572Z" stroke="white" stroke-linecap="round" stroke-linejoin="round"/>
<path d="M291.724 236.084L293.614 236.389" stroke="white" stroke-linecap="round" stroke-linejoin="round"/>
<path d="M271.949 244.211L274.74 245.715L265.304 278.64L261.334 277.833L271.949 244.211Z" fill="#FAFAFA"/>
<path opacity="0.6" d="M271.949 244.211L274.74 245.715L265.304 278.64L261.334 277.833L271.949 244.211Z" fill="white"/>
<path d="M269.73 210.971H246.346C245.444 210.971 244.648 210.219 244.573 209.293L241.315 177.436C241.24 176.51 241.898 175.758 242.801 175.758H266.185C267.087 175.758 267.883 176.51 267.958 177.436L271.216 209.293C271.291 210.219 270.633 210.971 269.73 210.971Z" fill="#263238"/>
<path opacity="0.6" d="M269.73 210.971H246.346C245.444 210.971 244.648 210.219 244.573 209.293L241.315 177.436C241.24 176.51 241.898 175.758 242.801 175.758H266.185C267.087 175.758 267.883 176.51 267.958 177.436L271.216 209.293C271.291 210.219 270.633 210.971 269.73 210.971Z" fill="white"/>
<path opacity="0.2" d="M268.754 210.971H246.346C245.444 210.971 244.648 210.219 244.573 209.293L241.315 177.436C241.24 176.51 241.898 175.758 242.801 175.758H265.208C266.111 175.758 266.907 176.51 266.981 177.436L270.24 209.293C270.314 210.219 269.656 210.971 268.754 210.971Z" fill="white"/>
<path d="M255.114 190.75C253.723 190.75 252.683 191.915 252.81 193.354C252.927 194.792 254.158 195.957 255.56 195.957C256.961 195.957 257.99 194.792 257.863 193.354C256.472 193.354 255.241 192.188 255.114 190.75Z" fill="#263238"/>
<path opacity="0.3" d="M260.177 178.275H247.821C247.216 178.275 246.643 177.894 246.367 177.316L245.624 175.747H261.928L261.451 177.316C261.281 177.894 260.761 178.275 260.166 178.275H260.177Z" fill="black"/>
<path d="M319.8 251.195H315.459C315.459 251.195 310.035 234.482 306.871 220.319C305.927 216.146 305.194 212.191 304.844 208.955C304.324 204.15 304.908 199.88 305.895 196.339C307.848 189.377 311.393 185.204 311.393 185.204L310.512 185.15C318.728 185.062 323.165 187.982 323.717 193.234C324.28 198.474 315.183 229.645 314.758 233.807C314.344 237.979 319.8 251.195 319.8 251.195V251.195Z" fill="#FAFAFA"/>
<path d="M291.767 184.561C291.767 184.561 283.084 198.616 280.749 204.597C278.424 210.578 279.751 227.673 279.751 227.673C279.751 227.673 275.303 207.092 278.169 196.894C281.035 186.697 285.971 184.594 291.767 184.572V184.561Z" fill="#FAFAFA"/>
<path d="M321.531 197.221C318.877 201.307 316.106 204.978 312.773 208.563C311.096 210.35 309.324 212.082 307.084 213.716C305.948 214.533 304.717 215.35 302.987 216.004C302.105 216.32 301.076 216.614 299.781 216.647C299.123 216.647 298.422 216.603 297.679 216.407C297.339 216.331 296.904 216.168 296.628 216.059L296.076 215.797C294.622 215.078 293.486 214.283 292.446 213.444C291.406 212.605 290.482 211.744 289.601 210.873C287.85 209.119 286.321 207.288 284.856 205.436C281.959 201.699 279.464 197.831 277.193 193.691C276.481 192.384 276.927 190.728 278.201 189.998C279.273 189.377 280.579 189.606 281.396 190.477L281.449 190.532C284.453 193.724 287.574 196.927 290.684 199.901C292.244 201.383 293.837 202.799 295.418 204.052C296.968 205.294 298.677 206.395 299.876 206.831L300.089 206.907C300.089 206.907 299.898 206.831 299.834 206.809C299.622 206.754 299.494 206.722 299.388 206.722C299.208 206.7 299.261 206.7 299.42 206.602C299.749 206.417 300.407 205.981 301.044 205.436C302.35 204.325 303.73 202.821 305.067 201.274C307.721 198.136 310.364 194.563 312.742 191.153L312.826 191.033C314.535 188.592 317.847 188.026 320.225 189.78C322.55 191.49 323.123 194.792 321.541 197.221H321.531Z" fill="#E9B376"/>
<path opacity="0.2" d="M320.373 201.263C320.373 201.263 312.731 214.642 306.871 220.319C305.927 216.146 305.194 212.191 304.844 208.955C304.324 204.15 304.908 199.88 305.895 196.339C308.326 194.291 310.725 192.253 311.945 191.218C314.96 188.636 320.373 201.263 320.373 201.263V201.263Z" fill="black"/>
<path d="M320.926 188.876C324.927 191.087 323.717 197.025 318.474 204.063C313.23 211.101 303.74 220.613 298.762 218.87C293.784 217.126 288.136 210.328 288.136 210.328L291.767 199.782C291.767 199.782 298.921 205.349 300.407 205.066C301.893 204.782 309.175 195.119 311.277 192.112C313.378 189.115 316.595 186.468 320.936 188.865L320.926 188.876Z" fill="#FAFAFA"/>
<path d="M246.325 189.508L246.176 191.599C246.091 192.722 245.274 193.626 244.191 193.789L241.421 194.214L242.079 186.544L244.393 186.969C245.582 187.176 246.42 188.276 246.336 189.508H246.325Z" fill="#FFB573"/>
</g>
<defs>
<filter id="filter0_d_214_3373" x="0" y="0" width="414" height="380" filterUnits="userSpaceOnUse" color-interpolation-filters="sRGB">
<feFlood flood-opacity="0" result="BackgroundImageFix"/>
<feColorMatrix in="SourceAlpha" type="matrix" values="0 0 0 0 0 0 0 0 0 0 0 0 0 0 0 0 0 0 127 0" result="hardAlpha"/>
<feOffset dy="4"/>
<feGaussianBlur stdDeviation="2"/>
<feComposite in2="hardAlpha" operator="out"/>
<feColorMatrix type="matrix" values="0 0 0 0 0 0 0 0 0 0 0 0 0 0 0 0 0 0 0.25 0"/>
<feBlend mode="normal" in2="BackgroundImageFix" result="effect1_dropShadow_214_3373"/>
<feBlend mode="normal" in="SourceGraphic" in2="effect1_dropShadow_214_3373" result="shape"/>
</filter>
<clipPath id="clip0_214_3373">
<rect width="406" height="372" fill="white" transform="translate(4)"/>
</clipPath>
</defs>
</svg>
