<svg width="16" height="16" viewBox="0 0 16 16" fill="none" xmlns="http://www.w3.org/2000/svg">
<path fill-rule="evenodd" clip-rule="evenodd" d="M7.00007 5.49718L7.00007 5.49424L4.16969 5.49421L6.88467 4.51316L6.88438 4.51236C6.93637 4.49925 6.99018 4.49458 7.04373 4.49858C7.05079 4.4991 7.05785 4.49978 7.0649 4.50061L7.06501 4.50062C7.13853 4.50928 7.20922 4.53417 7.27196 4.57349L7.27197 4.5735C7.33471 4.61282 7.38793 4.66559 7.42779 4.728L7.42785 4.7281C7.46769 4.79051 7.49318 4.861 7.50247 4.93446L7.50249 4.9346C7.51176 5.00809 7.50459 5.08273 7.4815 5.15312L7.48148 5.15317C7.45838 5.22357 7.41992 5.28796 7.36889 5.34167L7.36884 5.34172C7.31782 5.3954 7.25551 5.43708 7.18642 5.46373L7.18629 5.46379C7.17979 5.46629 7.17325 5.46866 7.16666 5.47088C7.113 5.48903 7.05666 5.49792 7.00007 5.49718ZM2 5.21479V6.49426L6.98978 6.49432C7.17929 6.49645 7.36777 6.46255 7.54513 6.39413L7.54527 6.39408C7.68027 6.34198 7.80662 6.27073 7.92058 6.18283C7.98126 6.13602 8.03842 6.0845 8.0915 6.02863L8.09155 6.02858C8.24431 5.86777 8.35945 5.67503 8.42863 5.46427L8.42865 5.46421C8.49781 5.25345 8.5193 5.02996 8.49156 4.80988L8.49154 4.80974C8.46377 4.58965 8.38746 4.37849 8.26812 4.19152L8.26805 4.19141C8.14868 4.00442 7.98925 3.8463 7.8013 3.7285L7.80129 3.72849C7.73598 3.68755 7.66778 3.65184 7.59735 3.62157C7.46512 3.56474 7.325 3.52713 7.18127 3.51024L7.18116 3.51022C6.96701 3.48506 6.75003 3.50649 6.54506 3.57294L6.5449 3.57252L6.52956 3.57806L6.52775 3.57867L6.52755 3.57874L6.52756 3.57879L2 5.21479ZM2 9.49902V10.5263L8.60291 12.8753L8.60283 12.8755C8.84179 12.9709 9.09883 13.0123 9.35564 12.9969C9.45438 12.991 9.55216 12.9767 9.64795 12.9544C9.80128 12.9186 9.94954 12.8623 10.0885 12.7864C10.3144 12.6632 10.5103 12.4916 10.6623 12.284C10.8143 12.0764 10.9186 11.8378 10.9679 11.5852C11.0171 11.3326 11.01 11.0722 10.9472 10.8227C10.8843 10.5732 10.7672 10.3406 10.6042 10.1415C10.5038 10.0189 10.3876 9.91095 10.2589 9.8202C10.1785 9.76351 10.0933 9.71355 10.004 9.67095C9.77216 9.56033 9.5188 9.50215 9.26194 9.50054V9.49905L2 9.49902ZM9.25516 10.4991L4.90755 10.4991L8.99209 11.9522L8.99173 11.9533C9.08881 11.9891 9.19234 12.0044 9.29578 11.9982C9.40575 11.9916 9.51291 11.9608 9.60963 11.9081C9.70634 11.8553 9.79023 11.7819 9.85532 11.6929C9.9204 11.604 9.96508 11.5018 9.98617 11.3937C10.0073 11.2855 10.0042 11.174 9.97731 11.0672C9.95039 10.9603 9.90023 10.8607 9.83042 10.7755C9.76061 10.6902 9.67286 10.6214 9.57342 10.574C9.47413 10.5266 9.36562 10.5017 9.25561 10.501L9.25515 10.501L9.25515 10.5008L9.25516 10.4991ZM11.509 5.62406L11.5086 5.62431L11.0168 4.75358L11.0162 4.75257L11.0172 4.75202C11.2835 4.60175 11.5807 4.51454 11.8859 4.49709C11.9302 4.49456 11.9744 4.4935 12.0186 4.49391C12.2795 4.49634 12.5379 4.54982 12.779 4.6518C13.0609 4.77106 13.3117 4.95346 13.512 5.18495C13.7124 5.41644 13.857 5.69084 13.9346 5.98702C14.0122 6.28321 14.0209 6.59326 13.9598 6.89331C13.8988 7.19335 13.7697 7.47538 13.5826 7.71767C13.4225 7.92484 13.2237 8.09822 12.9976 8.22838C12.9592 8.25045 12.9201 8.27127 12.8803 8.29081C12.6054 8.42558 12.3033 8.49544 11.9972 8.49501V8.49486H2V7.49486H11.9986L11.9986 7.49378C12.1515 7.494 12.3024 7.4591 12.4397 7.39178C12.577 7.32445 12.6971 7.22651 12.7906 7.10547C12.884 6.98444 12.9485 6.84356 12.979 6.69368C13.0095 6.54379 13.0052 6.38891 12.9664 6.24096C12.9276 6.093 12.8554 5.95593 12.7553 5.84029C12.6552 5.72465 12.5299 5.63354 12.3891 5.57397C12.2483 5.5144 12.0957 5.48795 11.943 5.49668C11.7905 5.5054 11.642 5.54898 11.509 5.62406Z" fill="url(#paint0_linear_214_7367)"/>
<defs>
<linearGradient id="paint0_linear_214_7367" x1="8" y1="3.5" x2="8" y2="13" gradientUnits="userSpaceOnUse">
<stop stop-color="#A4BEE3"/>
<stop offset="1" stop-color="#4B6995"/>
</linearGradient>
</defs>
</svg>
